<?xml version="1.0" encoding="UTF-8"?>
<!--Generator: Apple Native CoreSVG 123-->
<!DOCTYPE svg
PUBLIC "-//W3C//DTD SVG 1.1//EN"
       "http://www.w3.org/Graphics/SVG/1.1/DTD/svg11.dtd">
<svg version="1.1" xmlns="http://www.w3.org/2000/svg" xmlns:xlink="http://www.w3.org/1999/xlink" width="3300" height="2200">
 <!--glyph: "uni100319.medium", point size: 100.000000, font version: "Version 15.0d7e11", template writer version: "5"-->
 <g id="Notes">
  <rect height="2200" id="artboard" style="fill:white;opacity:1" width="3300" x="0" y="0"/>
  <line id="" style="fill:none;stroke:black;opacity:1;stroke-width:0.5;" x1="263" x2="3036" y1="292" y2="292"/>
  <text style="stroke:none;fill:black;font-family:-apple-system,&quot;SF Pro Display&quot;,&quot;SF Pro Text&quot;,Helvetica,sans-serif;font-weight:bold;" transform="matrix(1 0 0 1 263 322)">Weight/Scale Variations</text>
  <text style="stroke:none;fill:black;font-family:-apple-system,&quot;SF Pro Display&quot;,&quot;SF Pro Text&quot;,Helvetica,sans-serif;text-anchor:middle;" transform="matrix(1 0 0 1 559.711 322)">Ultralight</text>
  <text style="stroke:none;fill:black;font-family:-apple-system,&quot;SF Pro Display&quot;,&quot;SF Pro Text&quot;,Helvetica,sans-serif;text-anchor:middle;" transform="matrix(1 0 0 1 856.422 322)">Thin</text>
  <text style="stroke:none;fill:black;font-family:-apple-system,&quot;SF Pro Display&quot;,&quot;SF Pro Text&quot;,Helvetica,sans-serif;text-anchor:middle;" transform="matrix(1 0 0 1 1153.13 322)">Light</text>
  <text style="stroke:none;fill:black;font-family:-apple-system,&quot;SF Pro Display&quot;,&quot;SF Pro Text&quot;,Helvetica,sans-serif;text-anchor:middle;" transform="matrix(1 0 0 1 1449.84 322)">Regular</text>
  <text style="stroke:none;fill:black;font-family:-apple-system,&quot;SF Pro Display&quot;,&quot;SF Pro Text&quot;,Helvetica,sans-serif;text-anchor:middle;" transform="matrix(1 0 0 1 1746.56 322)">Medium</text>
  <text style="stroke:none;fill:black;font-family:-apple-system,&quot;SF Pro Display&quot;,&quot;SF Pro Text&quot;,Helvetica,sans-serif;text-anchor:middle;" transform="matrix(1 0 0 1 2043.27 322)">Semibold</text>
  <text style="stroke:none;fill:black;font-family:-apple-system,&quot;SF Pro Display&quot;,&quot;SF Pro Text&quot;,Helvetica,sans-serif;text-anchor:middle;" transform="matrix(1 0 0 1 2339.98 322)">Bold</text>
  <text style="stroke:none;fill:black;font-family:-apple-system,&quot;SF Pro Display&quot;,&quot;SF Pro Text&quot;,Helvetica,sans-serif;text-anchor:middle;" transform="matrix(1 0 0 1 2636.69 322)">Heavy</text>
  <text style="stroke:none;fill:black;font-family:-apple-system,&quot;SF Pro Display&quot;,&quot;SF Pro Text&quot;,Helvetica,sans-serif;text-anchor:middle;" transform="matrix(1 0 0 1 2933.4 322)">Black</text>
  <line id="" style="fill:none;stroke:black;opacity:1;stroke-width:0.5;" x1="263" x2="3036" y1="1903" y2="1903"/>
  <g id="" transform="matrix(1 0 0 1 263 1933)">
   <path d="M 9.24805 0.830078 C 13.5547 0.830078 17.1387 -2.74414 17.1387 -7.05078 C 17.1387 -11.3574 13.5449 -14.9316 9.23828 -14.9316 C 4.94141 -14.9316 1.36719 -11.3574 1.36719 -7.05078 C 1.36719 -2.74414 4.95117 0.830078 9.24805 0.830078 Z M 9.24805 -0.654297 C 5.70312 -0.654297 2.87109 -3.49609 2.87109 -7.05078 C 2.87109 -10.6055 5.69336 -13.4473 9.23828 -13.4473 C 12.793 -13.4473 15.6348 -10.6055 15.6445 -7.05078 C 15.6543 -3.49609 12.8027 -0.654297 9.24805 -0.654297 Z M 9.22852 -3.42773 C 9.69727 -3.42773 9.9707 -3.74023 9.9707 -4.25781 L 9.9707 -6.31836 L 12.1973 -6.31836 C 12.6953 -6.31836 13.0371 -6.57227 13.0371 -7.04102 C 13.0371 -7.51953 12.7148 -7.7832 12.1973 -7.7832 L 9.9707 -7.7832 L 9.9707 -10.0098 C 9.9707 -10.5273 9.69727 -10.8496 9.22852 -10.8496 C 8.75977 -10.8496 8.50586 -10.5078 8.50586 -10.0098 L 8.50586 -7.7832 L 6.29883 -7.7832 C 5.78125 -7.7832 5.44922 -7.51953 5.44922 -7.04102 C 5.44922 -6.57227 5.80078 -6.31836 6.29883 -6.31836 L 8.50586 -6.31836 L 8.50586 -4.25781 C 8.50586 -3.75977 8.75977 -3.42773 9.22852 -3.42773 Z"/>
  </g>
  <g id="" transform="matrix(1 0 0 1 281.506 1933)">
   <path d="M 11.709 2.91016 C 17.1582 2.91016 21.6699 -1.60156 21.6699 -7.05078 C 21.6699 -12.4902 17.1484 -17.0117 11.6992 -17.0117 C 6.25977 -17.0117 1.74805 -12.4902 1.74805 -7.05078 C 1.74805 -1.60156 6.26953 2.91016 11.709 2.91016 Z M 11.709 1.25 C 7.09961 1.25 3.41797 -2.44141 3.41797 -7.05078 C 3.41797 -11.6504 7.08984 -15.3516 11.6992 -15.3516 C 16.3086 -15.3516 20 -11.6504 20.0098 -7.05078 C 20.0195 -2.44141 16.3184 1.25 11.709 1.25 Z M 11.6895 -2.41211 C 12.207 -2.41211 12.5195 -2.77344 12.5195 -3.33984 L 12.5195 -6.23047 L 15.5762 -6.23047 C 16.123 -6.23047 16.5039 -6.51367 16.5039 -7.03125 C 16.5039 -7.55859 16.1426 -7.86133 15.5762 -7.86133 L 12.5195 -7.86133 L 12.5195 -10.9277 C 12.5195 -11.5039 12.207 -11.8555 11.6895 -11.8555 C 11.1719 -11.8555 10.8789 -11.4844 10.8789 -10.9277 L 10.8789 -7.86133 L 7.83203 -7.86133 C 7.26562 -7.86133 6.89453 -7.55859 6.89453 -7.03125 C 6.89453 -6.51367 7.28516 -6.23047 7.83203 -6.23047 L 10.8789 -6.23047 L 10.8789 -3.33984 C 10.8789 -2.79297 11.1719 -2.41211 11.6895 -2.41211 Z"/>
  </g>
  <g id="" transform="matrix(1 0 0 1 304.924 1933)">
   <path d="M 14.9707 5.67383 C 21.9336 5.67383 27.6953 -0.078125 27.6953 -7.04102 C 27.6953 -14.0039 21.9238 -19.7559 14.9609 -19.7559 C 8.00781 -19.7559 2.25586 -14.0039 2.25586 -7.04102 C 2.25586 -0.078125 8.01758 5.67383 14.9707 5.67383 Z M 14.9707 3.85742 C 8.93555 3.85742 4.08203 -1.00586 4.08203 -7.04102 C 4.08203 -13.0762 8.92578 -17.9395 14.9609 -17.9395 C 21.0059 -17.9395 25.8594 -13.0762 25.8691 -7.04102 C 25.8789 -1.00586 21.0156 3.85742 14.9707 3.85742 Z M 14.9512 -1.06445 C 15.5176 -1.06445 15.8691 -1.45508 15.8691 -2.06055 L 15.8691 -6.13281 L 20.1074 -6.13281 C 20.6934 -6.13281 21.1133 -6.46484 21.1133 -7.02148 C 21.1133 -7.59766 20.7227 -7.93945 20.1074 -7.93945 L 15.8691 -7.93945 L 15.8691 -12.1875 C 15.8691 -12.8027 15.5176 -13.1934 14.9512 -13.1934 C 14.3848 -13.1934 14.0625 -12.7832 14.0625 -12.1875 L 14.0625 -7.93945 L 9.83398 -7.93945 C 9.21875 -7.93945 8.80859 -7.59766 8.80859 -7.02148 C 8.80859 -6.46484 9.23828 -6.13281 9.83398 -6.13281 L 14.0625 -6.13281 L 14.0625 -2.06055 C 14.0625 -1.47461 14.3848 -1.06445 14.9512 -1.06445 Z"/>
  </g>
  <text style="stroke:none;fill:black;font-family:-apple-system,&quot;SF Pro Display&quot;,&quot;SF Pro Text&quot;,Helvetica,sans-serif;font-weight:bold;" transform="matrix(1 0 0 1 263 1953)">Design Variations</text>
  <text style="stroke:none;fill:black;font-family:-apple-system,&quot;SF Pro Display&quot;,&quot;SF Pro Text&quot;,Helvetica,sans-serif;" transform="matrix(1 0 0 1 263 1971)">Symbols are supported in up to nine weights and three scales.</text>
  <text style="stroke:none;fill:black;font-family:-apple-system,&quot;SF Pro Display&quot;,&quot;SF Pro Text&quot;,Helvetica,sans-serif;" transform="matrix(1 0 0 1 263 1989)">For optimal layout with text and other symbols, vertically align</text>
  <text style="stroke:none;fill:black;font-family:-apple-system,&quot;SF Pro Display&quot;,&quot;SF Pro Text&quot;,Helvetica,sans-serif;" transform="matrix(1 0 0 1 263 2007)">symbols with the adjacent text.</text>
  <rect height="14" id="" style="fill:#00AEEF;stroke:none;opacity:0.4;" width="3" x="776" y="1919"/>
  <g id="" transform="matrix(1 0 0 1 779 1933)">
   <path d="M 10.5273 0 L 12.373 0 L 7.17773 -14.0918 L 5.43945 -14.0918 L 0.244141 0 L 2.08984 0 L 3.50586 -4.0332 L 9.11133 -4.0332 Z M 6.2793 -11.9531 L 6.33789 -11.9531 L 8.59375 -5.52734 L 4.02344 -5.52734 Z"/>
  </g>
  <rect height="14" id="" style="fill:#00AEEF;stroke:none;opacity:0.4;" width="3" x="791.617" y="1919"/>
  <text style="stroke:none;fill:black;font-family:-apple-system,&quot;SF Pro Display&quot;,&quot;SF Pro Text&quot;,Helvetica,sans-serif;font-weight:bold;" transform="matrix(1 0 0 1 776 1953)">Margins</text>
  <text style="stroke:none;fill:black;font-family:-apple-system,&quot;SF Pro Display&quot;,&quot;SF Pro Text&quot;,Helvetica,sans-serif;" transform="matrix(1 0 0 1 776 1971)">Leading and trailing margins on the left and right side of each symbol</text>
  <text style="stroke:none;fill:black;font-family:-apple-system,&quot;SF Pro Display&quot;,&quot;SF Pro Text&quot;,Helvetica,sans-serif;" transform="matrix(1 0 0 1 776 1989)">can be adjusted by modifying the width of the blue rectangles.</text>
  <text style="stroke:none;fill:black;font-family:-apple-system,&quot;SF Pro Display&quot;,&quot;SF Pro Text&quot;,Helvetica,sans-serif;" transform="matrix(1 0 0 1 776 2007)">Modifications are automatically applied proportionally to all</text>
  <text style="stroke:none;fill:black;font-family:-apple-system,&quot;SF Pro Display&quot;,&quot;SF Pro Text&quot;,Helvetica,sans-serif;" transform="matrix(1 0 0 1 776 2025)">scales and weights.</text>
  <g id="" transform="matrix(1 0 0 1 1289 1933)">
   <path d="M 2.83203 3.11523 L 4.375 4.6582 C 5.22461 5.48828 6.19141 5.41992 7.06055 4.46289 L 17.2754 -6.66016 C 17.7051 -6.36719 18.0957 -6.37695 18.5645 -6.47461 L 19.6094 -6.68945 L 20.3027 -5.99609 L 20.2539 -5.47852 C 20.1855 -4.95117 20.3516 -4.53125 20.8496 -4.0332 L 21.6602 -3.22266 C 22.168 -2.71484 22.8223 -2.68555 23.3008 -3.16406 L 26.5527 -6.41602 C 27.0312 -6.89453 27.0117 -7.54883 26.5039 -8.05664 L 25.6836 -8.87695 C 25.1855 -9.375 24.7754 -9.55078 24.2383 -9.47266 L 23.7109 -9.41406 L 23.0566 -10.0781 L 23.3398 -11.2207 C 23.4863 -11.7871 23.3398 -12.2559 22.7148 -12.8613 L 20.3027 -15.2539 C 16.7578 -18.7793 12.2266 -18.6719 9.11133 -15.5371 C 8.69141 -15.1074 8.64258 -14.5215 8.91602 -14.0918 C 9.15039 -13.7207 9.62891 -13.4961 10.2734 -13.6621 C 11.7871 -14.043 13.3008 -13.9258 14.7852 -12.9199 L 14.1602 -11.3379 C 13.9258 -10.752 13.9453 -10.2734 14.1797 -9.83398 L 3.01758 0.439453 C 2.08008 1.30859 1.97266 2.25586 2.83203 3.11523 Z M 10.6738 -15.1465 C 13.3398 -17.1387 16.6504 -16.8262 19.0527 -14.4141 L 21.6797 -11.8066 C 21.9141 -11.5723 21.9434 -11.3867 21.8848 -11.0938 L 21.5039 -9.53125 L 23.0762 -7.95898 L 24.043 -8.04688 C 24.3262 -8.07617 24.4141 -8.05664 24.6387 -7.83203 L 25.2637 -7.20703 L 22.5098 -4.46289 L 21.8848 -5.07812 C 21.6602 -5.30273 21.6406 -5.40039 21.6699 -5.68359 L 21.7578 -6.64062 L 20.1953 -8.20312 L 18.5742 -7.89062 C 18.291 -7.83203 18.1445 -7.83203 17.9102 -8.07617 L 15.7324 -10.2539 C 15.5078 -10.4883 15.4785 -10.625 15.6055 -10.9473 L 16.5527 -13.2227 C 14.9512 -14.7559 12.8418 -15.6055 10.8008 -14.9512 C 10.7129 -14.9219 10.6445 -14.9414 10.6152 -14.9805 C 10.5859 -15.0293 10.5859 -15.0781 10.6738 -15.1465 Z M 4.10156 2.41211 C 3.61328 1.91406 3.78906 1.61133 4.12109 1.30859 L 15.0781 -8.80859 L 16.3086 -7.57812 L 6.15234 3.34961 C 5.84961 3.68164 5.46875 3.7793 5.06836 3.37891 Z"/>
  </g>
  <text style="stroke:none;fill:black;font-family:-apple-system,&quot;SF Pro Display&quot;,&quot;SF Pro Text&quot;,Helvetica,sans-serif;font-weight:bold;" transform="matrix(1 0 0 1 1289 1953)">Exporting</text>
  <text style="stroke:none;fill:black;font-family:-apple-system,&quot;SF Pro Display&quot;,&quot;SF Pro Text&quot;,Helvetica,sans-serif;" transform="matrix(1 0 0 1 1289 1971)">Symbols should be outlined when exporting to ensure the</text>
  <text style="stroke:none;fill:black;font-family:-apple-system,&quot;SF Pro Display&quot;,&quot;SF Pro Text&quot;,Helvetica,sans-serif;" transform="matrix(1 0 0 1 1289 1989)">design is preserved when submitting to Xcode.</text>
  <text id="template-version" style="stroke:none;fill:black;font-family:-apple-system,&quot;SF Pro Display&quot;,&quot;SF Pro Text&quot;,Helvetica,sans-serif;text-anchor:end;" transform="matrix(1 0 0 1 3036 1933)">Template v.1.0</text>
  <text style="stroke:none;fill:black;font-family:-apple-system,&quot;SF Pro Display&quot;,&quot;SF Pro Text&quot;,Helvetica,sans-serif;text-anchor:end;" transform="matrix(1 0 0 1 3036 1951)">Generated from dot.radiowaves.left.and.right</text>
  <text style="stroke:none;fill:black;font-family:-apple-system,&quot;SF Pro Display&quot;,&quot;SF Pro Text&quot;,Helvetica,sans-serif;text-anchor:end;" transform="matrix(1 0 0 1 3036 1969)">Typeset at 100 points</text>
  <text style="stroke:none;fill:black;font-family:-apple-system,&quot;SF Pro Display&quot;,&quot;SF Pro Text&quot;,Helvetica,sans-serif;" transform="matrix(1 0 0 1 263 726)">Small</text>
  <text style="stroke:none;fill:black;font-family:-apple-system,&quot;SF Pro Display&quot;,&quot;SF Pro Text&quot;,Helvetica,sans-serif;" transform="matrix(1 0 0 1 263 1156)">Medium</text>
  <text style="stroke:none;fill:black;font-family:-apple-system,&quot;SF Pro Display&quot;,&quot;SF Pro Text&quot;,Helvetica,sans-serif;" transform="matrix(1 0 0 1 263 1586)">Large</text>
 </g>
 <g id="Guides">
  <g id="H-reference" style="fill:#27AAE1;stroke:none;" transform="matrix(1 0 0 1 339 696)">
   <path d="M 54.9316 0 L 57.666 0 L 30.5664 -70.459 L 28.0762 -70.459 L 0.976562 0 L 3.66211 0 L 12.9395 -24.4629 L 45.7031 -24.4629 Z M 29.1992 -67.0898 L 29.4434 -67.0898 L 44.8242 -26.709 L 13.8184 -26.709 Z"/>
  </g>
  <line id="Baseline-S" style="fill:none;stroke:#27AAE1;opacity:1;stroke-width:0.577;" x1="263" x2="3036" y1="696" y2="696"/>
  <line id="Capline-S" style="fill:none;stroke:#27AAE1;opacity:1;stroke-width:0.577;" x1="263" x2="3036" y1="625.541" y2="625.541"/>
  <g id="H-reference" style="fill:#27AAE1;stroke:none;" transform="matrix(1 0 0 1 339 1126)">
   <path d="M 54.9316 0 L 57.666 0 L 30.5664 -70.459 L 28.0762 -70.459 L 0.976562 0 L 3.66211 0 L 12.9395 -24.4629 L 45.7031 -24.4629 Z M 29.1992 -67.0898 L 29.4434 -67.0898 L 44.8242 -26.709 L 13.8184 -26.709 Z"/>
  </g>
  <line id="Baseline-M" style="fill:none;stroke:#27AAE1;opacity:1;stroke-width:0.577;" x1="263" x2="3036" y1="1126" y2="1126"/>
  <line id="Capline-M" style="fill:none;stroke:#27AAE1;opacity:1;stroke-width:0.577;" x1="263" x2="3036" y1="1055.54" y2="1055.54"/>
  <g id="H-reference" style="fill:#27AAE1;stroke:none;" transform="matrix(1 0 0 1 339 1556)">
   <path d="M 54.9316 0 L 57.666 0 L 30.5664 -70.459 L 28.0762 -70.459 L 0.976562 0 L 3.66211 0 L 12.9395 -24.4629 L 45.7031 -24.4629 Z M 29.1992 -67.0898 L 29.4434 -67.0898 L 44.8242 -26.709 L 13.8184 -26.709 Z"/>
  </g>
  <line id="Baseline-L" style="fill:none;stroke:#27AAE1;opacity:1;stroke-width:0.577;" x1="263" x2="3036" y1="1556" y2="1556"/>
  <line id="Capline-L" style="fill:none;stroke:#27AAE1;opacity:1;stroke-width:0.577;" x1="263" x2="3036" y1="1485.54" y2="1485.54"/>
  <rect height="119.336" id="left-margin" style="fill:#00AEEF;stroke:none;opacity:0.4;" width="8.74023" x="1373.14" y="1030.79"/>
  <rect height="119.336" id="right-margin" style="fill:#00AEEF;stroke:none;opacity:0.4;" width="8.74023" x="1517.81" y="1030.79"/>
 </g>
 <g id="Symbols">
  <g id="Black-L" transform="matrix(1 0 0 1 2828.83 1556)">
   <path d="M 163.135 27.0996 C 166.016 30.3711 171.338 30.6152 174.658 27.002 C 189.893 10.7422 197.852 -11.2793 197.852 -35.0098 C 197.852 -58.6426 189.893 -80.7129 174.658 -97.0215 C 171.338 -100.586 166.064 -100.342 163.135 -97.1191 C 160.303 -94.043 160.645 -89.5996 163.623 -86.4258 C 176.367 -72.998 182.91 -54.834 182.91 -35.0098 C 182.91 -15.1855 176.025 2.88086 163.623 16.3574 C 160.693 19.6777 160.352 23.9746 163.135 27.0996 Z M 46.0449 27.0996 C 48.7793 23.9746 48.4863 19.6777 45.5078 16.3574 C 33.1055 2.88086 26.2695 -15.1855 26.2695 -35.0098 C 26.2695 -54.834 32.7637 -72.998 45.5078 -86.4258 C 48.5352 -89.5996 48.8281 -94.043 46.0449 -97.1191 C 43.0664 -100.342 37.8418 -100.586 34.5215 -97.0215 C 19.2871 -80.7129 11.2793 -58.6426 11.2793 -35.0098 C 11.2793 -11.2793 19.2871 10.7422 34.5215 27.002 C 37.8418 30.6152 43.1152 30.3711 46.0449 27.0996 Z M 65.4785 8.10547 C 68.1641 4.83398 67.2852 0.878906 64.3555 -2.39258 C 56.9824 -10.498 52.9785 -22.2656 52.9785 -35.0098 C 52.9785 -47.7051 56.9824 -59.5215 64.3555 -67.627 C 67.2852 -70.8496 68.1641 -74.8535 65.4785 -78.125 C 62.5977 -81.6895 57.4219 -82.2754 53.2227 -77.832 C 43.6523 -67.7246 38.0371 -51.5137 38.0371 -35.0098 C 38.0371 -18.4082 43.0664 -2.7832 53.2227 7.8125 C 57.4707 12.2559 62.5977 11.6699 65.4785 8.10547 Z M 143.701 8.10547 C 146.582 11.6699 151.66 12.2559 155.908 7.8125 C 166.113 -2.7832 171.143 -18.4082 171.143 -35.0098 C 171.143 -51.5137 165.527 -67.7246 155.908 -77.832 C 151.758 -82.2754 146.582 -81.6895 143.701 -78.125 C 140.967 -74.8535 141.895 -70.8496 144.775 -67.627 C 152.148 -59.5215 156.152 -47.7051 156.152 -35.0098 C 156.152 -22.2656 152.148 -10.498 144.775 -2.39258 C 141.895 0.878906 140.967 4.83398 143.701 8.10547 Z M 124.512 -10.3027 C 127.246 -6.73828 132.812 -6.54297 136.621 -10.6445 C 141.797 -16.3086 144.434 -25.3906 144.434 -35.0098 C 144.434 -44.6777 141.797 -53.7598 136.621 -59.4727 C 132.812 -63.5742 127.246 -63.3301 124.512 -59.7656 C 122.119 -56.543 122.852 -52.7344 125.244 -49.4141 C 127.637 -46.0449 129.492 -40.0391 129.492 -35.0098 C 129.492 -29.9805 127.637 -24.0234 125.244 -20.7031 C 122.852 -17.334 122.119 -13.5254 124.512 -10.3027 Z M 84.6191 -10.3027 C 87.0605 -13.5254 86.2793 -17.334 83.8867 -20.7031 C 81.543 -24.0234 79.6875 -29.9805 79.6875 -35.0098 C 79.6875 -40.0391 81.543 -46.0449 83.8867 -49.4141 C 86.2793 -52.7344 87.0605 -56.543 84.6191 -59.7656 C 81.8848 -63.3301 76.3672 -63.5742 72.5098 -59.4727 C 67.3828 -53.7598 64.6973 -44.6777 64.6973 -35.0098 C 64.6973 -25.3906 67.3828 -16.3086 72.5098 -10.6445 C 76.3672 -6.54297 81.8848 -6.73828 84.6191 -10.3027 Z M 104.639 -25 C 110.205 -25 114.795 -29.5898 114.795 -35.2051 C 114.795 -40.7715 110.205 -45.459 104.639 -45.459 C 98.9746 -45.459 94.3359 -40.7715 94.3359 -35.1074 C 94.3359 -29.3945 98.9746 -25 104.639 -25 Z"/>
  </g>
  <g id="Heavy-L" transform="matrix(1 0 0 1 2533.83 1556)">
   <path d="M 44.9707 26.3672 C 47.4609 23.5352 47.1191 19.6289 44.3848 16.6016 C 31.8359 3.07617 24.8047 -15.0391 24.8047 -35.0098 C 24.8047 -54.9805 31.543 -73.1934 44.3848 -86.6699 C 47.168 -89.5996 47.5098 -93.6035 44.9707 -96.3867 C 42.2852 -99.2676 37.5977 -99.5117 34.6191 -96.2891 C 19.4336 -80.1758 11.2793 -58.4473 11.2793 -35.0098 C 11.2793 -11.5234 19.4336 10.1562 34.6191 26.2695 C 37.5977 29.4922 42.334 29.2969 44.9707 26.3672 Z M 160.742 26.3672 C 163.379 29.2969 168.115 29.4922 171.094 26.2695 C 186.279 10.1562 194.434 -11.5234 194.434 -35.0098 C 194.434 -58.4473 186.279 -80.1758 171.094 -96.2891 C 168.115 -99.5117 163.428 -99.2676 160.742 -96.3867 C 158.203 -93.6035 158.545 -89.5996 161.328 -86.6699 C 174.17 -73.1934 180.908 -54.9805 180.908 -35.0098 C 180.908 -15.0391 173.877 3.07617 161.328 16.6016 C 158.594 19.6289 158.252 23.5352 160.742 26.3672 Z M 141.65 7.91016 C 144.238 11.1328 148.877 11.5723 152.588 7.61719 C 162.842 -3.07617 168.115 -18.5059 168.115 -35.0098 C 168.115 -51.4648 162.402 -67.334 152.588 -77.6367 C 148.926 -81.5918 144.238 -81.1523 141.65 -77.9297 C 139.209 -75 139.99 -71.3379 142.676 -68.3594 C 150.342 -59.9121 154.59 -47.998 154.59 -35.0098 C 154.59 -22.0215 150.342 -10.1074 142.676 -1.66016 C 139.99 1.31836 139.209 4.98047 141.65 7.91016 Z M 64.0625 7.91016 C 66.5039 4.98047 65.7227 1.31836 63.0371 -1.66016 C 55.3711 -10.1074 51.123 -22.0215 51.123 -35.0098 C 51.123 -47.998 55.3711 -59.9121 63.0371 -68.3594 C 65.7227 -71.3379 66.5039 -75 64.0625 -77.9297 C 61.4258 -81.1523 56.7871 -81.5918 53.125 -77.6367 C 43.3105 -67.334 37.5977 -51.4648 37.5977 -35.0098 C 37.5977 -18.5059 42.8711 -3.07617 53.125 7.61719 C 56.8359 11.5723 61.4258 11.1328 64.0625 7.91016 Z M 122.9 -10.3516 C 125.391 -7.12891 130.42 -6.98242 133.789 -10.6934 C 139.014 -16.5527 141.797 -25.4883 141.797 -35.0098 C 141.797 -44.5312 139.014 -53.4668 133.789 -59.4238 C 130.42 -63.1348 125.391 -62.9395 122.9 -59.7168 C 120.654 -56.8359 121.387 -53.3203 123.633 -50.2441 C 126.367 -46.5332 128.32 -40.4785 128.32 -35.0098 C 128.32 -29.5898 126.416 -23.4863 123.633 -19.8242 C 121.387 -16.748 120.654 -13.2324 122.9 -10.3516 Z M 82.8125 -10.3516 C 85.0586 -13.2324 84.3262 -16.748 82.0801 -19.8242 C 79.2969 -23.4863 77.3926 -29.5898 77.3926 -35.0098 C 77.3926 -40.4785 79.2969 -46.582 82.0801 -50.2441 C 84.3262 -53.3203 85.0586 -56.8359 82.8125 -59.7168 C 80.3223 -62.9395 75.293 -63.1348 71.9238 -59.4238 C 66.6992 -53.4668 63.916 -44.5312 63.916 -35.0098 C 63.916 -25.4883 66.6992 -16.5527 71.9238 -10.6934 C 75.293 -6.98242 80.3223 -7.12891 82.8125 -10.3516 Z M 102.881 -25.293 C 108.301 -25.293 112.744 -29.7852 112.744 -35.2051 C 112.744 -40.5762 108.301 -45.1172 102.881 -45.1172 C 97.4609 -45.1172 92.9688 -40.5762 92.9688 -35.1074 C 92.9688 -29.5898 97.4609 -25.293 102.881 -25.293 Z"/>
  </g>
  <g id="Bold-L" transform="matrix(1 0 0 1 2239.05 1556)">
   <path d="M 43.75 25.5371 C 45.9473 23.0469 45.6055 19.5312 43.1641 16.8945 C 30.3711 3.27148 23.1445 -14.8926 23.1445 -35.0098 C 23.1445 -55.127 30.1758 -73.3887 43.1641 -86.9629 C 45.6543 -89.5508 45.9961 -93.0664 43.75 -95.5566 C 41.4551 -98.0957 37.3535 -98.291 34.668 -95.459 C 19.6289 -79.5898 11.2793 -58.2031 11.2793 -35.0098 C 11.2793 -11.8164 19.6289 9.57031 34.668 25.3906 C 37.3535 28.2715 41.4551 28.0762 43.75 25.5371 Z M 158.105 25.5371 C 160.4 28.0762 164.502 28.2715 167.188 25.3906 C 182.227 9.57031 190.576 -11.8164 190.576 -35.0098 C 190.576 -58.2031 182.227 -79.5898 167.188 -95.459 C 164.502 -98.291 160.4 -98.0957 158.105 -95.5566 C 155.859 -93.0664 156.201 -89.5508 158.691 -86.9629 C 171.68 -73.3887 178.711 -55.127 178.711 -35.0098 C 178.711 -14.8926 171.484 3.27148 158.691 16.8945 C 156.25 19.5312 155.908 23.0469 158.105 25.5371 Z M 62.4512 7.71484 C 64.6973 5.12695 63.9648 1.85547 61.5234 -0.878906 C 53.5156 -9.61914 49.0234 -21.7773 49.0234 -35.0098 C 49.0234 -48.291 53.5156 -60.4004 61.5234 -69.1895 C 63.9648 -71.875 64.6973 -75.1465 62.4512 -77.7344 C 60.1562 -80.5176 56.0547 -80.8105 52.9785 -77.4414 C 42.9688 -66.8457 37.1582 -51.3672 37.1582 -35.0098 C 37.1582 -18.6523 42.6758 -3.41797 52.9785 7.42188 C 56.1035 10.791 60.1562 10.498 62.4512 7.71484 Z M 139.404 7.71484 C 141.699 10.498 145.752 10.791 148.877 7.42188 C 159.18 -3.41797 164.697 -18.6523 164.697 -35.0098 C 164.697 -51.3672 158.887 -66.8457 148.877 -77.4414 C 145.801 -80.8105 141.699 -80.5176 139.404 -77.7344 C 137.207 -75.1465 137.891 -71.875 140.332 -69.1895 C 148.34 -60.4004 152.832 -48.291 152.832 -35.0098 C 152.832 -21.7773 148.34 -9.61914 140.332 -0.878906 C 137.891 1.85547 137.207 5.12695 139.404 7.71484 Z M 121.094 -10.4004 C 123.34 -7.61719 127.734 -7.4707 130.566 -10.7422 C 135.938 -16.8457 138.867 -25.6348 138.867 -35.0098 C 138.867 -44.4336 135.938 -53.1738 130.566 -59.3262 C 127.734 -62.5977 123.34 -62.4512 121.094 -59.668 C 119.043 -57.1289 119.775 -54.0039 121.826 -51.2207 C 124.951 -47.0215 127.002 -40.9668 127.002 -35.0098 C 127.002 -29.1016 125.049 -22.9004 121.826 -18.8965 C 119.775 -16.0645 119.043 -12.9395 121.094 -10.4004 Z M 80.7617 -10.4004 C 82.8125 -12.9395 82.0801 -16.0645 80.0293 -18.8965 C 76.8066 -22.9004 74.8535 -29.1016 74.8535 -35.0098 C 74.8535 -40.9668 76.8066 -47.168 80.0293 -51.2207 C 82.0801 -54.0039 82.8125 -57.1289 80.7617 -59.668 C 78.5156 -62.4512 74.1211 -62.5977 71.2891 -59.3262 C 65.918 -53.1738 62.9883 -44.4336 62.9883 -35.0098 C 62.9883 -25.6348 65.918 -16.8457 71.2891 -10.7422 C 74.1211 -7.4707 78.5156 -7.61719 80.7617 -10.4004 Z M 100.977 -25.6348 C 106.104 -25.6348 110.449 -29.9805 110.449 -35.2051 C 110.449 -40.3809 106.104 -44.7266 100.977 -44.7266 C 95.752 -44.7266 91.4062 -40.3809 91.4062 -35.1074 C 91.4062 -29.834 95.752 -25.6348 100.977 -25.6348 Z"/>
  </g>
  <g id="Semibold-L" transform="matrix(1 0 0 1 1943.66 1556)">
   <path d="M 42.9199 24.9512 C 44.9219 22.7051 44.5801 19.5312 42.334 17.0898 C 29.3457 3.41797 22.0215 -14.7949 22.0215 -35.0098 C 22.0215 -55.2246 29.248 -73.5352 42.334 -87.1094 C 44.5801 -89.5508 44.9219 -92.7734 42.9199 -94.9707 C 40.8691 -97.2656 37.207 -97.4609 34.7656 -94.873 C 19.7754 -79.1504 11.2793 -58.0566 11.2793 -35.0098 C 11.2793 -11.9629 19.7754 9.13086 34.7656 24.8047 C 37.207 27.4414 40.8691 27.2461 42.9199 24.9512 Z M 156.299 24.9512 C 158.35 27.2461 162.012 27.4414 164.453 24.8047 C 179.443 9.13086 187.939 -11.9629 187.939 -35.0098 C 187.939 -58.0566 179.443 -79.1504 164.453 -94.873 C 162.012 -97.4609 158.35 -97.2656 156.299 -94.9707 C 154.248 -92.7734 154.59 -89.5508 156.885 -87.1094 C 169.922 -73.5352 177.197 -55.2246 177.197 -35.0098 C 177.197 -14.7949 169.824 3.41797 156.885 17.0898 C 154.639 19.5312 154.297 22.7051 156.299 24.9512 Z M 137.842 7.56836 C 139.893 10.0586 143.604 10.2539 146.338 7.27539 C 156.689 -3.66211 162.354 -18.75 162.354 -35.0098 C 162.354 -51.2695 156.494 -66.5527 146.338 -77.2949 C 143.604 -80.2734 139.893 -80.127 137.842 -77.5879 C 135.791 -75.2441 136.475 -72.2656 138.672 -69.7266 C 146.973 -60.6934 151.611 -48.4863 151.611 -35.0098 C 151.611 -21.582 146.973 -9.32617 138.672 -0.292969 C 136.475 2.19727 135.791 5.22461 137.842 7.56836 Z M 61.377 7.56836 C 63.3789 5.22461 62.7441 2.19727 60.498 -0.292969 C 52.2461 -9.32617 47.5586 -21.582 47.5586 -35.0098 C 47.5586 -48.4863 52.2461 -60.6934 60.498 -69.7266 C 62.7441 -72.2656 63.3789 -75.2441 61.377 -77.5879 C 59.2773 -80.127 55.5664 -80.2734 52.8809 -77.2949 C 42.7246 -66.5527 36.8652 -51.2695 36.8652 -35.0098 C 36.8652 -18.75 42.5293 -3.66211 52.8809 7.27539 C 55.6152 10.2539 59.2773 10.0586 61.377 7.56836 Z M 119.824 -10.4004 C 121.924 -7.91016 125.879 -7.8125 128.369 -10.791 C 133.789 -17.0898 136.816 -25.7324 136.816 -35.0098 C 136.816 -44.3359 133.789 -52.9785 128.369 -59.2773 C 125.879 -62.2559 121.924 -62.1582 119.824 -59.6191 C 117.92 -57.3242 118.652 -54.4434 120.557 -51.8555 C 123.975 -47.3633 126.123 -41.3086 126.123 -35.0098 C 126.123 -28.7598 124.121 -22.5098 120.557 -18.2129 C 118.652 -15.625 117.92 -12.7441 119.824 -10.4004 Z M 79.3457 -10.4004 C 81.2988 -12.7441 80.5664 -15.625 78.6621 -18.2129 C 75.0488 -22.5098 73.0957 -28.7598 73.0957 -35.0098 C 73.0957 -41.3086 75.0488 -47.5586 78.6621 -51.8555 C 80.5664 -54.4434 81.2988 -57.3242 79.3457 -59.6191 C 77.2949 -62.1582 73.3398 -62.2559 70.8008 -59.2773 C 65.3809 -52.9785 62.3535 -44.3359 62.3535 -35.0098 C 62.3535 -25.7324 65.3809 -17.0898 70.8008 -10.791 C 73.3398 -7.8125 77.2949 -7.91016 79.3457 -10.4004 Z M 99.6094 -25.8789 C 104.639 -25.8789 108.887 -30.0781 108.887 -35.1562 C 108.887 -40.2344 104.639 -44.4336 99.6094 -44.4336 C 94.5801 -44.4336 90.332 -40.2344 90.332 -35.1074 C 90.332 -30.0293 94.5801 -25.8789 99.6094 -25.8789 Z"/>
  </g>
  <g id="Medium-L" transform="matrix(1 0 0 1 1647.97 1556)">
   <path d="M 154.883 24.5117 C 156.787 26.6113 160.107 26.8066 162.402 24.3652 C 177.344 8.78906 185.889 -12.1094 185.889 -35.0098 C 185.889 -57.9102 177.344 -78.8574 162.402 -94.4336 C 160.107 -96.8262 156.787 -96.6309 154.883 -94.5312 C 153.027 -92.4805 153.369 -89.502 155.518 -87.2559 C 168.652 -73.6328 176.025 -55.3223 176.025 -35.0098 C 176.025 -14.7461 168.604 3.56445 155.518 17.2363 C 153.418 19.4824 153.027 22.4609 154.883 24.5117 Z M 42.2852 24.5117 C 44.1406 22.4609 43.7988 19.4824 41.6992 17.2363 C 28.6133 3.56445 21.1426 -14.7461 21.1426 -35.0098 C 21.1426 -55.3223 28.5645 -73.6328 41.6992 -87.2559 C 43.7988 -89.502 44.1406 -92.4805 42.2852 -94.5312 C 40.4297 -96.6309 37.0605 -96.8262 34.8145 -94.4336 C 19.873 -78.8574 11.2793 -57.9102 11.2793 -35.0098 C 11.2793 -12.1094 19.873 8.78906 34.8145 24.3652 C 37.0605 26.8066 40.4297 26.6113 42.2852 24.5117 Z M 60.5469 7.4707 C 62.4512 5.27344 61.8164 2.49023 59.7168 0.146484 C 51.2695 -9.08203 46.4844 -21.4355 46.4844 -35.0098 C 46.4844 -48.6328 51.2695 -60.9375 59.7168 -70.166 C 61.8164 -72.5586 62.4512 -75.3418 60.5469 -77.4902 C 58.5938 -79.7852 55.2246 -79.8828 52.7832 -77.1973 C 42.5293 -66.3086 36.6211 -51.2207 36.6211 -35.0098 C 36.6211 -18.7988 42.4316 -3.85742 52.7832 7.17773 C 55.2246 9.81445 58.5938 9.7168 60.5469 7.4707 Z M 136.621 7.4707 C 138.574 9.7168 141.943 9.81445 144.385 7.17773 C 154.785 -3.85742 160.596 -18.7988 160.596 -35.0098 C 160.596 -51.2207 154.688 -66.3086 144.385 -77.1973 C 141.943 -79.8828 138.574 -79.7852 136.621 -77.4902 C 134.766 -75.3418 135.352 -72.5586 137.451 -70.166 C 145.947 -60.9375 150.732 -48.6328 150.732 -35.0098 C 150.732 -21.4355 145.947 -9.08203 137.451 0.146484 C 135.352 2.49023 134.766 5.27344 136.621 7.4707 Z M 118.896 -10.4492 C 120.85 -8.1543 124.463 -8.10547 126.709 -10.791 C 132.178 -17.2363 135.303 -25.8301 135.303 -35.0098 C 135.303 -44.2383 132.178 -52.832 126.709 -59.2773 C 124.463 -61.9629 120.85 -61.9141 118.896 -59.6191 C 117.041 -57.4707 117.822 -54.7852 119.629 -52.3438 C 123.242 -47.6562 125.439 -41.5527 125.439 -35.0098 C 125.439 -28.5156 123.438 -22.2168 119.629 -17.7246 C 117.773 -15.2832 117.041 -12.5977 118.896 -10.4492 Z M 78.3203 -10.4492 C 80.127 -12.5977 79.3945 -15.2832 77.5879 -17.7246 C 73.7793 -22.2168 71.7773 -28.5156 71.7773 -35.0098 C 71.7773 -41.5527 73.7793 -47.8516 77.5879 -52.3438 C 79.3945 -54.7852 80.127 -57.4707 78.3203 -59.6191 C 76.3672 -61.9141 72.7051 -61.9629 70.459 -59.2773 C 64.9902 -52.832 61.9141 -44.2383 61.9141 -35.0098 C 61.9141 -25.8301 64.9902 -17.2363 70.459 -10.791 C 72.7051 -8.10547 76.3672 -8.1543 78.3203 -10.4492 Z M 98.584 -26.0742 C 103.467 -26.0742 107.666 -30.1758 107.666 -35.1562 C 107.666 -40.1367 103.467 -44.2383 98.584 -44.2383 C 93.7012 -44.2383 89.502 -40.1367 89.502 -35.1562 C 89.502 -30.127 93.7012 -26.0742 98.584 -26.0742 Z"/>
  </g>
  <g id="Regular-L" transform="matrix(1 0 0 1 1352.55 1556)">
   <path d="M 153.076 23.9258 C 154.736 25.7812 157.666 25.9766 159.717 23.7793 C 174.561 8.39844 183.301 -12.3047 183.301 -35.0098 C 183.301 -57.7637 174.561 -78.4668 159.717 -93.8477 C 157.666 -95.9961 154.736 -95.8008 153.076 -93.9941 C 151.416 -92.1387 151.807 -89.502 153.711 -87.4512 C 166.943 -73.7305 174.512 -55.4199 174.512 -35.0098 C 174.512 -14.6484 166.943 3.66211 153.711 17.3828 C 151.807 19.4336 151.416 22.1191 153.076 23.9258 Z M 41.4551 23.9258 C 43.1152 22.1191 42.7734 19.4336 40.8203 17.3828 C 27.6367 3.66211 20.0195 -14.6484 20.0195 -35.0098 C 20.0195 -55.4199 27.6367 -73.7305 40.8203 -87.4512 C 42.7734 -89.502 43.1152 -92.1387 41.4551 -93.9941 C 39.8438 -95.8008 36.9141 -95.9961 34.8633 -93.8477 C 19.9707 -78.4668 11.2793 -57.7637 11.2793 -35.0098 C 11.2793 -12.3047 19.9707 8.39844 34.8633 23.7793 C 36.9141 25.9766 39.8438 25.7812 41.4551 23.9258 Z M 59.4727 7.32422 C 61.1816 5.37109 60.6445 2.83203 58.6914 0.683594 C 50 -8.78906 45.0684 -21.2402 45.0684 -35.0098 C 45.0684 -48.8281 50 -61.2793 58.6914 -70.752 C 60.6445 -72.9004 61.1816 -75.4395 59.4727 -77.3438 C 57.7637 -79.3457 54.7363 -79.3457 52.6855 -77.0996 C 42.2852 -65.9668 36.2793 -51.1719 36.2793 -35.0098 C 36.2793 -18.8965 42.2852 -4.05273 52.6855 7.03125 C 54.7363 9.27734 57.7637 9.32617 59.4727 7.32422 Z M 135.107 7.32422 C 136.816 9.32617 139.844 9.27734 141.895 7.03125 C 152.295 -4.05273 158.252 -18.8965 158.252 -35.0098 C 158.252 -51.1719 152.295 -65.9668 141.895 -77.0996 C 139.844 -79.3457 136.816 -79.3457 135.107 -77.3438 C 133.398 -75.4395 133.936 -72.9004 135.84 -70.752 C 144.58 -61.2793 149.512 -48.8281 149.512 -35.0098 C 149.512 -21.2402 144.58 -8.78906 135.84 0.683594 C 133.936 2.83203 133.398 5.37109 135.107 7.32422 Z M 117.627 -10.4492 C 119.434 -8.44727 122.607 -8.44727 124.561 -10.8398 C 130.078 -17.4316 133.301 -25.8789 133.301 -35.0098 C 133.301 -44.1406 130.078 -52.6367 124.561 -59.2285 C 122.607 -61.6211 119.434 -61.6211 117.627 -59.5703 C 115.967 -57.666 116.699 -55.2734 118.359 -52.9785 C 122.266 -47.998 124.512 -41.8945 124.512 -35.0098 C 124.512 -28.1738 122.51 -21.8262 118.359 -17.0898 C 116.65 -14.8438 115.967 -12.4023 117.627 -10.4492 Z M 76.9043 -10.4492 C 78.6133 -12.4023 77.9297 -14.8438 76.1719 -17.0898 C 72.0703 -21.8262 70.0195 -28.1738 70.0195 -35.0098 C 70.0195 -41.8945 72.0703 -48.2422 76.1719 -52.9785 C 77.9297 -55.2246 78.6133 -57.666 76.9043 -59.5703 C 75.1465 -61.6211 71.9238 -61.6211 70.0195 -59.2285 C 64.4531 -52.6367 61.2793 -44.1406 61.2793 -35.0098 C 61.2793 -25.8789 64.4531 -17.4316 70.0195 -10.8398 C 71.9238 -8.44727 75.1465 -8.44727 76.9043 -10.4492 Z M 97.2656 -26.2695 C 102.002 -26.2695 106.152 -30.3223 106.152 -35.1562 C 106.152 -39.9902 102.002 -43.9941 97.2656 -43.9941 C 92.5293 -43.9941 88.4277 -39.9902 88.4277 -35.1562 C 88.4277 -30.3223 92.5293 -26.2695 97.2656 -26.2695 Z"/>
  </g>
  <g id="Light-L" transform="matrix(1 0 0 1 1058.19 1556)">
   <path d="M 39.8438 22.7051 C 41.1133 21.2891 40.8203 19.2383 39.3555 17.7246 C 25.8789 3.95508 17.9688 -14.4043 17.9688 -35.0098 C 17.9688 -55.6641 25.8789 -74.0234 39.3555 -87.793 C 40.8203 -89.3066 41.1133 -91.3574 39.8438 -92.7734 C 38.623 -94.1406 36.377 -94.2383 34.8145 -92.627 C 20.1172 -77.5879 11.2793 -57.4219 11.2793 -35.0098 C 11.2793 -12.6465 20.1172 7.51953 34.8145 22.5586 C 36.377 24.2188 38.623 24.0723 39.8438 22.7051 Z M 150.049 22.7051 C 151.27 24.0723 153.516 24.2188 155.078 22.5586 C 169.824 7.51953 178.613 -12.6465 178.613 -35.0098 C 178.613 -57.4219 169.824 -77.5879 155.078 -92.627 C 153.516 -94.2383 151.27 -94.1406 150.049 -92.7734 C 148.779 -91.3574 149.072 -89.3066 150.537 -87.793 C 164.014 -74.0234 171.924 -55.6641 171.924 -35.0098 C 171.924 -14.4043 164.014 3.95508 150.537 17.7246 C 149.072 19.2383 148.779 21.2891 150.049 22.7051 Z M 57.5684 6.25 C 58.8379 4.83398 58.3984 2.83203 56.9824 1.26953 C 47.9004 -8.30078 42.627 -20.8984 42.627 -35.0098 C 42.627 -49.1211 47.9004 -61.7676 56.9824 -71.2891 C 58.3984 -72.9004 58.8379 -74.9023 57.5684 -76.3184 C 56.25 -77.832 53.9551 -77.7832 52.3926 -76.123 C 42.041 -65.332 35.9375 -50.8789 35.9375 -35.0098 C 35.9375 -19.1406 42.041 -4.6875 52.3926 6.05469 C 53.9551 7.76367 56.25 7.8125 57.5684 6.25 Z M 132.324 6.25 C 133.643 7.8125 135.938 7.76367 137.5 6.05469 C 147.852 -4.6875 153.955 -19.1406 153.955 -35.0098 C 153.955 -50.8789 147.852 -65.332 137.5 -76.123 C 135.938 -77.7832 133.643 -77.832 132.324 -76.3184 C 131.055 -74.9023 131.494 -72.9004 132.91 -71.2891 C 141.992 -61.7676 147.266 -49.1211 147.266 -35.0098 C 147.266 -20.8984 141.992 -8.30078 132.91 1.26953 C 131.494 2.83203 131.055 4.83398 132.324 6.25 Z M 115.186 -11.2793 C 116.553 -9.7168 118.994 -9.76562 120.459 -11.5234 C 126.074 -17.8223 129.297 -26.0742 129.297 -35.0098 C 129.297 -43.9941 126.074 -52.2461 120.459 -58.5449 C 118.994 -60.3027 116.553 -60.3027 115.186 -58.7891 C 113.916 -57.3242 114.453 -55.4688 115.771 -53.7598 C 120.02 -48.6328 122.607 -42.2363 122.607 -35.0098 C 122.607 -27.7832 120.41 -21.0449 115.771 -16.2598 C 114.404 -14.5996 113.916 -12.6953 115.186 -11.2793 Z M 74.707 -11.2793 C 75.9766 -12.6953 75.4883 -14.5996 74.1211 -16.2598 C 69.5312 -21.0449 67.2852 -27.7832 67.2852 -35.0098 C 67.2852 -42.2363 69.5312 -49.0234 74.1211 -53.7598 C 75.4883 -55.4199 75.9766 -57.3242 74.707 -58.7891 C 73.3398 -60.3027 70.9473 -60.3027 69.4824 -58.5449 C 63.8184 -52.2461 60.5957 -43.9941 60.5957 -35.0098 C 60.5957 -26.0742 63.8184 -17.8223 69.4824 -11.5234 C 70.9473 -9.76562 73.3398 -9.7168 74.707 -11.2793 Z M 94.9707 -26.9043 C 99.3652 -26.9043 103.223 -30.6641 103.223 -35.1562 C 103.223 -39.6484 99.3652 -43.457 94.9707 -43.457 C 90.5273 -43.457 86.6699 -39.6484 86.6699 -35.1562 C 86.6699 -30.6641 90.5273 -26.9043 94.9707 -26.9043 Z"/>
  </g>
  <g id="Thin-L" transform="matrix(1 0 0 1 764.552 1556)">
   <path d="M 37.7441 21.0449 C 38.4277 20.2637 38.2324 18.9941 37.4512 18.1641 C 23.6328 4.29688 15.2344 -14.1113 15.2344 -35.0098 C 15.2344 -55.957 23.6328 -74.3652 37.4512 -88.2324 C 38.2324 -89.0625 38.4277 -90.332 37.7441 -91.1133 C 37.0117 -91.8945 35.6934 -91.9434 34.7656 -91.0156 C 20.2637 -76.416 11.2793 -56.9336 11.2793 -35.0098 C 11.2793 -13.1348 20.2637 6.34766 34.7656 20.9473 C 35.6934 21.875 37.0117 21.875 37.7441 21.0449 Z M 145.996 21.0449 C 146.729 21.875 148.047 21.875 148.975 20.9473 C 163.477 6.34766 172.461 -13.1348 172.461 -35.0098 C 172.461 -56.9336 163.477 -76.416 148.975 -91.0156 C 148.047 -91.9434 146.729 -91.8945 145.996 -91.1133 C 145.312 -90.332 145.508 -89.0625 146.289 -88.2324 C 160.107 -74.3652 168.506 -55.957 168.506 -35.0098 C 168.506 -14.1113 160.107 4.29688 146.289 18.1641 C 145.508 18.9941 145.312 20.2637 145.996 21.0449 Z M 128.711 4.88281 C 129.492 5.81055 130.859 5.71289 131.738 4.78516 C 141.992 -5.51758 148.242 -19.4824 148.242 -35.0098 C 148.242 -50.5371 141.992 -64.502 131.738 -74.8535 C 130.859 -75.7812 129.492 -75.8301 128.711 -74.9512 C 127.979 -74.1699 128.271 -72.9004 129.053 -72.0703 C 138.623 -62.4512 144.287 -49.5605 144.287 -35.0098 C 144.287 -20.5078 138.623 -7.61719 129.053 2.00195 C 128.271 2.83203 127.979 4.10156 128.711 4.88281 Z M 55.0293 4.88281 C 55.7617 4.10156 55.4688 2.83203 54.6875 2.00195 C 45.166 -7.61719 39.4531 -20.5078 39.4531 -35.0098 C 39.4531 -49.5605 45.166 -62.4512 54.6875 -72.0703 C 55.4688 -72.9004 55.7617 -74.1699 55.0293 -74.9512 C 54.248 -75.8301 52.8809 -75.7812 52.002 -74.8535 C 41.748 -64.502 35.498 -50.5371 35.498 -35.0098 C 35.498 -19.4824 41.748 -5.51758 52.002 4.78516 C 52.8809 5.71289 54.248 5.81055 55.0293 4.88281 Z M 111.963 -12.3047 C 112.744 -11.4258 114.111 -11.4746 114.99 -12.4512 C 120.752 -18.3105 124.072 -26.2695 124.072 -35.0098 C 124.072 -43.75 120.752 -51.709 114.99 -57.6172 C 114.111 -58.5449 112.744 -58.6426 111.963 -57.7637 C 111.23 -56.9336 111.523 -55.7617 112.305 -54.834 C 117.041 -49.4629 120.117 -42.7734 120.117 -35.0098 C 120.117 -27.2949 117.627 -20.0195 112.305 -15.1855 C 111.475 -14.3555 111.23 -13.1348 111.963 -12.3047 Z M 71.8262 -12.3047 C 72.5098 -13.1348 72.2656 -14.3555 71.4355 -15.1855 C 66.1133 -20.0195 63.623 -27.2949 63.623 -35.0098 C 63.623 -42.7734 66.1133 -50.0488 71.4355 -54.834 C 72.2656 -55.7129 72.5098 -56.9336 71.8262 -57.7637 C 70.9961 -58.6426 69.6289 -58.5449 68.75 -57.6172 C 62.9883 -51.709 59.668 -43.75 59.668 -35.0098 C 59.668 -26.2695 62.9883 -18.3105 68.75 -12.4512 C 69.6289 -11.4746 70.9961 -11.4258 71.8262 -12.3047 Z M 91.8945 -27.6855 C 95.8984 -27.6855 99.4141 -31.1035 99.4141 -35.2051 C 99.4141 -39.2578 95.8984 -42.7246 91.8945 -42.7246 C 87.8418 -42.7246 84.375 -39.2578 84.375 -35.2051 C 84.375 -31.1035 87.8418 -27.6855 91.8945 -27.6855 Z"/>
  </g>
  <g id="Ultralight-L" transform="matrix(1 0 0 1 469.428 1556)">
   <path d="M 36.6699 20.2148 C 37.0605 19.7266 36.9629 18.8965 36.4746 18.4082 C 22.4609 4.44336 13.8184 -13.9648 13.8184 -35.0098 C 13.8184 -56.1035 22.4609 -74.5117 36.4746 -88.4766 C 36.9629 -88.916 37.0605 -89.7949 36.6699 -90.2832 C 36.2305 -90.7715 35.3027 -90.7715 34.7656 -90.1855 C 20.3125 -75.8301 11.2793 -56.6895 11.2793 -35.0098 C 11.2793 -13.3301 20.3125 5.76172 34.7656 20.166 C 35.3027 20.7031 36.2305 20.7031 36.6699 20.2148 Z M 143.945 20.2148 C 144.385 20.7031 145.264 20.7031 145.85 20.166 C 160.254 5.76172 169.287 -13.3301 169.287 -35.0098 C 169.287 -56.6895 160.254 -75.8301 145.85 -90.1855 C 145.264 -90.7715 144.385 -90.7715 143.945 -90.2832 C 143.506 -89.7949 143.652 -88.916 144.141 -88.4766 C 158.154 -74.5117 166.748 -56.1035 166.748 -35.0098 C 166.748 -13.9648 158.154 4.44336 144.141 18.4082 C 143.652 18.8965 143.506 19.7266 143.945 20.2148 Z M 53.7598 4.19922 C 54.1992 3.71094 54.0039 2.83203 53.5156 2.39258 C 43.75 -7.27539 37.8418 -20.3125 37.8418 -35.0098 C 37.8418 -49.7559 43.75 -62.793 53.5156 -72.4609 C 54.0039 -72.9004 54.1992 -73.7793 53.7598 -74.2676 C 53.2715 -74.8047 52.3438 -74.7559 51.8066 -74.2188 C 41.6016 -64.1113 35.3027 -50.3906 35.3027 -35.0098 C 35.3027 -19.6777 41.6016 -5.95703 51.8066 4.15039 C 52.3438 4.6875 53.2715 4.78516 53.7598 4.19922 Z M 126.807 4.19922 C 127.344 4.78516 128.223 4.6875 128.809 4.15039 C 138.965 -5.95703 145.312 -19.6777 145.312 -35.0098 C 145.312 -50.3906 138.965 -64.1113 128.809 -74.2188 C 128.223 -74.7559 127.344 -74.8047 126.807 -74.2676 C 126.416 -73.7793 126.611 -72.9004 127.1 -72.4609 C 136.865 -62.793 142.773 -49.7559 142.773 -35.0098 C 142.773 -20.3125 136.865 -7.27539 127.1 2.39258 C 126.611 2.83203 126.416 3.71094 126.807 4.19922 Z M 70.3125 -12.8418 C 70.752 -13.3301 70.6543 -14.209 70.0195 -14.6484 C 64.4043 -19.4824 61.7676 -27.002 61.7676 -35.0098 C 61.7676 -43.0176 64.4043 -50.5859 70.0195 -55.4199 C 70.6543 -55.8594 70.752 -56.7383 70.3125 -57.2266 C 69.8242 -57.7637 68.9453 -57.666 68.3594 -57.1777 C 62.5488 -51.4648 59.2285 -43.6523 59.2285 -35.0098 C 59.2285 -26.416 62.5488 -18.6035 68.3594 -12.8906 C 68.9453 -12.3535 69.8242 -12.3047 70.3125 -12.8418 Z M 110.254 -12.8418 C 110.791 -12.3047 111.67 -12.3535 112.256 -12.8906 C 118.066 -18.6035 121.338 -26.416 121.338 -35.0098 C 121.338 -43.6523 118.066 -51.4648 112.256 -57.1777 C 111.67 -57.666 110.791 -57.7637 110.254 -57.2266 C 109.863 -56.7383 110.01 -55.9082 110.547 -55.4199 C 115.479 -49.8535 118.799 -43.0176 118.799 -35.0098 C 118.799 -27.002 116.162 -19.4824 110.547 -14.6484 C 109.961 -14.209 109.863 -13.3301 110.254 -12.8418 Z M 90.2832 -28.0762 C 94.1406 -28.0762 97.4121 -31.3477 97.4121 -35.2051 C 97.4121 -39.0137 94.1406 -42.334 90.2832 -42.334 C 86.4746 -42.334 83.1543 -39.0137 83.1543 -35.2051 C 83.1543 -31.3477 86.4746 -28.0762 90.2832 -28.0762 Z"/>
  </g>
  <g id="Black-M" transform="matrix(1 0 0 1 2851.27 1126)">
   <path d="M 36.2793 13.4277 C 38.5254 10.791 38.3301 7.32422 35.9863 4.63867 C 26.5137 -5.81055 21.1914 -19.7266 21.1914 -35.0586 C 21.1914 -50.3418 26.123 -64.4043 35.9863 -74.7559 C 38.4277 -77.3438 38.5742 -80.957 36.2793 -83.5449 C 33.7402 -86.2305 29.2969 -86.4258 26.6113 -83.4473 C 14.7949 -70.752 8.74023 -53.4668 8.74023 -35.0586 C 8.74023 -16.5527 14.7949 0.683594 26.6113 13.3789 C 29.2969 16.3086 33.8379 16.2109 36.2793 13.4277 Z M 127.979 13.4277 C 130.42 16.2109 134.961 16.3086 137.646 13.3789 C 149.463 0.683594 155.518 -16.5527 155.518 -35.0586 C 155.518 -53.4668 149.463 -70.752 137.646 -83.4473 C 134.961 -86.4258 130.469 -86.2305 127.979 -83.5449 C 125.635 -80.957 125.83 -77.3438 128.271 -74.7559 C 138.135 -64.4043 143.018 -50.3418 143.018 -35.0586 C 143.018 -19.7266 137.744 -5.81055 128.271 4.63867 C 125.879 7.32422 125.732 10.791 127.979 13.4277 Z M 51.6113 -1.95312 C 53.8086 -4.63867 53.0762 -7.91016 50.7324 -10.4492 C 45.3125 -16.3574 42.334 -25.3418 42.334 -35.0586 C 42.334 -44.7266 45.3125 -53.7598 50.7324 -59.6191 C 53.0762 -62.207 53.8086 -65.4297 51.6113 -68.1641 C 49.2676 -71.1426 44.9219 -71.7773 41.2598 -67.9688 C 34.1309 -60.6445 29.834 -47.8516 29.834 -35.0586 C 29.834 -22.168 33.4961 -10.0098 41.2598 -2.14844 C 44.9707 1.70898 49.2676 1.07422 51.6113 -1.95312 Z M 112.598 -1.95312 C 114.99 1.07422 119.238 1.70898 122.949 -2.14844 C 130.762 -10.0098 134.424 -22.168 134.424 -35.0586 C 134.424 -47.8516 130.127 -60.6445 122.949 -67.9688 C 119.336 -71.7773 114.99 -71.1426 112.598 -68.1641 C 110.4 -65.4297 111.182 -62.207 113.477 -59.6191 C 118.945 -53.7598 121.924 -44.7266 121.924 -35.0586 C 121.924 -25.3418 118.945 -16.3574 113.477 -10.4492 C 111.182 -7.91016 110.4 -4.63867 112.598 -1.95312 Z M 97.3633 -16.2598 C 99.5605 -13.2812 104.199 -13.0859 107.52 -16.4551 C 111.475 -20.4102 113.379 -27.5391 113.379 -35.0586 C 113.379 -42.627 111.475 -49.7559 107.52 -53.7598 C 104.199 -57.1289 99.5605 -56.8848 97.3633 -53.8574 C 95.5078 -51.2207 95.9961 -48.0957 97.8516 -45.5566 C 99.4141 -43.3594 100.879 -38.5742 100.879 -35.0586 C 100.879 -31.543 99.4141 -26.8066 97.8516 -24.6582 C 95.9961 -22.0215 95.5078 -18.8965 97.3633 -16.2598 Z M 66.8457 -16.2598 C 68.75 -18.8965 68.2617 -22.0215 66.3574 -24.6582 C 64.8438 -26.8066 63.3301 -31.543 63.3301 -35.0586 C 63.3301 -38.5742 64.8438 -43.3594 66.3574 -45.5566 C 68.2617 -48.0957 68.75 -51.2207 66.8457 -53.8574 C 64.6973 -56.8848 60.0586 -57.1289 56.6895 -53.7598 C 52.7832 -49.7559 50.8789 -42.627 50.8789 -35.0586 C 50.8789 -27.5391 52.7832 -20.4102 56.6895 -16.4551 C 60.0586 -13.0859 64.6973 -13.2812 66.8457 -16.2598 Z M 82.1777 -27.1973 C 86.6211 -27.1973 90.1855 -30.8105 90.1855 -35.2539 C 90.1855 -39.6484 86.6211 -43.3105 82.1777 -43.3105 C 77.6855 -43.3105 74.0723 -39.6484 74.0723 -35.1562 C 74.0723 -30.5664 77.6855 -27.1973 82.1777 -27.1973 Z"/>
  </g>
  <g id="Heavy-M" transform="matrix(1 0 0 1 2555.85 1126)">
   <path d="M 126.172 12.9395 C 128.418 15.4297 132.471 15.5762 134.961 12.8906 C 146.777 0.292969 152.93 -16.6992 152.93 -35.0586 C 152.93 -53.3203 146.777 -70.3613 134.961 -82.959 C 132.471 -85.6934 128.467 -85.498 126.172 -83.0566 C 124.072 -80.6641 124.268 -77.3438 126.562 -74.9512 C 136.475 -64.5508 141.553 -50.4395 141.553 -35.0586 C 141.553 -19.6777 136.182 -5.66406 126.562 4.78516 C 124.316 7.27539 124.121 10.5469 126.172 12.9395 Z M 35.498 12.9395 C 37.5977 10.5469 37.3535 7.27539 35.1562 4.78516 C 25.5371 -5.66406 20.166 -19.6777 20.166 -35.0586 C 20.166 -50.4395 25.2441 -64.5508 35.1562 -74.9512 C 37.4023 -77.3438 37.6465 -80.6641 35.498 -83.0566 C 33.252 -85.498 29.1992 -85.6934 26.709 -82.959 C 14.9414 -70.3613 8.74023 -53.3203 8.74023 -35.0586 C 8.74023 -16.6992 14.9414 0.292969 26.709 12.8906 C 29.1992 15.5762 33.3008 15.4297 35.498 12.9395 Z M 50.5859 -1.85547 C 52.6367 -4.3457 51.9531 -7.37305 49.7559 -9.81445 C 44.043 -16.0156 40.8691 -25.1953 40.8691 -35.0586 C 40.8691 -44.9219 44.043 -54.0527 49.7559 -60.3027 C 51.9531 -62.7441 52.6367 -65.7227 50.5859 -68.2129 C 48.3887 -70.9473 44.4336 -71.4355 41.2109 -68.0176 C 33.8379 -60.3516 29.4922 -47.8027 29.4922 -35.0586 C 29.4922 -22.2168 33.3496 -10.2051 41.2109 -2.09961 C 44.4824 1.31836 48.3887 0.830078 50.5859 -1.85547 Z M 111.133 -1.85547 C 113.281 0.830078 117.188 1.31836 120.459 -2.09961 C 128.32 -10.2051 132.227 -22.2168 132.227 -35.0586 C 132.227 -47.8027 127.832 -60.3516 120.459 -68.0176 C 117.236 -71.4355 113.281 -70.9473 111.133 -68.2129 C 109.082 -65.7227 109.766 -62.7441 111.963 -60.3027 C 117.676 -54.0527 120.801 -44.9219 120.801 -35.0586 C 120.801 -25.1953 117.676 -16.0156 111.963 -9.81445 C 109.766 -7.37305 109.082 -4.3457 111.133 -1.85547 Z M 96.2402 -16.1133 C 98.291 -13.3789 102.539 -13.2324 105.469 -16.3574 C 109.473 -20.6055 111.523 -27.6367 111.523 -35.0586 C 111.523 -42.5293 109.473 -49.5605 105.469 -53.8574 C 102.539 -56.9824 98.291 -56.7383 96.2402 -54.0527 C 94.4336 -51.6113 94.9707 -48.6816 96.7773 -46.2402 C 98.584 -43.6523 100.098 -38.9648 100.098 -35.0586 C 100.098 -31.2012 98.6328 -26.4648 96.7773 -23.9258 C 94.9707 -21.4355 94.4336 -18.5547 96.2402 -16.1133 Z M 65.4297 -16.1133 C 67.2363 -18.5547 66.6992 -21.4355 64.9414 -23.9258 C 63.0371 -26.4648 61.5723 -31.2012 61.5723 -35.0586 C 61.5723 -38.9648 63.0371 -43.7012 64.9414 -46.2402 C 66.6992 -48.6816 67.2363 -51.6113 65.4297 -54.0527 C 63.3789 -56.7383 59.1797 -56.9824 56.2012 -53.8574 C 52.1973 -49.5605 50.1465 -42.5293 50.1465 -35.0586 C 50.1465 -27.6367 52.1973 -20.6055 56.2012 -16.3574 C 59.1797 -13.2324 63.3789 -13.3789 65.4297 -16.1133 Z M 80.9082 -27.3926 C 85.2051 -27.3926 88.6719 -30.9082 88.6719 -35.2539 C 88.6719 -39.502 85.2051 -43.0664 80.9082 -43.0664 C 76.5625 -43.0664 72.998 -39.502 72.998 -35.1562 C 72.998 -30.7129 76.5625 -27.3926 80.9082 -27.3926 Z"/>
  </g>
  <g id="Bold-M" transform="matrix(1 0 0 1 2260.56 1126)">
   <path d="M 124.17 12.4023 C 126.172 14.5996 129.736 14.7461 132.031 12.3047 C 143.75 -0.146484 150.098 -16.8945 150.098 -35.0586 C 150.098 -53.1738 143.75 -69.9707 132.031 -82.4219 C 129.736 -84.8633 126.172 -84.668 124.17 -82.5195 C 122.266 -80.3711 122.51 -77.3438 124.609 -75.1465 C 134.57 -64.6973 139.893 -50.5371 139.893 -35.0586 C 139.893 -19.5801 134.375 -5.51758 124.609 4.98047 C 122.559 7.27539 122.314 10.2539 124.17 12.4023 Z M 34.668 12.4023 C 36.5234 10.2539 36.2793 7.27539 34.2285 4.98047 C 24.4629 -5.51758 18.9453 -19.5801 18.9453 -35.0586 C 18.9453 -50.5371 24.2676 -64.6973 34.2285 -75.1465 C 36.3281 -77.3438 36.5723 -80.3711 34.668 -82.5195 C 32.666 -84.668 29.1016 -84.8633 26.8066 -82.4219 C 15.0879 -69.9707 8.74023 -53.1738 8.74023 -35.0586 C 8.74023 -16.8945 15.0879 -0.146484 26.8066 12.3047 C 29.1016 14.7461 32.666 14.5996 34.668 12.4023 Z M 109.424 -1.80664 C 111.426 0.634766 114.893 0.927734 117.725 -2.05078 C 125.635 -10.3516 129.736 -22.3145 129.736 -35.0586 C 129.736 -47.8027 125.342 -60.0098 117.725 -68.0664 C 114.941 -71.0449 111.426 -70.7031 109.424 -68.3105 C 107.568 -66.0645 108.154 -63.3301 110.205 -61.0352 C 116.211 -54.4434 119.531 -45.166 119.531 -35.0586 C 119.531 -24.9512 116.211 -15.6738 110.205 -9.08203 C 108.154 -6.78711 107.568 -4.05273 109.424 -1.80664 Z M 49.4141 -1.80664 C 51.2695 -4.05273 50.6348 -6.78711 48.6328 -9.08203 C 42.627 -15.6738 39.3066 -24.9512 39.3066 -35.0586 C 39.3066 -45.166 42.627 -54.4434 48.6328 -61.0352 C 50.6348 -63.3301 51.2695 -66.0645 49.4141 -68.3105 C 47.4121 -70.7031 43.8965 -71.0449 41.1133 -68.0664 C 33.4961 -60.0098 29.0527 -47.8027 29.0527 -35.0586 C 29.0527 -22.3145 33.2031 -10.3516 41.1133 -2.05078 C 43.9453 0.927734 47.4121 0.634766 49.4141 -1.80664 Z M 63.8672 -15.918 C 65.5762 -18.1152 64.9902 -20.8008 63.2812 -23.1445 C 61.084 -26.0254 59.5703 -30.7617 59.5703 -35.0586 C 59.5703 -39.3555 61.084 -44.0918 63.2812 -47.0215 C 64.9902 -49.3652 65.5762 -52.002 63.8672 -54.1992 C 61.9629 -56.6406 58.1543 -56.7871 55.6641 -53.9551 C 51.5625 -49.3164 49.3652 -42.4316 49.3652 -35.0586 C 49.3652 -27.7344 51.5625 -20.8008 55.6641 -16.2109 C 58.1543 -13.3789 61.9629 -13.5254 63.8672 -15.918 Z M 94.9707 -15.918 C 96.875 -13.5254 100.684 -13.3789 103.174 -16.2109 C 107.275 -20.8008 109.473 -27.7344 109.473 -35.0586 C 109.473 -42.4316 107.275 -49.3164 103.174 -53.9551 C 100.684 -56.7871 96.875 -56.6406 94.9707 -54.1992 C 93.2617 -52.002 93.8477 -49.3652 95.5566 -47.0215 C 97.7051 -44.043 99.2676 -39.3555 99.2676 -35.0586 C 99.2676 -30.7617 97.7539 -26.0254 95.5566 -23.1445 C 93.8477 -20.8008 93.2617 -18.1152 94.9707 -15.918 Z M 79.4434 -27.5879 C 83.5938 -27.5879 87.0117 -31.0059 87.0117 -35.2051 C 87.0117 -39.3555 83.5938 -42.8223 79.4434 -42.8223 C 75.293 -42.8223 71.7773 -39.3555 71.7773 -35.1562 C 71.7773 -30.9082 75.293 -27.5879 79.4434 -27.5879 Z"/>
  </g>
  <g id="Semibold-M" transform="matrix(1 0 0 1 1964.82 1126)">
   <path d="M 34.082 12.0117 C 35.8398 10.0098 35.5469 7.27539 33.5938 5.12695 C 23.6816 -5.41992 18.1152 -19.4824 18.1152 -35.0586 C 18.1152 -50.6348 23.584 -64.7461 33.5938 -75.293 C 35.5469 -77.3438 35.8398 -80.1758 34.082 -82.1289 C 32.2266 -84.1309 29.0527 -84.3262 26.9043 -82.0312 C 15.2344 -69.6777 8.74023 -53.0762 8.74023 -35.0586 C 8.74023 -17.041 15.2344 -0.439453 26.9043 11.9141 C 29.0527 14.209 32.2754 14.0137 34.082 12.0117 Z M 122.803 12.0117 C 124.609 14.0137 127.832 14.209 129.98 11.9141 C 141.65 -0.439453 148.145 -17.041 148.145 -35.0586 C 148.145 -53.0762 141.65 -69.6777 129.98 -82.0312 C 127.832 -84.3262 124.609 -84.1309 122.803 -82.1289 C 121.045 -80.1758 121.289 -77.3438 123.291 -75.293 C 133.301 -64.7461 138.721 -50.6348 138.721 -35.0586 C 138.721 -19.4824 133.154 -5.41992 123.291 5.12695 C 121.338 7.27539 121.045 10.0098 122.803 12.0117 Z M 108.301 -1.75781 C 110.107 0.439453 113.33 0.634766 115.771 -2.00195 C 123.779 -10.498 128.076 -22.3633 128.076 -35.0586 C 128.076 -47.7539 123.584 -59.8145 115.771 -68.1152 C 113.33 -70.752 110.107 -70.5566 108.301 -68.3594 C 106.543 -66.3086 107.08 -63.7207 109.033 -61.5234 C 115.234 -54.6875 118.652 -45.3125 118.652 -35.0586 C 118.652 -24.8047 115.234 -15.4297 109.033 -8.59375 C 107.08 -6.39648 106.543 -3.80859 108.301 -1.75781 Z M 48.584 -1.75781 C 50.3418 -3.80859 49.8047 -6.39648 47.8516 -8.59375 C 41.6504 -15.4297 38.1836 -24.8047 38.1836 -35.0586 C 38.1836 -45.3125 41.6504 -54.6875 47.8516 -61.5234 C 49.8047 -63.7207 50.3418 -66.3086 48.584 -68.3594 C 46.7773 -70.5566 43.5059 -70.752 41.0645 -68.1152 C 33.3008 -59.8145 28.8086 -47.7539 28.8086 -35.0586 C 28.8086 -22.3633 33.0566 -10.498 41.0645 -2.00195 C 43.5547 0.634766 46.7773 0.439453 48.584 -1.75781 Z M 94.0918 -15.8203 C 95.8984 -13.623 99.3652 -13.5254 101.611 -16.1133 C 105.762 -20.9473 108.057 -27.7832 108.057 -35.0586 C 108.057 -42.3828 105.762 -49.1699 101.611 -54.0527 C 99.3652 -56.6406 95.8984 -56.543 94.0918 -54.3457 C 92.4316 -52.2949 93.0664 -49.8047 94.6777 -47.5586 C 97.1191 -44.2871 98.6328 -39.6484 98.6328 -35.0586 C 98.6328 -30.4688 97.168 -25.7812 94.6777 -22.6074 C 93.0664 -20.3125 92.4316 -17.8711 94.0918 -15.8203 Z M 62.7441 -15.8203 C 64.4043 -17.8711 63.8184 -20.3125 62.1582 -22.6074 C 59.7168 -25.7812 58.2031 -30.4688 58.2031 -35.0586 C 58.2031 -39.6484 59.7168 -44.3848 62.1582 -47.5586 C 63.8184 -49.8047 64.4043 -52.2949 62.7441 -54.3457 C 60.9863 -56.543 57.5195 -56.6406 55.2734 -54.0527 C 51.123 -49.1699 48.8281 -42.3828 48.8281 -35.0586 C 48.8281 -27.7832 51.123 -20.9473 55.2734 -16.1133 C 57.5195 -13.5254 60.9863 -13.623 62.7441 -15.8203 Z M 78.4668 -27.7344 C 82.4707 -27.7344 85.8887 -31.1035 85.8887 -35.2051 C 85.8887 -39.2578 82.4707 -42.627 78.4668 -42.627 C 74.4141 -42.627 70.9961 -39.2578 70.9961 -35.1562 C 70.9961 -31.0059 74.4141 -27.7344 78.4668 -27.7344 Z"/>
  </g>
  <g id="Medium-M" transform="matrix(1 0 0 1 1668.87 1126)">
   <path d="M 33.6426 11.7188 C 35.2539 9.86328 34.9609 7.22656 33.1055 5.22461 C 23.1445 -5.32227 17.5293 -19.4336 17.5293 -35.0586 C 17.5293 -50.6836 23.0469 -64.8438 33.1055 -75.3906 C 35.0098 -77.3926 35.3027 -80.0293 33.6426 -81.8359 C 31.9336 -83.6914 29.0039 -83.8867 26.9531 -81.7383 C 15.332 -69.4824 8.74023 -52.9785 8.74023 -35.0586 C 8.74023 -17.1387 15.332 -0.634766 26.9531 11.6211 C 29.0039 13.7695 31.9336 13.5742 33.6426 11.7188 Z M 121.729 11.7188 C 123.438 13.5742 126.367 13.7695 128.418 11.6211 C 140.088 -0.634766 146.631 -17.1387 146.631 -35.0586 C 146.631 -52.9785 140.088 -69.4824 128.418 -81.7383 C 126.367 -83.8867 123.438 -83.6914 121.729 -81.8359 C 120.068 -80.0293 120.361 -77.3926 122.266 -75.3906 C 132.324 -64.8438 137.842 -50.6836 137.842 -35.0586 C 137.842 -19.4336 132.275 -5.32227 122.266 5.22461 C 120.41 7.22656 120.117 9.86328 121.729 11.7188 Z M 47.998 -1.70898 C 49.6582 -3.66211 49.1211 -6.10352 47.2656 -8.20312 C 40.918 -15.2344 37.3535 -24.707 37.3535 -35.0586 C 37.3535 -45.4102 40.918 -54.8828 47.2656 -61.9141 C 49.1211 -64.0137 49.6582 -66.4551 47.998 -68.4082 C 46.2402 -70.459 43.2617 -70.5566 41.0645 -68.1641 C 33.1055 -59.6191 28.6133 -47.7539 28.6133 -35.0586 C 28.6133 -22.3633 33.0078 -10.5957 41.0645 -1.95312 C 43.2617 0.439453 46.2402 0.341797 47.998 -1.70898 Z M 107.422 -1.70898 C 109.131 0.341797 112.109 0.439453 114.307 -1.95312 C 122.363 -10.5957 126.807 -22.3633 126.807 -35.0586 C 126.807 -47.7539 122.266 -59.6191 114.307 -68.1641 C 112.109 -70.5566 109.131 -70.459 107.422 -68.4082 C 105.713 -66.4551 106.25 -64.0137 108.105 -61.9141 C 114.502 -54.8828 118.018 -45.4102 118.018 -35.0586 C 118.018 -24.707 114.502 -15.2344 108.105 -8.20312 C 106.25 -6.10352 105.713 -3.66211 107.422 -1.70898 Z M 61.9141 -15.7227 C 63.5742 -17.627 62.9395 -19.9707 61.3281 -22.168 C 58.6426 -25.5371 57.1777 -30.2734 57.1777 -35.0586 C 57.1777 -39.8926 58.6426 -44.5801 61.3281 -47.998 C 62.9395 -50.1465 63.5742 -52.4902 61.9141 -54.4434 C 60.2051 -56.4941 56.9824 -56.543 54.9805 -54.1016 C 50.7812 -49.0723 48.4375 -42.334 48.4375 -35.0586 C 48.4375 -27.832 50.7812 -21.0449 54.9805 -16.0156 C 56.9824 -13.623 60.2051 -13.6719 61.9141 -15.7227 Z M 93.457 -15.7227 C 95.166 -13.6719 98.3887 -13.623 100.391 -16.0156 C 104.59 -21.0449 106.982 -27.832 106.982 -35.0586 C 106.982 -42.334 104.59 -49.0723 100.391 -54.1016 C 98.3887 -56.543 95.166 -56.4941 93.457 -54.4434 C 91.8457 -52.4902 92.4805 -50.1953 94.043 -47.998 C 96.6309 -44.4824 98.1934 -39.8926 98.1934 -35.0586 C 98.1934 -30.2734 96.7285 -25.5371 94.043 -22.168 C 92.4316 -19.9707 91.8457 -17.627 93.457 -15.7227 Z M 77.6855 -27.832 C 81.6406 -27.832 85.0098 -31.1523 85.0098 -35.1562 C 85.0098 -39.1602 81.6406 -42.5293 77.6855 -42.5293 C 73.7305 -42.5293 70.3613 -39.1602 70.3613 -35.1562 C 70.3613 -31.1035 73.7305 -27.832 77.6855 -27.832 Z"/>
  </g>
  <g id="Regular-M" transform="matrix(1 0 0 1 1373.14 1126)">
   <path d="M 120.361 11.3281 C 121.875 12.9883 124.512 13.1836 126.416 11.2305 C 137.988 -0.927734 144.678 -17.2363 144.678 -35.0586 C 144.678 -52.8809 137.988 -69.2383 126.416 -81.3477 C 124.512 -83.3496 121.875 -83.1543 120.361 -81.4941 C 118.848 -79.7852 119.189 -77.3926 120.947 -75.5371 C 131.055 -64.9414 136.719 -50.7324 136.719 -35.0586 C 136.719 -19.3848 131.055 -5.22461 120.947 5.37109 C 119.189 7.22656 118.848 9.66797 120.361 11.3281 Z M 33.0566 11.3281 C 34.5703 9.66797 34.2285 7.22656 32.4707 5.37109 C 22.3633 -5.22461 16.6992 -19.3848 16.6992 -35.0586 C 16.6992 -50.7324 22.3633 -64.9414 32.4707 -75.5371 C 34.2285 -77.3926 34.5703 -79.7852 33.0566 -81.4941 C 31.543 -83.1543 28.9062 -83.3496 27.0508 -81.3477 C 15.4297 -69.2383 8.74023 -52.8809 8.74023 -35.0586 C 8.74023 -17.2363 15.4297 -0.927734 27.0508 11.2305 C 28.9062 13.1836 31.543 12.9883 33.0566 11.3281 Z M 106.25 -1.66016 C 107.812 0.146484 110.547 0.146484 112.451 -1.95312 C 120.557 -10.7422 125.098 -22.4121 125.098 -35.0586 C 125.098 -47.7051 120.557 -59.4238 112.451 -68.2129 C 110.547 -70.2637 107.812 -70.3125 106.25 -68.457 C 104.688 -66.6992 105.176 -64.4043 106.934 -62.4023 C 113.477 -55.127 117.139 -45.6055 117.139 -35.0586 C 117.139 -24.5605 113.477 -14.9902 106.934 -7.71484 C 105.176 -5.71289 104.688 -3.4668 106.25 -1.66016 Z M 47.168 -1.66016 C 48.7305 -3.4668 48.2422 -5.71289 46.4844 -7.71484 C 39.9414 -14.9902 36.2793 -24.5605 36.2793 -35.0586 C 36.2793 -45.6055 39.9414 -55.127 46.4844 -62.4023 C 48.2422 -64.4043 48.7305 -66.6992 47.168 -68.457 C 45.6055 -70.3125 42.8711 -70.2637 41.0156 -68.2129 C 32.8613 -59.4238 28.3203 -47.7051 28.3203 -35.0586 C 28.3203 -22.4121 32.8613 -10.7422 41.0156 -1.95312 C 42.8711 0.146484 45.6055 0.146484 47.168 -1.66016 Z M 60.8398 -15.5762 C 62.4023 -17.334 61.7676 -19.5312 60.2051 -21.6309 C 57.2754 -25.293 55.8594 -29.9805 55.8594 -35.0586 C 55.8594 -40.1367 57.2754 -44.873 60.2051 -48.4863 C 61.7676 -50.6348 62.4023 -52.7832 60.8398 -54.541 C 59.2285 -56.3965 56.2988 -56.4453 54.5898 -54.1992 C 50.3418 -48.9258 47.9004 -42.2363 47.9004 -35.0586 C 47.9004 -27.8809 50.3418 -21.1914 54.5898 -15.918 C 56.2988 -13.7207 59.2285 -13.7695 60.8398 -15.5762 Z M 92.5781 -15.5762 C 94.1895 -13.7695 97.1191 -13.7207 98.8281 -15.918 C 103.076 -21.1914 105.566 -27.8809 105.566 -35.0586 C 105.566 -42.2363 103.076 -48.9258 98.8281 -54.1992 C 97.1191 -56.4453 94.1895 -56.3965 92.5781 -54.541 C 91.0156 -52.7832 91.6992 -50.6348 93.2129 -48.4863 C 96.0449 -44.7754 97.6074 -40.1367 97.6074 -35.0586 C 97.6074 -29.9805 96.1426 -25.293 93.2129 -21.6309 C 91.6992 -19.5312 91.0156 -17.334 92.5781 -15.5762 Z M 76.709 -27.9785 C 80.5664 -27.9785 83.8867 -31.2012 83.8867 -35.1562 C 83.8867 -39.0625 80.5664 -42.334 76.709 -42.334 C 72.9004 -42.334 69.5312 -39.0625 69.5312 -35.1562 C 69.5312 -31.2012 72.9004 -27.9785 76.709 -27.9785 Z"/>
  </g>
  <g id="Light-M" transform="matrix(1 0 0 1 1078.5 1126)">
   <path d="M 117.627 10.2051 C 118.799 11.4746 120.801 11.6211 122.266 10.1074 C 133.74 -1.70898 140.527 -17.5781 140.527 -35.0586 C 140.527 -52.5879 133.74 -68.457 122.266 -80.2734 C 120.801 -81.7383 118.799 -81.6406 117.627 -80.3711 C 116.504 -79.1016 116.748 -77.1973 118.066 -75.8301 C 128.418 -65.1855 134.424 -50.9766 134.424 -35.0586 C 134.424 -19.1895 128.418 -4.98047 118.066 5.66406 C 116.748 7.08008 116.504 8.93555 117.627 10.2051 Z M 31.5918 10.2051 C 32.7637 8.93555 32.5195 7.08008 31.1523 5.66406 C 20.8496 -4.98047 14.8438 -19.1895 14.8438 -35.0586 C 14.8438 -50.9766 20.8496 -65.1855 31.1523 -75.8301 C 32.5195 -77.1973 32.7637 -79.1016 31.5918 -80.3711 C 30.4688 -81.6406 28.418 -81.7383 27.002 -80.2734 C 15.5273 -68.457 8.74023 -52.5879 8.74023 -35.0586 C 8.74023 -17.5781 15.5273 -1.70898 27.002 10.1074 C 28.418 11.6211 30.4688 11.4746 31.5918 10.2051 Z M 45.459 -2.58789 C 46.6309 -3.95508 46.2402 -5.71289 44.9219 -7.22656 C 38.0371 -14.5508 34.1309 -24.2676 34.1309 -35.0586 C 34.1309 -45.8496 38.0371 -55.5664 44.9219 -62.9395 C 46.2402 -64.4043 46.6309 -66.2109 45.459 -67.5293 C 44.2383 -68.9453 42.1387 -68.8965 40.7227 -67.334 C 32.666 -58.8379 28.0273 -47.5098 28.0273 -35.0586 C 28.0273 -22.6562 32.666 -11.2793 40.7227 -2.7832 C 42.1387 -1.2207 44.2383 -1.2207 45.459 -2.58789 Z M 103.809 -2.58789 C 104.98 -1.2207 107.08 -1.2207 108.545 -2.7832 C 116.553 -11.2793 121.24 -22.6562 121.24 -35.0586 C 121.24 -47.5098 116.553 -58.8379 108.545 -67.334 C 107.08 -68.8965 104.98 -68.9453 103.809 -67.5293 C 102.588 -66.2109 102.979 -64.4043 104.346 -62.9395 C 111.182 -55.5664 115.137 -45.8496 115.137 -35.0586 C 115.137 -24.2676 111.182 -14.5508 104.346 -7.22656 C 102.979 -5.71289 102.588 -3.95508 103.809 -2.58789 Z M 90.3809 -16.3086 C 91.6016 -14.8926 93.8477 -14.8926 95.166 -16.5527 C 99.5117 -21.582 102.002 -28.0762 102.002 -35.0586 C 102.002 -42.0898 99.5117 -48.584 95.166 -53.6133 C 93.8477 -55.2246 91.6016 -55.2246 90.3809 -53.8574 C 89.209 -52.4902 89.6973 -50.8301 90.8691 -49.2188 C 93.9941 -45.3125 95.8984 -40.5273 95.8984 -35.0586 C 95.8984 -29.6387 94.2383 -24.6094 90.8691 -20.8984 C 89.6484 -19.3359 89.209 -17.627 90.3809 -16.3086 Z M 58.8867 -16.3086 C 60.0586 -17.627 59.5703 -19.3359 58.3984 -20.8984 C 55.0293 -24.6094 53.3691 -29.6387 53.3691 -35.0586 C 53.3691 -40.5273 55.0293 -45.5566 58.3984 -49.2188 C 59.5703 -50.7812 60.0586 -52.4902 58.8867 -53.8574 C 57.666 -55.2246 55.4199 -55.2246 54.1016 -53.6133 C 49.7559 -48.584 47.2656 -42.0898 47.2656 -35.0586 C 47.2656 -28.0762 49.7559 -21.582 54.1016 -16.5527 C 55.4199 -14.8926 57.666 -14.8926 58.8867 -16.3086 Z M 74.6094 -28.5156 C 78.1738 -28.5156 81.2988 -31.543 81.2988 -35.1562 C 81.2988 -38.8184 78.1738 -41.8457 74.6094 -41.8457 C 71.0449 -41.8457 67.9688 -38.8184 67.9688 -35.1562 C 67.9688 -31.543 71.0449 -28.5156 74.6094 -28.5156 Z"/>
  </g>
  <g id="Thin-M" transform="matrix(1 0 0 1 784.547 1126)">
   <path d="M 114.014 8.74023 C 114.697 9.47266 115.918 9.52148 116.748 8.69141 C 128.076 -2.73438 135.01 -17.9688 135.01 -35.0586 C 135.01 -52.1484 128.076 -67.3828 116.748 -78.8086 C 115.918 -79.6875 114.697 -79.6387 114.014 -78.9062 C 113.379 -78.125 113.525 -77.002 114.307 -76.2207 C 124.951 -65.4785 131.348 -51.2207 131.348 -35.0586 C 131.348 -18.9453 124.951 -4.6875 114.307 6.05469 C 113.525 6.83594 113.379 8.00781 114.014 8.74023 Z M 29.6875 8.74023 C 30.3711 8.00781 30.2246 6.83594 29.4434 6.05469 C 18.7988 -4.6875 12.4023 -18.9453 12.4023 -35.0586 C 12.4023 -51.2207 18.7988 -65.4785 29.4434 -76.2207 C 30.2246 -77.002 30.3711 -78.125 29.6875 -78.9062 C 29.0527 -79.6387 27.7832 -79.6875 26.9531 -78.8086 C 15.6738 -67.3828 8.74023 -52.1484 8.74023 -35.0586 C 8.74023 -17.9688 15.6738 -2.73438 26.9531 8.69141 C 27.7832 9.52148 29.0527 9.47266 29.6875 8.74023 Z M 43.2129 -3.80859 C 43.8965 -4.58984 43.6523 -5.71289 42.8711 -6.54297 C 35.5957 -13.9648 31.25 -23.9258 31.25 -35.0586 C 31.25 -46.2402 35.5957 -56.1523 42.8711 -63.623 C 43.6523 -64.4043 43.8965 -65.5273 43.2129 -66.3086 C 42.4805 -67.1387 41.2109 -67.0898 40.3809 -66.2109 C 32.4219 -58.1055 27.6367 -47.168 27.6367 -35.0586 C 27.6367 -22.9492 32.4219 -12.0605 40.3809 -3.95508 C 41.2109 -3.07617 42.4805 -3.02734 43.2129 -3.80859 Z M 100.537 -3.80859 C 101.27 -3.02734 102.49 -3.07617 103.369 -3.95508 C 111.328 -12.0605 116.113 -22.9492 116.113 -35.0586 C 116.113 -47.168 111.328 -58.1055 103.369 -66.2109 C 102.49 -67.0898 101.27 -67.1387 100.537 -66.3086 C 99.8535 -65.5273 100.098 -64.4043 100.879 -63.623 C 108.154 -56.1523 112.451 -46.2402 112.451 -35.0586 C 112.451 -23.9258 108.154 -13.9648 100.879 -6.54297 C 100.098 -5.71289 99.8535 -4.58984 100.537 -3.80859 Z M 56.25 -17.2363 C 56.9336 -18.0176 56.6895 -19.0918 55.957 -19.9707 C 52.002 -23.6816 50.0977 -29.1992 50.0977 -35.0586 C 50.0977 -40.9668 52.002 -46.4844 55.957 -50.1953 C 56.6895 -51.0254 56.9336 -52.1484 56.25 -52.9297 C 55.5176 -53.7109 54.248 -53.7109 53.418 -52.7832 C 48.9746 -48.1445 46.4355 -41.8945 46.4355 -35.0586 C 46.4355 -28.2715 48.9746 -22.0215 53.418 -17.3828 C 54.248 -16.4551 55.5176 -16.4062 56.25 -17.2363 Z M 87.4512 -17.2363 C 88.1836 -16.4062 89.502 -16.4551 90.2832 -17.3828 C 94.7266 -22.0215 97.2656 -28.2715 97.2656 -35.0586 C 97.2656 -41.8945 94.7266 -48.1445 90.2832 -52.7832 C 89.502 -53.7109 88.1836 -53.7109 87.4512 -52.9297 C 86.7676 -52.1484 87.0605 -51.0742 87.793 -50.1953 C 91.3086 -46.0449 93.6523 -40.9668 93.6523 -35.0586 C 93.6523 -29.1992 91.748 -23.6816 87.793 -19.9707 C 87.0117 -19.0918 86.7676 -18.0176 87.4512 -17.2363 Z M 71.875 -29.1992 C 75.0977 -29.1992 77.832 -31.9336 77.832 -35.2051 C 77.832 -38.4277 75.0977 -41.1621 71.875 -41.1621 C 68.6523 -41.1621 65.8691 -38.4277 65.8691 -35.2051 C 65.8691 -31.9336 68.6523 -29.1992 71.875 -29.1992 Z"/>
  </g>
  <g id="Ultralight-M" transform="matrix(1 0 0 1 489.252 1126)">
   <path d="M 112.158 8.00781 C 112.598 8.44727 113.428 8.44727 113.965 7.91016 C 125.195 -3.27148 132.178 -18.2129 132.178 -35.0586 C 132.178 -51.9531 125.195 -66.8945 113.965 -78.0762 C 113.428 -78.6133 112.598 -78.6133 112.158 -78.125 C 111.768 -77.6855 111.865 -76.9043 112.354 -76.416 C 123.145 -65.625 129.785 -51.3672 129.785 -35.0586 C 129.785 -18.7988 123.145 -4.54102 112.354 6.25 C 111.865 6.73828 111.768 7.51953 112.158 8.00781 Z M 28.7109 8.00781 C 29.1504 7.51953 29.0039 6.73828 28.5645 6.25 C 17.7734 -4.54102 11.1328 -18.7988 11.1328 -35.0586 C 11.1328 -51.3672 17.7734 -65.625 28.5645 -76.416 C 29.0039 -76.9043 29.1504 -77.6855 28.7109 -78.125 C 28.3203 -78.6133 27.4902 -78.6133 26.9531 -78.0762 C 15.7227 -66.8945 8.74023 -51.9531 8.74023 -35.0586 C 8.74023 -18.2129 15.7227 -3.27148 26.9531 7.91016 C 27.4902 8.44727 28.3203 8.44727 28.7109 8.00781 Z M 42.041 -4.44336 C 42.4805 -4.93164 42.2852 -5.71289 41.7969 -6.20117 C 34.3262 -13.6719 29.834 -23.7305 29.834 -35.0586 C 29.834 -46.4355 34.3262 -56.4941 41.7969 -63.9648 C 42.2852 -64.4043 42.4805 -65.2344 42.041 -65.6738 C 41.5527 -66.2109 40.7227 -66.1621 40.1855 -65.625 C 32.2754 -57.7148 27.4414 -47.0215 27.4414 -35.0586 C 27.4414 -23.1445 32.2754 -12.4023 40.1855 -4.54102 C 40.7227 -4.00391 41.5527 -3.90625 42.041 -4.44336 Z M 98.8281 -4.44336 C 99.3164 -3.90625 100.146 -4.00391 100.684 -4.54102 C 108.594 -12.4023 113.477 -23.1445 113.477 -35.0586 C 113.477 -47.0215 108.594 -57.7148 100.684 -65.625 C 100.146 -66.1621 99.3164 -66.2109 98.8281 -65.6738 C 98.4375 -65.2344 98.6328 -64.4043 99.0723 -63.9648 C 106.592 -56.4941 111.084 -46.4355 111.084 -35.0586 C 111.084 -23.7305 106.592 -13.6719 99.0723 -6.20117 C 98.6328 -5.71289 98.4375 -4.93164 98.8281 -4.44336 Z M 54.9316 -17.7246 C 55.3711 -18.2129 55.2246 -18.9941 54.6875 -19.4336 C 50.4395 -23.1934 48.4375 -28.9551 48.4375 -35.0586 C 48.4375 -41.2109 50.4395 -46.9727 54.6875 -50.6836 C 55.2246 -51.1719 55.3711 -51.9531 54.9316 -52.4414 C 54.4434 -52.9785 53.6133 -52.8809 53.0762 -52.3438 C 48.584 -47.9004 46.0449 -41.7969 46.0449 -35.0586 C 46.0449 -28.3691 48.584 -22.2656 53.0762 -17.7734 C 53.6133 -17.2363 54.4434 -17.1875 54.9316 -17.7246 Z M 85.9863 -17.7246 C 86.4258 -17.1875 87.2559 -17.2363 87.793 -17.7734 C 92.2852 -22.2656 94.873 -28.3691 94.873 -35.0586 C 94.873 -41.7969 92.2852 -47.9004 87.793 -52.3438 C 87.2559 -52.8809 86.4258 -52.9785 85.9863 -52.4414 C 85.5469 -51.9531 85.7422 -51.2207 86.1816 -50.6836 C 89.9414 -46.4355 92.4805 -41.2109 92.4805 -35.0586 C 92.4805 -28.9551 90.4785 -23.1934 86.1816 -19.4336 C 85.6445 -18.9941 85.5469 -18.2129 85.9863 -17.7246 Z M 70.459 -29.541 C 73.4863 -29.541 76.0742 -32.1777 76.0742 -35.2051 C 76.0742 -38.2324 73.4863 -40.8203 70.459 -40.8203 C 67.4316 -40.8203 64.7949 -38.2324 64.7949 -35.2051 C 64.7949 -32.1777 67.4316 -29.541 70.459 -29.541 Z"/>
  </g>
  <g id="Black-S" transform="matrix(1 0 0 1 2869.14 696)">
   <path d="M 100.146 2.88086 C 102.051 5.0293 105.566 5.12695 107.666 2.83203 C 116.943 -7.12891 121.68 -20.6055 121.68 -35.1074 C 121.68 -49.5117 116.943 -63.0371 107.666 -72.998 C 105.566 -75.293 102.1 -75.1465 100.146 -73.0469 C 98.3398 -71.0449 98.4863 -68.2129 100.391 -66.2109 C 108.105 -58.1055 111.963 -47.0703 111.963 -35.1074 C 111.963 -23.0957 107.812 -12.1582 100.391 -4.00391 C 98.5352 -1.9043 98.3887 0.830078 100.146 2.88086 Z M 28.3691 2.88086 C 30.127 0.830078 29.9805 -1.9043 28.125 -4.00391 C 20.7031 -12.1582 16.5527 -23.0957 16.5527 -35.1074 C 16.5527 -47.0703 20.4102 -58.1055 28.125 -66.2109 C 30.0293 -68.2129 30.1758 -71.0449 28.3691 -73.0469 C 26.416 -75.1465 22.9492 -75.293 20.8496 -72.998 C 11.5723 -63.0371 6.83594 -49.5117 6.83594 -35.1074 C 6.83594 -20.6055 11.5723 -7.12891 20.8496 2.83203 C 22.9492 5.12695 26.4648 5.0293 28.3691 2.88086 Z M 88.1348 -9.13086 C 89.9902 -6.78711 93.3105 -6.29883 96.1914 -9.27734 C 102.295 -15.4785 105.176 -25 105.176 -35.1074 C 105.176 -45.1172 101.807 -55.127 96.1914 -60.8887 C 93.3594 -63.8672 89.9902 -63.3789 88.1348 -61.0352 C 86.4258 -58.9355 87.0117 -56.3965 88.8184 -54.3945 C 93.1152 -49.7559 95.459 -42.6758 95.459 -35.1074 C 95.459 -27.4902 93.1152 -20.4102 88.8184 -15.7715 C 87.0117 -13.7695 86.4258 -11.2305 88.1348 -9.13086 Z M 40.3809 -9.13086 C 42.0898 -11.2305 41.5039 -13.7695 39.6973 -15.7715 C 35.4004 -20.4102 33.0566 -27.4902 33.0566 -35.1074 C 33.0566 -42.6758 35.4004 -49.7559 39.6973 -54.3945 C 41.5039 -56.3965 42.0898 -58.9355 40.3809 -61.0352 C 38.5254 -63.3789 35.1562 -63.8672 32.3242 -60.8887 C 26.709 -55.127 23.3398 -45.1172 23.3398 -35.1074 C 23.3398 -25 26.2207 -15.4785 32.3242 -9.27734 C 35.2051 -6.29883 38.5254 -6.78711 40.3809 -9.13086 Z M 76.2207 -20.3613 C 77.9297 -18.0176 81.543 -17.8711 84.1309 -20.5078 C 87.207 -23.6328 88.7207 -29.1992 88.7207 -35.1074 C 88.7207 -41.0156 87.207 -46.582 84.1309 -49.7559 C 81.543 -52.3926 77.9297 -52.1973 76.2207 -49.8535 C 74.7559 -47.8027 75.1465 -45.3613 76.6113 -43.3594 C 77.832 -41.6016 79.0039 -37.8906 79.0039 -35.1074 C 79.0039 -32.3242 77.832 -28.6133 76.6113 -26.9043 C 75.1465 -24.8535 74.7559 -22.4121 76.2207 -20.3613 Z M 52.2949 -20.3613 C 53.7598 -22.4121 53.3691 -24.8535 51.9043 -26.9043 C 50.6836 -28.6133 49.5117 -32.3242 49.5117 -35.1074 C 49.5117 -37.8906 50.6836 -41.6016 51.9043 -43.3594 C 53.3691 -45.3613 53.7598 -47.8027 52.2949 -49.8535 C 50.5859 -52.1973 46.9727 -52.3926 44.3848 -49.7559 C 41.3086 -46.582 39.7949 -41.0156 39.7949 -35.1074 C 39.7949 -29.1992 41.3086 -23.6328 44.3848 -20.5078 C 46.9727 -17.8711 50.5859 -18.0176 52.2949 -20.3613 Z M 64.3066 -28.9551 C 67.7734 -28.9551 70.5566 -31.7871 70.5566 -35.2539 C 70.5566 -38.6719 67.7734 -41.5527 64.3066 -41.5527 C 60.791 -41.5527 57.959 -38.6719 57.959 -35.1562 C 57.959 -31.5918 60.791 -28.9551 64.3066 -28.9551 Z"/>
  </g>
  <g id="Heavy-S" transform="matrix(1 0 0 1 2573.19 696)">
   <path d="M 99.0723 2.63672 C 100.83 4.63867 104.102 4.73633 106.104 2.53906 C 115.332 -7.32422 120.166 -20.7031 120.166 -35.1074 C 120.166 -49.4629 115.332 -62.8418 106.104 -72.7539 C 104.102 -74.9023 100.879 -74.7559 99.0723 -72.8027 C 97.3633 -70.8984 97.5586 -68.2617 99.3652 -66.3086 C 107.129 -58.1543 111.084 -47.1191 111.084 -35.1074 C 111.084 -23.0469 106.885 -12.0605 99.3652 -3.90625 C 97.6074 -1.9043 97.4121 0.683594 99.0723 2.63672 Z M 27.9297 2.63672 C 29.5898 0.683594 29.4434 -1.9043 27.6367 -3.90625 C 20.1172 -12.0605 15.9668 -23.0469 15.9668 -35.1074 C 15.9668 -47.1191 19.9219 -58.1543 27.6367 -66.3086 C 29.4922 -68.2617 29.6387 -70.8984 27.9297 -72.8027 C 26.123 -74.7559 22.9492 -74.9023 20.9473 -72.7539 C 11.6699 -62.8418 6.83594 -49.4629 6.83594 -35.1074 C 6.83594 -20.7031 11.6699 -7.32422 20.9473 2.53906 C 22.9492 4.73633 26.1719 4.63867 27.9297 2.63672 Z M 39.7461 -8.98438 C 41.4062 -10.9375 40.8691 -13.3789 39.1113 -15.332 C 34.6191 -20.2148 32.2266 -27.3926 32.2266 -35.1074 C 32.2266 -42.8223 34.6191 -49.9512 39.1113 -54.834 C 40.8691 -56.7871 41.4062 -59.2285 39.7461 -61.1816 C 38.0371 -63.3789 34.8633 -63.7695 32.3242 -61.0352 C 26.5137 -54.9805 23.0957 -45.1172 23.0957 -35.1074 C 23.0957 -25 26.123 -15.5273 32.3242 -9.13086 C 34.9121 -6.44531 38.0371 -6.78711 39.7461 -8.98438 Z M 87.2559 -8.98438 C 89.0137 -6.78711 92.1387 -6.44531 94.7266 -9.13086 C 100.879 -15.5273 103.906 -25 103.906 -35.1074 C 103.906 -45.1172 100.537 -54.9805 94.7266 -61.0352 C 92.1387 -63.7695 89.0137 -63.3789 87.2559 -61.1816 C 85.6445 -59.2285 86.1816 -56.7871 87.9395 -54.834 C 92.3828 -49.9512 94.8242 -42.8223 94.8242 -35.1074 C 94.8242 -27.3926 92.3828 -20.2148 87.9395 -15.332 C 86.1816 -13.3789 85.6445 -10.9375 87.2559 -8.98438 Z M 75.5859 -20.166 C 77.2461 -17.9688 80.6152 -17.8711 82.959 -20.3613 C 86.084 -23.7305 87.6953 -29.248 87.6953 -35.1074 C 87.6953 -40.9668 86.084 -46.4844 82.959 -49.9023 C 80.6152 -52.3926 77.2461 -52.2461 75.5859 -50.0488 C 74.1699 -48.0957 74.6094 -45.8008 76.0254 -43.7988 C 77.4414 -41.7969 78.6133 -38.1348 78.6133 -35.1074 C 78.6133 -32.0801 77.4414 -28.418 76.0254 -26.416 C 74.6094 -24.4141 74.1699 -22.1191 75.5859 -20.166 Z M 51.416 -20.166 C 52.8809 -22.1191 52.4414 -24.4141 50.9766 -26.416 C 49.5605 -28.418 48.4375 -32.0801 48.4375 -35.1074 C 48.4375 -38.1348 49.5605 -41.7969 50.9766 -43.7988 C 52.4414 -45.8008 52.8809 -48.0957 51.416 -50.0488 C 49.7559 -52.2461 46.3867 -52.3926 44.043 -49.9023 C 40.918 -46.4844 39.3066 -40.9668 39.3066 -35.1074 C 39.3066 -29.248 40.918 -23.7305 44.043 -20.3613 C 46.3867 -17.8711 49.7559 -17.9688 51.416 -20.166 Z M 63.5742 -29.0527 C 66.9434 -29.0527 69.7266 -31.8359 69.7266 -35.2539 C 69.7266 -38.623 66.9434 -41.4551 63.5742 -41.4551 C 60.1074 -41.4551 57.3242 -38.623 57.3242 -35.1562 C 57.3242 -31.6895 60.1074 -29.0527 63.5742 -29.0527 Z"/>
  </g>
  <g id="Bold-S" transform="matrix(1 0 0 1 2277.31 696)">
   <path d="M 97.9004 2.34375 C 99.5117 4.15039 102.441 4.29688 104.346 2.24609 C 113.574 -7.56836 118.506 -20.8008 118.506 -35.1074 C 118.506 -49.3652 113.574 -62.6465 104.346 -72.4609 C 102.441 -74.5117 99.5605 -74.3164 97.9004 -72.5098 C 96.2891 -70.752 96.5332 -68.2617 98.2422 -66.4062 C 106.006 -58.252 110.107 -47.168 110.107 -35.1074 C 110.107 -22.998 105.859 -12.0117 98.2422 -3.80859 C 96.5332 -1.9043 96.3379 0.537109 97.9004 2.34375 Z M 27.4902 2.34375 C 29.0527 0.537109 28.8086 -1.9043 27.0996 -3.80859 C 19.4824 -12.0117 15.2832 -22.998 15.2832 -35.1074 C 15.2832 -47.168 19.3359 -58.252 27.0996 -66.4062 C 28.8574 -68.2617 29.0527 -70.752 27.4902 -72.5098 C 25.8301 -74.3164 22.9004 -74.5117 20.9961 -72.4609 C 11.8164 -62.6465 6.83594 -49.3652 6.83594 -35.1074 C 6.83594 -20.8008 11.8164 -7.56836 20.9961 2.24609 C 22.9004 4.29688 25.8301 4.15039 27.4902 2.34375 Z M 86.2793 -8.78906 C 87.9395 -6.83594 90.8203 -6.5918 93.0664 -8.98438 C 99.3164 -15.625 102.539 -25.0488 102.539 -35.1074 C 102.539 -45.1172 99.0723 -54.7852 93.0664 -61.1816 C 90.8203 -63.623 87.9395 -63.3789 86.2793 -61.377 C 84.7168 -59.5215 85.2539 -57.2754 86.9141 -55.3223 C 91.5527 -50.1953 94.0918 -42.9199 94.0918 -35.1074 C 94.0918 -27.2461 91.5527 -20.0195 86.9141 -14.8438 C 85.2539 -12.9395 84.7168 -10.6445 86.2793 -8.78906 Z M 39.0625 -8.78906 C 40.625 -10.6445 40.1367 -12.9395 38.4277 -14.8438 C 33.7891 -20.0195 31.25 -27.2461 31.25 -35.1074 C 31.25 -42.9199 33.7891 -50.1953 38.4277 -55.3223 C 40.1367 -57.2754 40.625 -59.5215 39.0625 -61.377 C 37.4512 -63.3789 34.5215 -63.623 32.2754 -61.1816 C 26.2695 -54.7852 22.8516 -45.1172 22.8516 -35.1074 C 22.8516 -25.0488 26.0254 -15.625 32.2754 -8.98438 C 34.5703 -6.5918 37.4512 -6.83594 39.0625 -8.78906 Z M 74.9023 -19.9219 C 76.4648 -17.9199 79.5898 -17.8223 81.6895 -20.166 C 84.8633 -23.877 86.5723 -29.2969 86.5723 -35.1074 C 86.5723 -40.918 84.8633 -46.3379 81.6895 -50.0977 C 79.5898 -52.3926 76.4648 -52.2949 74.9023 -50.293 C 73.4863 -48.4863 73.9746 -46.2891 75.3906 -44.3359 C 77.002 -41.9922 78.125 -38.4277 78.125 -35.1074 C 78.125 -31.7871 77.0508 -28.1738 75.3906 -25.9277 C 73.9746 -23.9258 73.4863 -21.7285 74.9023 -19.9219 Z M 50.4395 -19.9219 C 51.9043 -21.7285 51.416 -23.9258 50 -25.9277 C 48.3398 -28.1738 47.2168 -31.7871 47.2168 -35.1074 C 47.2168 -38.4277 48.3398 -42.041 50 -44.3359 C 51.416 -46.2891 51.9043 -48.4863 50.4395 -50.293 C 48.877 -52.2949 45.752 -52.3926 43.7012 -50.0977 C 40.5273 -46.3379 38.8184 -40.918 38.8184 -35.1074 C 38.8184 -29.2969 40.5273 -23.877 43.7012 -20.166 C 45.752 -17.8223 48.877 -17.9199 50.4395 -19.9219 Z M 62.6953 -29.1016 C 66.0156 -29.1016 68.75 -31.8848 68.75 -35.2051 C 68.75 -38.5254 66.0156 -41.3086 62.6953 -41.3086 C 59.375 -41.3086 56.5918 -38.5254 56.5918 -35.1562 C 56.5918 -31.7871 59.375 -29.1016 62.6953 -29.1016 Z"/>
  </g>
  <g id="Semibold-S" transform="matrix(1 0 0 1 1981.16 696)">
   <path d="M 97.0703 2.14844 C 98.584 3.85742 101.318 4.00391 103.125 2.05078 C 112.305 -7.71484 117.383 -20.8496 117.383 -35.1074 C 117.383 -49.3164 112.305 -62.5 103.125 -72.2656 C 101.318 -74.1699 98.584 -74.0234 97.0703 -72.3145 C 95.5566 -70.6543 95.8008 -68.3105 97.5098 -66.5039 C 105.273 -58.3008 109.424 -47.2168 109.424 -35.1074 C 109.424 -22.998 105.176 -11.9141 97.5098 -3.71094 C 95.8008 -1.9043 95.5566 0.439453 97.0703 2.14844 Z M 27.1484 2.14844 C 28.6133 0.439453 28.418 -1.9043 26.709 -3.71094 C 19.043 -11.9141 14.7949 -22.998 14.7949 -35.1074 C 14.7949 -47.2168 18.9453 -58.3008 26.709 -66.5039 C 28.418 -68.3105 28.6621 -70.6543 27.1484 -72.3145 C 25.5859 -74.0234 22.9004 -74.1699 21.0938 -72.2656 C 11.8652 -62.5 6.83594 -49.3164 6.83594 -35.1074 C 6.83594 -20.8496 11.8652 -7.71484 21.0938 2.05078 C 22.9004 4.00391 25.6348 3.85742 27.1484 2.14844 Z M 38.623 -8.69141 C 40.0879 -10.4492 39.6484 -12.6465 37.9883 -14.502 C 33.2031 -19.873 30.6152 -27.1484 30.6152 -35.1074 C 30.6152 -43.0176 33.2031 -50.3418 37.9883 -55.6641 C 39.6484 -57.5684 40.0879 -59.7656 38.623 -61.5234 C 37.0605 -63.3789 34.3262 -63.5254 32.2754 -61.2793 C 26.123 -54.6875 22.6562 -45.1172 22.6562 -35.1074 C 22.6562 -25.0488 25.9766 -15.6738 32.2754 -8.88672 C 34.3262 -6.68945 37.0605 -6.83594 38.623 -8.69141 Z M 85.5957 -8.69141 C 87.1582 -6.83594 89.8926 -6.68945 91.9434 -8.88672 C 98.2422 -15.6738 101.562 -25.0488 101.562 -35.1074 C 101.562 -45.1172 98.0957 -54.6875 91.9434 -61.2793 C 89.8926 -63.5254 87.1582 -63.3789 85.5957 -61.5234 C 84.1309 -59.7656 84.5703 -57.5684 86.2305 -55.6641 C 91.0156 -50.3418 93.6035 -43.0176 93.6035 -35.1074 C 93.6035 -27.1484 91.0156 -19.873 86.2305 -14.502 C 84.5703 -12.6465 84.1309 -10.4492 85.5957 -8.69141 Z M 49.8047 -19.7754 C 51.2207 -21.5332 50.6836 -23.584 49.2676 -25.5859 C 47.4609 -28.0273 46.3867 -31.6406 46.3867 -35.1074 C 46.3867 -38.5742 47.4609 -42.1875 49.2676 -44.6777 C 50.6836 -46.6309 51.2207 -48.6816 49.8047 -50.4395 C 48.2422 -52.2949 45.3125 -52.3926 43.457 -50.1953 C 40.2344 -46.2891 38.4277 -40.8691 38.4277 -35.1074 C 38.4277 -29.3457 40.2344 -23.9258 43.457 -20.0195 C 45.3125 -17.8223 48.2422 -17.9199 49.8047 -19.7754 Z M 74.4141 -19.7754 C 75.9766 -17.9199 78.9062 -17.8223 80.7617 -20.0195 C 83.9844 -23.9258 85.791 -29.3457 85.791 -35.1074 C 85.791 -40.8691 83.9844 -46.2891 80.7617 -50.1953 C 78.9062 -52.3926 75.9766 -52.2949 74.4141 -50.4395 C 72.998 -48.6816 73.5352 -46.6309 74.9512 -44.6777 C 76.709 -42.1387 77.832 -38.5742 77.832 -35.1074 C 77.832 -31.6406 76.709 -28.0273 74.9512 -25.5859 C 73.5352 -23.584 72.998 -21.5332 74.4141 -19.7754 Z M 62.1094 -29.1992 C 65.3809 -29.1992 68.1152 -31.8848 68.1152 -35.2051 C 68.1152 -38.4766 65.3809 -41.2109 62.1094 -41.2109 C 58.8867 -41.2109 56.1035 -38.4766 56.1035 -35.1562 C 56.1035 -31.8359 58.8867 -29.1992 62.1094 -29.1992 Z"/>
  </g>
  <g id="Medium-S" transform="matrix(1 0 0 1 1684.89 696)">
   <path d="M 26.9043 2.00195 C 28.3203 0.390625 28.0762 -1.9043 26.416 -3.66211 C 18.7012 -11.8652 14.4531 -22.9492 14.4531 -35.1074 C 14.4531 -47.2656 18.6523 -58.3496 26.416 -66.5527 C 28.0762 -68.3105 28.3203 -70.6055 26.9043 -72.168 C 25.4395 -73.7793 22.9004 -73.9746 21.1426 -72.1191 C 11.9629 -62.3535 6.83594 -49.2676 6.83594 -35.1074 C 6.83594 -20.9473 11.9629 -7.8125 21.1426 1.9043 C 22.9004 3.75977 25.4395 3.61328 26.9043 2.00195 Z M 96.4355 2.00195 C 97.9004 3.61328 100.439 3.75977 102.197 1.9043 C 111.377 -7.8125 116.504 -20.9473 116.504 -35.1074 C 116.504 -49.2676 111.377 -62.3535 102.197 -72.1191 C 100.439 -73.9746 97.9004 -73.7793 96.4355 -72.168 C 95.0195 -70.6055 95.2637 -68.3105 96.9238 -66.5527 C 104.688 -58.3496 108.887 -47.2656 108.887 -35.1074 C 108.887 -22.9492 104.639 -11.8652 96.9238 -3.66211 C 95.2637 -1.9043 95.0195 0.390625 96.4355 2.00195 Z M 38.2324 -8.59375 C 39.6973 -10.3027 39.2578 -12.4023 37.5977 -14.2578 C 32.7637 -19.7754 30.0781 -27.0996 30.0781 -35.1074 C 30.0781 -43.1152 32.7637 -50.4395 37.5977 -55.957 C 39.2578 -57.8125 39.6973 -59.9121 38.2324 -61.6211 C 36.7676 -63.3789 34.1309 -63.4277 32.2266 -61.377 C 26.0254 -54.5898 22.5098 -45.1172 22.5098 -35.1074 C 22.5098 -25.0488 25.9277 -15.7227 32.2266 -8.83789 C 34.1309 -6.73828 36.7676 -6.83594 38.2324 -8.59375 Z M 85.1074 -8.59375 C 86.5723 -6.83594 89.209 -6.73828 91.1133 -8.83789 C 97.4121 -15.7227 100.83 -25.0488 100.83 -35.1074 C 100.83 -45.1172 97.3145 -54.5898 91.1133 -61.377 C 89.209 -63.4277 86.5723 -63.3789 85.1074 -61.6211 C 83.6426 -59.9121 84.082 -57.8125 85.7422 -55.957 C 90.5762 -50.4395 93.2617 -43.1152 93.2617 -35.1074 C 93.2617 -27.0996 90.5762 -19.7754 85.7422 -14.2578 C 84.082 -12.4023 83.6426 -10.3027 85.1074 -8.59375 Z M 49.2676 -19.6289 C 50.6836 -21.3379 50.1465 -23.3398 48.7305 -25.293 C 46.8262 -27.9297 45.752 -31.4941 45.752 -35.1074 C 45.752 -38.7207 46.8262 -42.2852 48.7305 -44.9219 C 50.1465 -46.875 50.6836 -48.877 49.2676 -50.5859 C 47.8027 -52.3438 44.9707 -52.3926 43.2617 -50.293 C 39.9902 -46.2402 38.1348 -40.8203 38.1348 -35.1074 C 38.1348 -29.3945 39.9902 -23.9746 43.2617 -19.9219 C 44.9707 -17.8223 47.8027 -17.8711 49.2676 -19.6289 Z M 74.0723 -19.6289 C 75.5371 -17.8711 78.3691 -17.8223 80.0781 -19.9219 C 83.3496 -23.9746 85.2051 -29.3945 85.2051 -35.1074 C 85.2051 -40.8203 83.3496 -46.2402 80.0781 -50.293 C 78.3691 -52.3926 75.5371 -52.3438 74.0723 -50.5859 C 72.6562 -48.877 73.1934 -46.875 74.6094 -44.9219 C 76.5137 -42.2852 77.5879 -38.7207 77.5879 -35.1074 C 77.5879 -31.4941 76.5137 -27.9297 74.6094 -25.293 C 73.1934 -23.3398 72.6562 -21.3379 74.0723 -19.6289 Z M 61.6699 -29.1992 C 64.8926 -29.1992 67.627 -31.8848 67.627 -35.1562 C 67.627 -38.4277 64.8926 -41.1133 61.6699 -41.1133 C 58.4961 -41.1133 55.7129 -38.4277 55.7129 -35.1562 C 55.7129 -31.8848 58.4961 -29.1992 61.6699 -29.1992 Z"/>
  </g>
  <g id="Regular-S" transform="matrix(1 0 0 1 1388.74 696)">
   <path d="M 26.5625 1.75781 C 27.9297 0.292969 27.6367 -1.9043 26.0742 -3.56445 C 18.2617 -11.8164 13.9648 -22.9004 13.9648 -35.1074 C 13.9648 -47.3145 18.2617 -58.3984 26.0742 -66.6504 C 27.6367 -68.3105 27.9297 -70.5078 26.5625 -71.9727 C 25.2441 -73.4863 22.8516 -73.6816 21.1914 -71.9238 C 12.0117 -62.2559 6.83594 -49.2188 6.83594 -35.1074 C 6.83594 -20.9961 12.0117 -7.95898 21.1914 1.70898 C 22.8516 3.4668 25.2441 3.27148 26.5625 1.75781 Z M 95.6055 1.75781 C 96.9727 3.27148 99.3164 3.4668 101.025 1.70898 C 110.156 -7.95898 115.381 -20.9961 115.381 -35.1074 C 115.381 -49.2188 110.156 -62.2559 101.025 -71.9238 C 99.3164 -73.6816 96.9727 -73.4863 95.6055 -71.9727 C 94.2383 -70.5078 94.5312 -68.3105 96.1426 -66.6504 C 103.955 -58.3984 108.252 -47.3145 108.252 -35.1074 C 108.252 -22.9004 103.955 -11.8164 96.1426 -3.56445 C 94.5312 -1.9043 94.2383 0.292969 95.6055 1.75781 Z M 37.793 -8.49609 C 39.1602 -10.1074 38.7695 -12.1094 37.1582 -13.916 C 32.1777 -19.6289 29.4434 -27.002 29.4434 -35.1074 C 29.4434 -43.2129 32.1777 -50.5859 37.1582 -56.2988 C 38.7695 -58.1055 39.1602 -60.1074 37.793 -61.7188 C 36.377 -63.3789 33.9355 -63.3789 32.2266 -61.4746 C 25.8301 -54.4434 22.3145 -45.1172 22.3145 -35.1074 C 22.3145 -25.0977 25.8301 -15.7715 32.2266 -8.74023 C 33.9355 -6.83594 36.377 -6.83594 37.793 -8.49609 Z M 84.4238 -8.49609 C 85.8398 -6.83594 88.2812 -6.83594 89.9902 -8.74023 C 96.3379 -15.7715 99.9023 -25.0977 99.9023 -35.1074 C 99.9023 -45.1172 96.3379 -54.4434 89.9902 -61.4746 C 88.2812 -63.3789 85.8398 -63.3789 84.4238 -61.7188 C 83.0078 -60.1074 83.4473 -58.1055 85.0586 -56.2988 C 90.0391 -50.5859 92.7734 -43.2129 92.7734 -35.1074 C 92.7734 -27.002 90.0391 -19.6289 85.0586 -13.916 C 83.4473 -12.1094 83.0078 -10.1074 84.4238 -8.49609 Z M 48.6328 -19.4824 C 50.0488 -21.0938 49.4141 -22.998 48.0469 -24.9512 C 45.9961 -27.7832 44.9219 -31.2988 44.9219 -35.1074 C 44.9219 -38.916 45.9961 -42.4316 48.0469 -45.2637 C 49.4141 -47.2168 50.0488 -49.1211 48.6328 -50.7324 C 47.168 -52.3438 44.5312 -52.3926 42.9688 -50.3906 C 39.6973 -46.1426 37.793 -40.8203 37.793 -35.1074 C 37.793 -29.3945 39.6973 -24.0723 42.9688 -19.8242 C 44.5312 -17.8223 47.168 -17.8711 48.6328 -19.4824 Z M 73.584 -19.4824 C 75.0488 -17.8711 77.6855 -17.8223 79.1992 -19.8242 C 82.5195 -24.0723 84.4238 -29.3945 84.4238 -35.1074 C 84.4238 -40.8203 82.5195 -46.1426 79.1992 -50.3906 C 77.6855 -52.3926 75.0488 -52.3438 73.584 -50.7324 C 72.168 -49.1211 72.8027 -47.2168 74.1699 -45.2637 C 76.2207 -42.4316 77.2949 -38.916 77.2949 -35.1074 C 77.2949 -31.2988 76.2207 -27.7832 74.1699 -24.9512 C 72.8027 -22.998 72.168 -21.0938 73.584 -19.4824 Z M 61.084 -29.2969 C 64.2578 -29.2969 66.9922 -31.9336 66.9922 -35.1562 C 66.9922 -38.3789 64.2578 -41.0156 61.084 -41.0156 C 57.959 -41.0156 55.2246 -38.3789 55.2246 -35.1562 C 55.2246 -31.9336 57.959 -29.2969 61.084 -29.2969 Z"/>
  </g>
  <g id="Light-S" transform="matrix(1 0 0 1 1093.88 696)">
   <path d="M 93.2129 0.78125 C 94.2383 1.95312 96.0449 2.05078 97.3633 0.732422 C 106.396 -8.69141 111.67 -21.2891 111.67 -35.1074 C 111.67 -48.9258 106.396 -61.5234 97.3633 -70.9473 C 96.0449 -72.2656 94.2383 -72.168 93.2129 -70.9961 C 92.1875 -69.873 92.3828 -68.1641 93.6035 -66.8945 C 101.611 -58.5938 106.201 -47.4609 106.201 -35.1074 C 106.201 -22.7539 101.611 -11.6211 93.6035 -3.32031 C 92.3828 -2.05078 92.1875 -0.341797 93.2129 0.78125 Z M 25.293 0.78125 C 26.3672 -0.341797 26.123 -2.05078 24.9023 -3.32031 C 16.8945 -11.6211 12.3047 -22.7539 12.3047 -35.1074 C 12.3047 -47.4609 16.8945 -58.5938 24.9023 -66.8945 C 26.123 -68.1641 26.3672 -69.873 25.293 -70.9961 C 24.2676 -72.168 22.4609 -72.2656 21.1426 -70.9473 C 12.1094 -61.5234 6.83594 -48.9258 6.83594 -35.1074 C 6.83594 -21.2891 12.1094 -8.69141 21.1426 0.732422 C 22.4609 2.05078 24.2676 1.95312 25.293 0.78125 Z M 36.2793 -9.32617 C 37.3535 -10.5469 37.0117 -12.1094 35.791 -13.4766 C 30.5176 -19.1895 27.5391 -26.7578 27.5391 -35.1074 C 27.5391 -43.457 30.5176 -51.0254 35.791 -56.7383 C 37.0117 -58.1055 37.3535 -59.668 36.2793 -60.8887 C 35.1562 -62.1582 33.3008 -62.1582 31.9824 -60.7422 C 25.6836 -53.9551 22.0703 -44.9219 22.0703 -35.1074 C 22.0703 -25.293 25.6836 -16.2598 31.9824 -9.47266 C 33.3008 -8.05664 35.1562 -8.05664 36.2793 -9.32617 Z M 82.2266 -9.32617 C 83.3496 -8.05664 85.2051 -8.05664 86.5234 -9.47266 C 92.8223 -16.2598 96.4355 -25.293 96.4355 -35.1074 C 96.4355 -44.9219 92.8223 -53.9551 86.5234 -60.7422 C 85.2051 -62.1582 83.3496 -62.1582 82.2266 -60.8887 C 81.2012 -59.668 81.4941 -58.1055 82.7148 -56.7383 C 87.9883 -51.0254 90.9668 -43.457 90.9668 -35.1074 C 90.9668 -26.7578 87.9883 -19.1895 82.7148 -13.4766 C 81.4941 -12.1094 81.2012 -10.5469 82.2266 -9.32617 Z M 71.6309 -20.1172 C 72.7539 -18.8477 74.7559 -18.8477 75.9766 -20.3613 C 79.2969 -24.3652 81.25 -29.541 81.25 -35.1074 C 81.25 -40.6738 79.2969 -45.8496 75.9766 -49.8535 C 74.7559 -51.3672 72.7539 -51.3672 71.6309 -50.0977 C 70.5566 -48.877 71.0449 -47.3633 72.0703 -45.9473 C 74.4141 -42.9199 75.7812 -39.209 75.7812 -35.1074 C 75.7812 -31.0059 74.5605 -27.1484 72.0703 -24.2676 C 70.9961 -22.8516 70.5566 -21.3379 71.6309 -20.1172 Z M 46.875 -20.1172 C 47.9492 -21.3379 47.5098 -22.8516 46.4355 -24.2676 C 43.9453 -27.1484 42.7246 -31.0059 42.7246 -35.1074 C 42.7246 -39.209 43.9453 -43.0664 46.4355 -45.9473 C 47.5098 -47.3633 47.9492 -48.877 46.875 -50.0977 C 45.752 -51.3672 43.75 -51.3672 42.5293 -49.8535 C 39.209 -45.8496 37.2559 -40.6738 37.2559 -35.1074 C 37.2559 -29.541 39.209 -24.3652 42.5293 -20.3613 C 43.75 -18.8477 45.752 -18.8477 46.875 -20.1172 Z M 59.2773 -29.7363 C 62.1582 -29.7363 64.6973 -32.2266 64.6973 -35.1562 C 64.6973 -38.1348 62.1582 -40.5762 59.2773 -40.5762 C 56.3477 -40.5762 53.8086 -38.1348 53.8086 -35.1562 C 53.8086 -32.2266 56.3477 -29.7363 59.2773 -29.7363 Z"/>
  </g>
  <g id="Thin-S" transform="matrix(1 0 0 1 799.611 696)">
   <path d="M 23.6328 -0.488281 C 24.2188 -1.17188 24.0723 -2.19727 23.3887 -2.97852 C 15.0879 -11.377 10.1562 -22.5098 10.1562 -35.1074 C 10.1562 -47.7051 15.0879 -58.8379 23.3887 -67.2363 C 24.0723 -68.0176 24.2188 -69.043 23.6328 -69.7266 C 22.998 -70.4102 21.875 -70.459 21.1426 -69.6777 C 12.207 -60.6445 6.83594 -48.584 6.83594 -35.1074 C 6.83594 -21.6309 12.207 -9.57031 21.1426 -0.537109 C 21.875 0.244141 22.998 0.195312 23.6328 -0.488281 Z M 89.9902 -0.488281 C 90.625 0.195312 91.748 0.244141 92.5293 -0.537109 C 101.416 -9.57031 106.787 -21.6309 106.787 -35.1074 C 106.787 -48.584 101.416 -60.6445 92.5293 -69.6777 C 91.748 -70.459 90.625 -70.4102 89.9902 -69.7266 C 89.4043 -69.043 89.5508 -68.0176 90.2344 -67.2363 C 98.5352 -58.8379 103.467 -47.7051 103.467 -35.1074 C 103.467 -22.5098 98.5352 -11.377 90.2344 -2.97852 C 89.5508 -2.19727 89.4043 -1.17188 89.9902 -0.488281 Z M 79.3457 -10.4004 C 80.0293 -9.61914 81.1523 -9.66797 81.9336 -10.498 C 88.1836 -16.8945 91.9434 -25.5371 91.9434 -35.1074 C 91.9434 -44.6777 88.1836 -53.3203 81.9336 -59.7168 C 81.1523 -60.5469 80.0293 -60.5957 79.3457 -59.8145 C 78.7598 -59.1309 78.9551 -58.1055 79.6875 -57.3242 C 85.3027 -51.5137 88.623 -43.7988 88.623 -35.1074 C 88.623 -26.416 85.3027 -18.7012 79.6875 -12.8906 C 78.9551 -12.1094 78.7598 -11.084 79.3457 -10.4004 Z M 34.2773 -10.4004 C 34.9121 -11.084 34.668 -12.1094 33.9844 -12.8906 C 28.3203 -18.7012 25.0488 -26.416 25.0488 -35.1074 C 25.0488 -43.7988 28.3203 -51.5137 33.9844 -57.3242 C 34.668 -58.1055 34.9121 -59.1309 34.2773 -59.8145 C 33.5938 -60.5957 32.4707 -60.5469 31.6895 -59.7168 C 25.4395 -53.3203 21.7285 -44.6777 21.7285 -35.1074 C 21.7285 -25.5371 25.4395 -16.8945 31.6895 -10.498 C 32.4707 -9.66797 33.5938 -9.61914 34.2773 -10.4004 Z M 69.043 -20.9473 C 69.7266 -20.2148 70.9473 -20.2148 71.6797 -21.0938 C 75.0977 -24.8047 77.0996 -29.7363 77.0996 -35.1074 C 77.0996 -40.4785 75.0977 -45.4102 71.6797 -49.1211 C 70.9473 -50 69.7266 -50 69.043 -49.2676 C 68.457 -48.5352 68.7012 -47.6074 69.3359 -46.7773 C 72.0703 -43.5547 73.7793 -39.6484 73.7793 -35.1074 C 73.7793 -30.5664 72.3633 -26.3672 69.3359 -23.4375 C 68.6523 -22.6562 68.457 -21.6797 69.043 -20.9473 Z M 44.5801 -20.9473 C 45.2148 -21.6797 44.9707 -22.6562 44.2871 -23.4375 C 41.3086 -26.3672 39.8438 -30.5664 39.8438 -35.1074 C 39.8438 -39.6484 41.3086 -43.8477 44.2871 -46.7773 C 44.9707 -47.5586 45.2148 -48.5352 44.5801 -49.2676 C 43.8965 -50 42.7246 -50 41.9922 -49.1211 C 38.5254 -45.4102 36.5234 -40.4785 36.5234 -35.1074 C 36.5234 -29.7363 38.5254 -24.8047 41.9922 -21.0938 C 42.7246 -20.2148 43.8965 -20.2148 44.5801 -20.9473 Z M 56.8359 -30.3711 C 59.4238 -30.3711 61.6211 -32.5684 61.6211 -35.2051 C 61.6211 -37.793 59.4238 -40.0391 56.8359 -40.0391 C 54.248 -40.0391 52.002 -37.793 52.002 -35.2051 C 52.002 -32.5684 54.248 -30.3711 56.8359 -30.3711 Z"/>
  </g>
  <g id="Ultralight-S" transform="matrix(1 0 0 1 504.145 696)">
   <path d="M 88.3789 -1.17188 C 88.7695 -0.732422 89.502 -0.732422 90.0391 -1.2207 C 98.8281 -10.0586 104.297 -21.8262 104.297 -35.1074 C 104.297 -48.3887 98.8281 -60.1562 90.0391 -68.9941 C 89.502 -69.4824 88.7695 -69.4824 88.3789 -69.043 C 87.9883 -68.6035 88.0859 -67.8711 88.5254 -67.4316 C 96.9238 -58.9844 102.1 -47.8027 102.1 -35.1074 C 102.1 -22.4121 96.9238 -11.2305 88.5254 -2.7832 C 88.0859 -2.34375 87.9883 -1.61133 88.3789 -1.17188 Z M 22.7539 -1.17188 C 23.1445 -1.61133 23.0469 -2.34375 22.6074 -2.7832 C 14.1602 -11.2305 9.0332 -22.4121 9.0332 -35.1074 C 9.0332 -47.8027 14.1602 -58.9844 22.6074 -67.4316 C 23.0469 -67.8711 23.1445 -68.6035 22.7539 -69.043 C 22.3633 -69.4824 21.582 -69.4824 21.0938 -68.9941 C 12.3047 -60.1562 6.83594 -48.3887 6.83594 -35.1074 C 6.83594 -21.8262 12.3047 -10.0586 21.0938 -1.2207 C 21.582 -0.732422 22.3633 -0.732422 22.7539 -1.17188 Z M 77.8809 -10.9375 C 78.3203 -10.4492 79.1016 -10.498 79.5898 -11.0352 C 85.791 -17.2363 89.5996 -25.6836 89.5996 -35.1074 C 89.5996 -44.5312 85.791 -52.9785 79.5898 -59.1797 C 79.1016 -59.7168 78.3203 -59.7656 77.8809 -59.2773 C 77.4902 -58.7891 77.6367 -58.1055 78.0762 -57.666 C 83.8867 -51.8066 87.4023 -43.9453 87.4023 -35.1074 C 87.4023 -26.2695 83.8867 -18.4082 78.0762 -12.5488 C 77.6367 -12.1094 77.4902 -11.4258 77.8809 -10.9375 Z M 33.252 -10.9375 C 33.6426 -11.4258 33.4961 -12.1094 33.0078 -12.5488 C 27.1973 -18.4082 23.7305 -26.2695 23.7305 -35.1074 C 23.7305 -43.9453 27.1973 -51.8066 33.0078 -57.666 C 33.4961 -58.1055 33.6426 -58.7891 33.252 -59.2773 C 32.8125 -59.7656 32.0312 -59.7168 31.543 -59.1797 C 25.3418 -52.9785 21.5332 -44.5312 21.5332 -35.1074 C 21.5332 -25.6836 25.3418 -17.2363 31.543 -11.0352 C 32.0312 -10.498 32.8125 -10.4492 33.252 -10.9375 Z M 67.7246 -21.3867 C 68.1641 -20.8984 68.9453 -20.9473 69.4336 -21.4355 C 72.9492 -25 74.9512 -29.834 74.9512 -35.1074 C 74.9512 -40.3809 72.9492 -45.2148 69.4336 -48.7793 C 68.9453 -49.2676 68.1641 -49.3164 67.7246 -48.8281 C 67.334 -48.3887 67.5293 -47.7051 67.9688 -47.2168 C 70.8496 -43.8965 72.7539 -39.8438 72.7539 -35.1074 C 72.7539 -30.3711 71.1914 -25.9277 67.9688 -22.998 C 67.4805 -22.5586 67.334 -21.8262 67.7246 -21.3867 Z M 43.4082 -21.3867 C 43.7988 -21.8262 43.6523 -22.5586 43.1641 -22.998 C 39.8926 -25.9277 38.3789 -30.3711 38.3789 -35.1074 C 38.3789 -39.8438 39.8926 -44.2871 43.1641 -47.2168 C 43.6523 -47.6562 43.7988 -48.3887 43.4082 -48.8281 C 42.9199 -49.3164 42.1875 -49.2676 41.6504 -48.7793 C 38.1836 -45.2148 36.1816 -40.3809 36.1816 -35.1074 C 36.1816 -29.834 38.1836 -25 41.6504 -21.4355 C 42.1875 -20.9473 42.9199 -20.8984 43.4082 -21.3867 Z M 55.5664 -30.7129 C 58.0078 -30.7129 60.0586 -32.7637 60.0586 -35.2051 C 60.0586 -37.6465 58.0078 -39.6973 55.5664 -39.6973 C 53.125 -39.6973 51.0254 -37.6465 51.0254 -35.2051 C 51.0254 -32.7637 53.125 -30.7129 55.5664 -30.7129 Z"/>
  </g>
 </g>
</svg>
