<?xml version="1.0" encoding="UTF-8"?>
<!--Generator: Apple Native CoreSVG 123-->
<!DOCTYPE svg
PUBLIC "-//W3C//DTD SVG 1.1//EN"
       "http://www.w3.org/Graphics/SVG/1.1/DTD/svg11.dtd">
<svg version="1.1" xmlns="http://www.w3.org/2000/svg" xmlns:xlink="http://www.w3.org/1999/xlink" width="3300" height="2200">
 <!--glyph: "uni1004E5.medium", point size: 100.000000, font version: "Version 15.0d7e11", template writer version: "5"-->
 <g id="Notes">
  <rect height="2200" id="artboard" style="fill:white;opacity:1" width="3300" x="0" y="0"/>
  <line id="" style="fill:none;stroke:black;opacity:1;stroke-width:0.5;" x1="263" x2="3036" y1="292" y2="292"/>
  <text style="stroke:none;fill:black;font-family:-apple-system,&quot;SF Pro Display&quot;,&quot;SF Pro Text&quot;,Helvetica,sans-serif;font-weight:bold;" transform="matrix(1 0 0 1 263 322)">Weight/Scale Variations</text>
  <text style="stroke:none;fill:black;font-family:-apple-system,&quot;SF Pro Display&quot;,&quot;SF Pro Text&quot;,Helvetica,sans-serif;text-anchor:middle;" transform="matrix(1 0 0 1 559.711 322)">Ultralight</text>
  <text style="stroke:none;fill:black;font-family:-apple-system,&quot;SF Pro Display&quot;,&quot;SF Pro Text&quot;,Helvetica,sans-serif;text-anchor:middle;" transform="matrix(1 0 0 1 856.422 322)">Thin</text>
  <text style="stroke:none;fill:black;font-family:-apple-system,&quot;SF Pro Display&quot;,&quot;SF Pro Text&quot;,Helvetica,sans-serif;text-anchor:middle;" transform="matrix(1 0 0 1 1153.13 322)">Light</text>
  <text style="stroke:none;fill:black;font-family:-apple-system,&quot;SF Pro Display&quot;,&quot;SF Pro Text&quot;,Helvetica,sans-serif;text-anchor:middle;" transform="matrix(1 0 0 1 1449.84 322)">Regular</text>
  <text style="stroke:none;fill:black;font-family:-apple-system,&quot;SF Pro Display&quot;,&quot;SF Pro Text&quot;,Helvetica,sans-serif;text-anchor:middle;" transform="matrix(1 0 0 1 1746.56 322)">Medium</text>
  <text style="stroke:none;fill:black;font-family:-apple-system,&quot;SF Pro Display&quot;,&quot;SF Pro Text&quot;,Helvetica,sans-serif;text-anchor:middle;" transform="matrix(1 0 0 1 2043.27 322)">Semibold</text>
  <text style="stroke:none;fill:black;font-family:-apple-system,&quot;SF Pro Display&quot;,&quot;SF Pro Text&quot;,Helvetica,sans-serif;text-anchor:middle;" transform="matrix(1 0 0 1 2339.98 322)">Bold</text>
  <text style="stroke:none;fill:black;font-family:-apple-system,&quot;SF Pro Display&quot;,&quot;SF Pro Text&quot;,Helvetica,sans-serif;text-anchor:middle;" transform="matrix(1 0 0 1 2636.69 322)">Heavy</text>
  <text style="stroke:none;fill:black;font-family:-apple-system,&quot;SF Pro Display&quot;,&quot;SF Pro Text&quot;,Helvetica,sans-serif;text-anchor:middle;" transform="matrix(1 0 0 1 2933.4 322)">Black</text>
  <line id="" style="fill:none;stroke:black;opacity:1;stroke-width:0.5;" x1="263" x2="3036" y1="1903" y2="1903"/>
  <g id="" transform="matrix(1 0 0 1 263 1933)">
   <path d="M 9.24805 0.830078 C 13.5547 0.830078 17.1387 -2.74414 17.1387 -7.05078 C 17.1387 -11.3574 13.5449 -14.9316 9.23828 -14.9316 C 4.94141 -14.9316 1.36719 -11.3574 1.36719 -7.05078 C 1.36719 -2.74414 4.95117 0.830078 9.24805 0.830078 Z M 9.24805 -0.654297 C 5.70312 -0.654297 2.87109 -3.49609 2.87109 -7.05078 C 2.87109 -10.6055 5.69336 -13.4473 9.23828 -13.4473 C 12.793 -13.4473 15.6348 -10.6055 15.6445 -7.05078 C 15.6543 -3.49609 12.8027 -0.654297 9.24805 -0.654297 Z M 9.22852 -3.42773 C 9.69727 -3.42773 9.9707 -3.74023 9.9707 -4.25781 L 9.9707 -6.31836 L 12.1973 -6.31836 C 12.6953 -6.31836 13.0371 -6.57227 13.0371 -7.04102 C 13.0371 -7.51953 12.7148 -7.7832 12.1973 -7.7832 L 9.9707 -7.7832 L 9.9707 -10.0098 C 9.9707 -10.5273 9.69727 -10.8496 9.22852 -10.8496 C 8.75977 -10.8496 8.50586 -10.5078 8.50586 -10.0098 L 8.50586 -7.7832 L 6.29883 -7.7832 C 5.78125 -7.7832 5.44922 -7.51953 5.44922 -7.04102 C 5.44922 -6.57227 5.80078 -6.31836 6.29883 -6.31836 L 8.50586 -6.31836 L 8.50586 -4.25781 C 8.50586 -3.75977 8.75977 -3.42773 9.22852 -3.42773 Z"/>
  </g>
  <g id="" transform="matrix(1 0 0 1 281.506 1933)">
   <path d="M 11.709 2.91016 C 17.1582 2.91016 21.6699 -1.60156 21.6699 -7.05078 C 21.6699 -12.4902 17.1484 -17.0117 11.6992 -17.0117 C 6.25977 -17.0117 1.74805 -12.4902 1.74805 -7.05078 C 1.74805 -1.60156 6.26953 2.91016 11.709 2.91016 Z M 11.709 1.25 C 7.09961 1.25 3.41797 -2.44141 3.41797 -7.05078 C 3.41797 -11.6504 7.08984 -15.3516 11.6992 -15.3516 C 16.3086 -15.3516 20 -11.6504 20.0098 -7.05078 C 20.0195 -2.44141 16.3184 1.25 11.709 1.25 Z M 11.6895 -2.41211 C 12.207 -2.41211 12.5195 -2.77344 12.5195 -3.33984 L 12.5195 -6.23047 L 15.5762 -6.23047 C 16.123 -6.23047 16.5039 -6.51367 16.5039 -7.03125 C 16.5039 -7.55859 16.1426 -7.86133 15.5762 -7.86133 L 12.5195 -7.86133 L 12.5195 -10.9277 C 12.5195 -11.5039 12.207 -11.8555 11.6895 -11.8555 C 11.1719 -11.8555 10.8789 -11.4844 10.8789 -10.9277 L 10.8789 -7.86133 L 7.83203 -7.86133 C 7.26562 -7.86133 6.89453 -7.55859 6.89453 -7.03125 C 6.89453 -6.51367 7.28516 -6.23047 7.83203 -6.23047 L 10.8789 -6.23047 L 10.8789 -3.33984 C 10.8789 -2.79297 11.1719 -2.41211 11.6895 -2.41211 Z"/>
  </g>
  <g id="" transform="matrix(1 0 0 1 304.924 1933)">
   <path d="M 14.9707 5.67383 C 21.9336 5.67383 27.6953 -0.078125 27.6953 -7.04102 C 27.6953 -14.0039 21.9238 -19.7559 14.9609 -19.7559 C 8.00781 -19.7559 2.25586 -14.0039 2.25586 -7.04102 C 2.25586 -0.078125 8.01758 5.67383 14.9707 5.67383 Z M 14.9707 3.85742 C 8.93555 3.85742 4.08203 -1.00586 4.08203 -7.04102 C 4.08203 -13.0762 8.92578 -17.9395 14.9609 -17.9395 C 21.0059 -17.9395 25.8594 -13.0762 25.8691 -7.04102 C 25.8789 -1.00586 21.0156 3.85742 14.9707 3.85742 Z M 14.9512 -1.06445 C 15.5176 -1.06445 15.8691 -1.45508 15.8691 -2.06055 L 15.8691 -6.13281 L 20.1074 -6.13281 C 20.6934 -6.13281 21.1133 -6.46484 21.1133 -7.02148 C 21.1133 -7.59766 20.7227 -7.93945 20.1074 -7.93945 L 15.8691 -7.93945 L 15.8691 -12.1875 C 15.8691 -12.8027 15.5176 -13.1934 14.9512 -13.1934 C 14.3848 -13.1934 14.0625 -12.7832 14.0625 -12.1875 L 14.0625 -7.93945 L 9.83398 -7.93945 C 9.21875 -7.93945 8.80859 -7.59766 8.80859 -7.02148 C 8.80859 -6.46484 9.23828 -6.13281 9.83398 -6.13281 L 14.0625 -6.13281 L 14.0625 -2.06055 C 14.0625 -1.47461 14.3848 -1.06445 14.9512 -1.06445 Z"/>
  </g>
  <text style="stroke:none;fill:black;font-family:-apple-system,&quot;SF Pro Display&quot;,&quot;SF Pro Text&quot;,Helvetica,sans-serif;font-weight:bold;" transform="matrix(1 0 0 1 263 1953)">Design Variations</text>
  <text style="stroke:none;fill:black;font-family:-apple-system,&quot;SF Pro Display&quot;,&quot;SF Pro Text&quot;,Helvetica,sans-serif;" transform="matrix(1 0 0 1 263 1971)">Symbols are supported in up to nine weights and three scales.</text>
  <text style="stroke:none;fill:black;font-family:-apple-system,&quot;SF Pro Display&quot;,&quot;SF Pro Text&quot;,Helvetica,sans-serif;" transform="matrix(1 0 0 1 263 1989)">For optimal layout with text and other symbols, vertically align</text>
  <text style="stroke:none;fill:black;font-family:-apple-system,&quot;SF Pro Display&quot;,&quot;SF Pro Text&quot;,Helvetica,sans-serif;" transform="matrix(1 0 0 1 263 2007)">symbols with the adjacent text.</text>
  <rect height="14" id="" style="fill:#00AEEF;stroke:none;opacity:0.4;" width="3" x="776" y="1919"/>
  <g id="" transform="matrix(1 0 0 1 779 1933)">
   <path d="M 10.5273 0 L 12.373 0 L 7.17773 -14.0918 L 5.43945 -14.0918 L 0.244141 0 L 2.08984 0 L 3.50586 -4.0332 L 9.11133 -4.0332 Z M 6.2793 -11.9531 L 6.33789 -11.9531 L 8.59375 -5.52734 L 4.02344 -5.52734 Z"/>
  </g>
  <rect height="14" id="" style="fill:#00AEEF;stroke:none;opacity:0.4;" width="3" x="791.617" y="1919"/>
  <text style="stroke:none;fill:black;font-family:-apple-system,&quot;SF Pro Display&quot;,&quot;SF Pro Text&quot;,Helvetica,sans-serif;font-weight:bold;" transform="matrix(1 0 0 1 776 1953)">Margins</text>
  <text style="stroke:none;fill:black;font-family:-apple-system,&quot;SF Pro Display&quot;,&quot;SF Pro Text&quot;,Helvetica,sans-serif;" transform="matrix(1 0 0 1 776 1971)">Leading and trailing margins on the left and right side of each symbol</text>
  <text style="stroke:none;fill:black;font-family:-apple-system,&quot;SF Pro Display&quot;,&quot;SF Pro Text&quot;,Helvetica,sans-serif;" transform="matrix(1 0 0 1 776 1989)">can be adjusted by modifying the width of the blue rectangles.</text>
  <text style="stroke:none;fill:black;font-family:-apple-system,&quot;SF Pro Display&quot;,&quot;SF Pro Text&quot;,Helvetica,sans-serif;" transform="matrix(1 0 0 1 776 2007)">Modifications are automatically applied proportionally to all</text>
  <text style="stroke:none;fill:black;font-family:-apple-system,&quot;SF Pro Display&quot;,&quot;SF Pro Text&quot;,Helvetica,sans-serif;" transform="matrix(1 0 0 1 776 2025)">scales and weights.</text>
  <g id="" transform="matrix(1 0 0 1 1289 1933)">
   <path d="M 2.83203 3.11523 L 4.375 4.6582 C 5.22461 5.48828 6.19141 5.41992 7.06055 4.46289 L 17.2754 -6.66016 C 17.7051 -6.36719 18.0957 -6.37695 18.5645 -6.47461 L 19.6094 -6.68945 L 20.3027 -5.99609 L 20.2539 -5.47852 C 20.1855 -4.95117 20.3516 -4.53125 20.8496 -4.0332 L 21.6602 -3.22266 C 22.168 -2.71484 22.8223 -2.68555 23.3008 -3.16406 L 26.5527 -6.41602 C 27.0312 -6.89453 27.0117 -7.54883 26.5039 -8.05664 L 25.6836 -8.87695 C 25.1855 -9.375 24.7754 -9.55078 24.2383 -9.47266 L 23.7109 -9.41406 L 23.0566 -10.0781 L 23.3398 -11.2207 C 23.4863 -11.7871 23.3398 -12.2559 22.7148 -12.8613 L 20.3027 -15.2539 C 16.7578 -18.7793 12.2266 -18.6719 9.11133 -15.5371 C 8.69141 -15.1074 8.64258 -14.5215 8.91602 -14.0918 C 9.15039 -13.7207 9.62891 -13.4961 10.2734 -13.6621 C 11.7871 -14.043 13.3008 -13.9258 14.7852 -12.9199 L 14.1602 -11.3379 C 13.9258 -10.752 13.9453 -10.2734 14.1797 -9.83398 L 3.01758 0.439453 C 2.08008 1.30859 1.97266 2.25586 2.83203 3.11523 Z M 10.6738 -15.1465 C 13.3398 -17.1387 16.6504 -16.8262 19.0527 -14.4141 L 21.6797 -11.8066 C 21.9141 -11.5723 21.9434 -11.3867 21.8848 -11.0938 L 21.5039 -9.53125 L 23.0762 -7.95898 L 24.043 -8.04688 C 24.3262 -8.07617 24.4141 -8.05664 24.6387 -7.83203 L 25.2637 -7.20703 L 22.5098 -4.46289 L 21.8848 -5.07812 C 21.6602 -5.30273 21.6406 -5.40039 21.6699 -5.68359 L 21.7578 -6.64062 L 20.1953 -8.20312 L 18.5742 -7.89062 C 18.291 -7.83203 18.1445 -7.83203 17.9102 -8.07617 L 15.7324 -10.2539 C 15.5078 -10.4883 15.4785 -10.625 15.6055 -10.9473 L 16.5527 -13.2227 C 14.9512 -14.7559 12.8418 -15.6055 10.8008 -14.9512 C 10.7129 -14.9219 10.6445 -14.9414 10.6152 -14.9805 C 10.5859 -15.0293 10.5859 -15.0781 10.6738 -15.1465 Z M 4.10156 2.41211 C 3.61328 1.91406 3.78906 1.61133 4.12109 1.30859 L 15.0781 -8.80859 L 16.3086 -7.57812 L 6.15234 3.34961 C 5.84961 3.68164 5.46875 3.7793 5.06836 3.37891 Z"/>
  </g>
  <text style="stroke:none;fill:black;font-family:-apple-system,&quot;SF Pro Display&quot;,&quot;SF Pro Text&quot;,Helvetica,sans-serif;font-weight:bold;" transform="matrix(1 0 0 1 1289 1953)">Exporting</text>
  <text style="stroke:none;fill:black;font-family:-apple-system,&quot;SF Pro Display&quot;,&quot;SF Pro Text&quot;,Helvetica,sans-serif;" transform="matrix(1 0 0 1 1289 1971)">Symbols should be outlined when exporting to ensure the</text>
  <text style="stroke:none;fill:black;font-family:-apple-system,&quot;SF Pro Display&quot;,&quot;SF Pro Text&quot;,Helvetica,sans-serif;" transform="matrix(1 0 0 1 1289 1989)">design is preserved when submitting to Xcode.</text>
  <text id="template-version" style="stroke:none;fill:black;font-family:-apple-system,&quot;SF Pro Display&quot;,&quot;SF Pro Text&quot;,Helvetica,sans-serif;text-anchor:end;" transform="matrix(1 0 0 1 3036 1933)">Template v.1.0</text>
  <text style="stroke:none;fill:black;font-family:-apple-system,&quot;SF Pro Display&quot;,&quot;SF Pro Text&quot;,Helvetica,sans-serif;text-anchor:end;" transform="matrix(1 0 0 1 3036 1951)">Generated from person.2.square.stack</text>
  <text style="stroke:none;fill:black;font-family:-apple-system,&quot;SF Pro Display&quot;,&quot;SF Pro Text&quot;,Helvetica,sans-serif;text-anchor:end;" transform="matrix(1 0 0 1 3036 1969)">Typeset at 100 points</text>
  <text style="stroke:none;fill:black;font-family:-apple-system,&quot;SF Pro Display&quot;,&quot;SF Pro Text&quot;,Helvetica,sans-serif;" transform="matrix(1 0 0 1 263 726)">Small</text>
  <text style="stroke:none;fill:black;font-family:-apple-system,&quot;SF Pro Display&quot;,&quot;SF Pro Text&quot;,Helvetica,sans-serif;" transform="matrix(1 0 0 1 263 1156)">Medium</text>
  <text style="stroke:none;fill:black;font-family:-apple-system,&quot;SF Pro Display&quot;,&quot;SF Pro Text&quot;,Helvetica,sans-serif;" transform="matrix(1 0 0 1 263 1586)">Large</text>
 </g>
 <g id="Guides">
  <g id="H-reference" style="fill:#27AAE1;stroke:none;" transform="matrix(1 0 0 1 339 696)">
   <path d="M 54.9316 0 L 57.666 0 L 30.5664 -70.459 L 28.0762 -70.459 L 0.976562 0 L 3.66211 0 L 12.9395 -24.4629 L 45.7031 -24.4629 Z M 29.1992 -67.0898 L 29.4434 -67.0898 L 44.8242 -26.709 L 13.8184 -26.709 Z"/>
  </g>
  <line id="Baseline-S" style="fill:none;stroke:#27AAE1;opacity:1;stroke-width:0.577;" x1="263" x2="3036" y1="696" y2="696"/>
  <line id="Capline-S" style="fill:none;stroke:#27AAE1;opacity:1;stroke-width:0.577;" x1="263" x2="3036" y1="625.541" y2="625.541"/>
  <g id="H-reference" style="fill:#27AAE1;stroke:none;" transform="matrix(1 0 0 1 339 1126)">
   <path d="M 54.9316 0 L 57.666 0 L 30.5664 -70.459 L 28.0762 -70.459 L 0.976562 0 L 3.66211 0 L 12.9395 -24.4629 L 45.7031 -24.4629 Z M 29.1992 -67.0898 L 29.4434 -67.0898 L 44.8242 -26.709 L 13.8184 -26.709 Z"/>
  </g>
  <line id="Baseline-M" style="fill:none;stroke:#27AAE1;opacity:1;stroke-width:0.577;" x1="263" x2="3036" y1="1126" y2="1126"/>
  <line id="Capline-M" style="fill:none;stroke:#27AAE1;opacity:1;stroke-width:0.577;" x1="263" x2="3036" y1="1055.54" y2="1055.54"/>
  <g id="H-reference" style="fill:#27AAE1;stroke:none;" transform="matrix(1 0 0 1 339 1556)">
   <path d="M 54.9316 0 L 57.666 0 L 30.5664 -70.459 L 28.0762 -70.459 L 0.976562 0 L 3.66211 0 L 12.9395 -24.4629 L 45.7031 -24.4629 Z M 29.1992 -67.0898 L 29.4434 -67.0898 L 44.8242 -26.709 L 13.8184 -26.709 Z"/>
  </g>
  <line id="Baseline-L" style="fill:none;stroke:#27AAE1;opacity:1;stroke-width:0.577;" x1="263" x2="3036" y1="1556" y2="1556"/>
  <line id="Capline-L" style="fill:none;stroke:#27AAE1;opacity:1;stroke-width:0.577;" x1="263" x2="3036" y1="1485.54" y2="1485.54"/>
  <rect height="119.336" id="left-margin" style="fill:#00AEEF;stroke:none;opacity:0.4;" width="12.4512" x="1394.13" y="1030.79"/>
  <rect height="119.336" id="right-margin" style="fill:#00AEEF;stroke:none;opacity:0.4;" width="12.4512" x="1493.11" y="1030.79"/>
 </g>
 <g id="Symbols">
  <g id="Black-L" transform="matrix(1 0 0 1 2857.94 1556)">
   <path d="M 41.1133 -109.814 L 107.471 -109.814 C 106.885 -116.699 102.393 -120.605 95.1172 -120.605 L 53.4668 -120.605 C 46.1914 -120.605 41.6992 -116.699 41.1133 -109.814 Z M 30.5176 -88.3789 L 117.871 -88.3789 C 117.09 -95.6055 112.939 -100 104.443 -100 L 43.9453 -100 C 35.4492 -100 31.3477 -95.6055 30.5176 -88.3789 Z M 39.9902 41.748 L 111.621 41.748 C 126.221 41.748 134.863 33.1543 134.863 17.9199 L 134.863 -53.2227 C 134.863 -68.4082 126.221 -77.0508 110.986 -77.0508 L 39.9902 -77.0508 C 24.7559 -77.0508 16.0645 -68.4082 16.0645 -53.2227 L 16.0645 17.9199 C 16.0645 33.1543 24.7559 41.748 39.9902 41.748 Z M 69.3359 -0.390625 C 66.6016 -1.9043 62.7441 -2.88086 58.4473 -2.88086 C 47.7051 -2.88086 39.1113 3.56445 36.3281 10.6445 L 36.3281 -50.3906 C 36.3281 -54.9316 38.4766 -56.8359 42.6758 -56.8359 L 108.252 -56.8359 C 112.451 -56.8359 114.648 -54.9316 114.648 -50.3906 L 114.648 5.41992 C 110.156 0.732422 102.881 -2.83203 93.7988 -2.83203 C 78.125 -2.83203 67.9199 7.76367 67.9199 16.4062 C 67.9199 19.2871 69.2871 21.1914 70.6055 21.5332 L 62.4023 21.5332 C 58.8867 16.5039 61.6699 5.9082 69.3359 -0.390625 Z M 93.7988 -8.44727 C 100.781 -8.44727 106.348 -14.502 106.348 -22.1191 C 106.348 -29.541 100.732 -35.498 93.7988 -35.498 C 86.9141 -35.498 81.2988 -29.4922 81.2988 -22.0703 C 81.2988 -14.502 86.8164 -8.44727 93.7988 -8.44727 Z M 58.4473 -7.86133 C 64.5508 -7.86133 69.3359 -13.0371 69.3359 -19.6777 C 69.3359 -26.123 64.502 -31.3477 58.4473 -31.3477 C 52.4902 -31.3477 47.5098 -26.0742 47.5098 -19.6777 C 47.6074 -13.0371 52.4414 -7.86133 58.4473 -7.86133 Z"/>
  </g>
  <g id="Heavy-L" transform="matrix(1 0 0 1 2562.25 1556)">
   <path d="M 40.8203 -107.715 L 106.006 -107.715 C 105.469 -114.062 101.465 -117.627 94.7266 -117.627 L 52.0996 -117.627 C 45.4102 -117.627 41.3574 -114.062 40.8203 -107.715 Z M 30.1758 -87.4512 L 116.406 -87.4512 C 115.625 -94.0918 111.914 -98.1445 104.15 -98.1445 L 42.4316 -98.1445 C 34.7168 -98.1445 30.957 -94.0918 30.1758 -87.4512 Z M 38.8184 40.4297 L 110.938 40.4297 C 124.707 40.4297 132.812 32.3242 132.812 17.7734 L 132.812 -53.7109 C 132.812 -68.2617 124.707 -76.3672 110.059 -76.3672 L 38.8184 -76.3672 C 24.2188 -76.3672 16.0645 -68.2617 16.0645 -53.7109 L 16.0645 17.7734 C 16.0645 32.3242 24.2188 40.4297 38.8184 40.4297 Z M 68.3594 0.585938 C 65.4297 -1.2207 61.2793 -2.34375 56.4941 -2.34375 C 45.2148 -2.34375 36.3281 4.39453 33.5938 11.7676 L 33.5938 -51.416 C 33.5938 -56.543 36.084 -58.8379 40.918 -58.8379 L 107.959 -58.8379 C 112.744 -58.8379 115.332 -56.543 115.332 -51.416 L 115.332 6.68945 C 110.742 1.66016 102.93 -2.29492 93.1641 -2.29492 C 76.8555 -2.29492 66.3574 8.78906 66.3574 17.9199 C 66.3574 20.8008 67.8223 22.6074 69.1406 22.9004 L 61.1816 22.9004 C 57.6172 18.0664 60.6934 6.88477 68.3594 0.585938 Z M 93.1641 -8.39844 C 100.342 -8.39844 106.104 -14.5996 106.104 -22.5098 C 106.104 -30.2246 100.293 -36.3281 93.1641 -36.3281 C 86.1328 -36.3281 80.2734 -30.1758 80.3223 -22.4609 C 80.3223 -14.5996 86.0352 -8.39844 93.1641 -8.39844 Z M 56.4941 -7.71484 C 62.7441 -7.71484 67.7246 -13.0859 67.7246 -19.9707 C 67.7246 -26.6602 62.6953 -32.0312 56.4941 -32.0312 C 50.3906 -32.0312 45.2637 -26.6113 45.2637 -19.9707 C 45.3125 -13.0859 50.3418 -7.71484 56.4941 -7.71484 Z"/>
  </g>
  <g id="Bold-L" transform="matrix(1 0 0 1 2266.69 1556)">
   <path d="M 40.4785 -105.42 L 104.395 -105.42 C 103.955 -111.133 100.391 -114.355 94.2871 -114.355 L 50.5859 -114.355 C 44.4824 -114.355 40.918 -111.133 40.4785 -105.42 Z M 29.834 -86.377 L 114.795 -86.377 C 114.014 -92.3828 110.742 -96.0449 103.857 -96.0449 L 40.7715 -96.0449 C 33.8379 -96.0449 30.5664 -92.3828 29.834 -86.377 Z M 37.5 38.916 L 110.156 38.916 C 123.047 38.916 130.518 31.3965 130.518 17.5781 L 130.518 -54.248 C 130.518 -68.0664 122.998 -75.5859 109.082 -75.5859 L 37.5 -75.5859 C 23.6328 -75.5859 16.0645 -68.0664 16.0645 -54.248 L 16.0645 17.5781 C 16.0645 31.4453 23.6328 38.916 37.5 38.916 Z M 67.2852 1.70898 C 64.1602 -0.439453 59.7168 -1.75781 54.2969 -1.75781 C 42.4805 -1.75781 33.2031 5.37109 30.5176 13.0371 L 30.5176 -52.5879 C 30.5176 -58.3496 33.4473 -61.1328 38.9648 -61.1328 L 107.617 -61.1328 C 113.086 -61.1328 116.113 -58.3496 116.113 -52.5879 L 116.113 8.10547 C 111.475 2.73438 103.027 -1.66016 92.4805 -1.66016 C 75.4395 -1.66016 64.6484 9.96094 64.6484 19.6289 C 64.6484 22.5586 66.2109 24.2188 67.4805 24.4629 L 59.8633 24.4629 C 56.2012 19.7754 59.6191 7.95898 67.2852 1.70898 Z M 92.5293 -8.30078 C 99.8535 -8.30078 105.811 -14.7461 105.811 -22.9492 C 105.811 -31.0059 99.8047 -37.2559 92.5293 -37.2559 C 85.2539 -37.2559 79.1504 -30.9082 79.1992 -22.9004 C 79.1992 -14.7461 85.2051 -8.30078 92.5293 -8.30078 Z M 54.3457 -7.56836 C 60.7422 -7.56836 65.9668 -13.1348 65.9668 -20.3125 C 65.9668 -27.2949 60.6934 -32.7637 54.3457 -32.7637 C 48.0469 -32.7637 42.7246 -27.2461 42.7246 -20.3125 C 42.7734 -13.1348 47.998 -7.56836 54.3457 -7.56836 Z"/>
  </g>
  <g id="Semibold-L" transform="matrix(1 0 0 1 1970.76 1556)">
   <path d="M 40.2832 -103.809 L 103.271 -103.809 C 102.881 -109.082 99.6582 -112.061 93.9941 -112.061 L 49.5605 -112.061 C 43.8965 -112.061 40.6738 -109.082 40.2832 -103.809 Z M 29.541 -85.6445 L 113.672 -85.6445 C 112.891 -91.2598 109.961 -94.5801 103.613 -94.5801 L 39.5996 -94.5801 C 33.252 -94.5801 30.3223 -91.2598 29.541 -85.6445 Z M 36.6211 37.8906 L 109.619 37.8906 C 121.875 37.8906 128.955 30.7617 128.955 17.4805 L 128.955 -54.6387 C 128.955 -67.9199 121.826 -75 108.398 -75 L 36.6211 -75 C 23.1934 -75 16.0645 -67.9688 16.0645 -54.6387 L 16.0645 17.4805 C 16.0645 30.8105 23.1934 37.8906 36.6211 37.8906 Z M 66.6016 2.44141 C 63.2812 0.0976562 58.5938 -1.36719 52.832 -1.36719 C 40.5762 -1.36719 31.0547 6.05469 28.418 13.916 L 28.418 -53.3691 C 28.418 -59.6191 31.6406 -62.6953 37.5977 -62.6953 L 107.422 -62.6953 C 113.33 -62.6953 116.602 -59.6191 116.602 -53.3691 L 116.602 9.08203 C 112.012 3.4668 103.125 -1.26953 92.041 -1.26953 C 74.5117 -1.26953 63.4277 10.7422 63.4277 20.8008 C 63.4277 23.7793 65.0879 25.3418 66.3574 25.5371 L 58.9355 25.5371 C 55.2246 20.9473 58.8867 8.74023 66.6016 2.44141 Z M 92.041 -8.25195 C 99.5117 -8.25195 105.615 -14.8438 105.615 -23.291 C 105.615 -31.4941 99.4629 -37.8906 92.041 -37.8906 C 84.668 -37.8906 78.3691 -31.3965 78.418 -23.1934 C 78.418 -14.8438 84.5703 -8.25195 92.041 -8.25195 Z M 52.8809 -7.4707 C 59.375 -7.4707 64.6973 -13.1836 64.6973 -20.5566 C 64.6973 -27.7344 59.3262 -33.3008 52.8809 -33.3008 C 46.4355 -33.3008 40.9668 -27.6367 41.0156 -20.5566 C 41.0156 -13.1836 46.3867 -7.4707 52.8809 -7.4707 Z"/>
  </g>
  <g id="Medium-L" transform="matrix(1 0 0 1 1674.63 1556)">
   <path d="M 40.0879 -102.588 L 102.441 -102.588 C 102.051 -107.568 99.1211 -110.352 93.75 -110.352 L 48.7793 -110.352 C 43.4082 -110.352 40.4297 -107.568 40.0879 -102.588 Z M 29.3457 -85.1074 L 112.793 -85.1074 C 112.061 -90.3809 109.375 -93.457 103.467 -93.457 L 38.7207 -93.457 C 32.8125 -93.457 30.0781 -90.3809 29.3457 -85.1074 Z M 35.9375 37.1094 L 109.229 37.1094 C 120.996 37.1094 127.783 30.3223 127.783 17.3828 L 127.783 -54.8828 C 127.783 -67.8223 120.947 -74.6094 107.861 -74.6094 L 35.9375 -74.6094 C 22.9004 -74.6094 16.0645 -67.8711 16.0645 -54.8828 L 16.0645 17.3828 C 16.0645 30.3711 22.9004 37.1094 35.9375 37.1094 Z M 66.0156 3.02734 C 62.5977 0.488281 57.7637 -1.02539 51.709 -1.02539 C 39.1113 -1.02539 29.4434 6.5918 26.8066 14.5996 L 26.8066 -54.0039 C 26.8066 -60.5469 30.2246 -63.8672 36.5723 -63.8672 L 107.227 -63.8672 C 113.477 -63.8672 117.041 -60.5469 117.041 -54.0039 L 117.041 9.86328 C 112.451 4.05273 103.174 -0.927734 91.6504 -0.927734 C 73.7793 -0.927734 62.5 11.3281 62.5 21.6797 C 62.5 24.707 64.2578 26.2207 65.5273 26.3672 L 58.2031 26.3672 C 54.4434 21.875 58.3008 9.27734 66.0156 3.02734 Z M 91.6992 -8.25195 C 99.2676 -8.25195 105.469 -14.8926 105.469 -23.5352 C 105.469 -31.8848 99.1699 -38.3789 91.6992 -38.3789 C 84.1797 -38.3789 77.7832 -31.7871 77.832 -23.4375 C 77.832 -14.8926 84.1309 -8.25195 91.6992 -8.25195 Z M 51.7578 -7.42188 C 58.3496 -7.42188 63.7695 -13.2324 63.7695 -20.752 C 63.7695 -28.0762 58.252 -33.6914 51.7578 -33.6914 C 45.2148 -33.6914 39.6484 -27.9785 39.6973 -20.7031 C 39.6973 -13.2324 45.166 -7.42188 51.7578 -7.42188 Z"/>
  </g>
  <g id="Regular-L" transform="matrix(1 0 0 1 1378.7 1556)">
   <path d="M 39.8926 -101.025 L 101.318 -101.025 C 101.025 -105.566 98.3887 -108.057 93.457 -108.057 L 47.7539 -108.057 C 42.8223 -108.057 40.1855 -105.566 39.8926 -101.025 Z M 29.1016 -84.375 L 111.719 -84.375 C 110.938 -89.209 108.545 -92.041 103.223 -92.041 L 37.5488 -92.041 C 32.2266 -92.041 29.834 -89.209 29.1016 -84.375 Z M 35.0586 36.084 L 108.691 36.084 C 119.824 36.084 126.221 29.6875 126.221 17.2363 L 126.221 -55.2734 C 126.221 -67.6758 119.775 -74.0723 107.178 -74.0723 L 35.0586 -74.0723 C 22.4609 -74.0723 16.0645 -67.7246 16.0645 -55.2734 L 16.0645 17.2363 C 16.0645 29.7363 22.4609 36.084 35.0586 36.084 Z M 64.502 27.4414 L 57.3242 27.4414 C 53.4668 23.0469 57.5684 10.0098 65.2832 3.80859 C 61.7188 1.02539 56.6895 -0.634766 50.1953 -0.634766 C 37.207 -0.634766 27.2949 7.27539 24.707 15.4785 L 24.707 -54.7852 C 24.707 -61.8164 28.418 -65.4297 35.2539 -65.4297 L 107.031 -65.4297 C 113.721 -65.4297 117.578 -61.8164 117.578 -54.7852 L 117.578 10.8398 C 113.037 4.83398 103.271 -0.537109 91.2109 -0.537109 C 72.8027 -0.537109 61.3281 12.1094 61.3281 22.8516 C 61.3281 25.9766 63.3301 27.4414 64.502 27.4414 Z M 91.2598 -8.20312 C 98.9258 -8.20312 105.273 -14.9414 105.273 -23.8281 C 105.273 -32.4219 98.8281 -39.0137 91.2598 -39.0137 C 83.5938 -39.0137 77.0508 -32.2754 77.0996 -23.7305 C 77.0996 -14.9414 83.5449 -8.20312 91.2598 -8.20312 Z M 50.293 -7.32422 C 56.9824 -7.32422 62.5488 -13.2324 62.5488 -20.9961 C 62.5488 -28.5156 56.8848 -34.1797 50.293 -34.1797 C 43.6035 -34.1797 37.9395 -28.418 37.9395 -20.9473 C 37.9395 -13.2324 43.5547 -7.32422 50.293 -7.32422 Z"/>
  </g>
  <g id="Light-L" transform="matrix(1 0 0 1 1083.02 1556)">
   <path d="M 38.8184 -100.195 L 100.732 -100.195 C 100.537 -103.711 98.4375 -105.859 94.7266 -105.859 L 44.873 -105.859 C 41.1133 -105.859 39.0137 -103.711 38.8184 -100.195 Z M 28.6133 -84.668 L 110.693 -84.668 C 110.254 -88.3301 108.301 -90.6738 104.297 -90.6738 L 35.0098 -90.6738 C 31.0059 -90.6738 29.0527 -88.3301 28.6133 -84.668 Z M 34.0332 34.1309 L 107.129 34.1309 C 118.066 34.1309 124.17 27.9297 124.17 16.2598 L 124.17 -56.1523 C 124.17 -67.8223 118.066 -73.9746 106.201 -73.9746 L 34.0332 -73.9746 C 22.168 -73.9746 16.0645 -67.9199 16.0645 -56.1523 L 16.0645 16.2598 C 16.0645 28.0273 22.168 34.1309 34.0332 34.1309 Z M 63.4277 27.4902 L 57.3242 27.4902 C 53.3691 23.8281 56.8848 10.8887 64.9414 4.24805 C 61.084 1.12305 55.7617 -0.878906 48.6816 -0.878906 C 35.8887 -0.878906 25.4395 6.68945 22.7051 14.209 L 22.7051 -55.8105 C 22.7051 -63.4277 26.709 -67.3828 34.1797 -67.3828 L 106.055 -67.3828 C 113.33 -67.3828 117.578 -63.4277 117.578 -55.8105 L 117.578 9.86328 C 113.232 4.44336 102.832 -0.78125 90.6738 -0.78125 C 71.875 -0.78125 60.1562 12.1094 60.1562 22.998 C 60.1562 26.2207 62.1582 27.4902 63.4277 27.4902 Z M 90.7227 -8.49609 C 98.584 -8.49609 104.883 -15.3809 104.883 -24.3652 C 104.883 -32.959 98.4863 -39.8926 90.7227 -39.8926 C 82.8125 -39.8926 76.2695 -32.8613 76.3672 -24.3164 C 76.3672 -15.3809 82.7148 -8.49609 90.7227 -8.49609 Z M 48.7793 -7.66602 C 55.6641 -7.66602 61.1816 -13.623 61.1816 -21.4844 C 61.1816 -29.0039 55.5664 -34.9121 48.7793 -34.9121 C 41.8945 -34.9121 36.2305 -28.9551 36.2793 -21.4355 C 36.2793 -13.623 41.8457 -7.66602 48.7793 -7.66602 Z"/>
  </g>
  <g id="Thin-L" transform="matrix(1 0 0 1 787.648 1556)">
   <path d="M 37.4023 -99.1699 L 100 -99.1699 C 99.9512 -101.221 98.5352 -102.881 96.3867 -102.881 L 41.0156 -102.881 C 38.8672 -102.881 37.4512 -101.221 37.4023 -99.1699 Z M 27.9785 -85.1074 L 109.375 -85.1074 C 109.277 -87.207 107.91 -88.916 105.664 -88.916 L 31.6895 -88.916 C 29.4434 -88.916 28.0762 -87.207 27.9785 -85.1074 Z M 32.666 31.543 L 105.078 31.543 C 115.771 31.543 121.484 25.6348 121.484 14.9414 L 121.484 -57.3242 C 121.484 -68.0176 115.771 -73.877 104.883 -73.877 L 32.666 -73.877 C 21.7773 -73.877 16.0645 -68.1641 16.0645 -57.3242 L 16.0645 14.9414 C 16.0645 25.7812 21.7773 31.543 32.666 31.543 Z M 61.9629 27.5879 L 57.373 27.5879 C 53.1738 24.9023 56.0059 12.0117 64.4531 4.78516 C 60.2539 1.26953 54.4922 -1.2207 46.582 -1.2207 C 34.082 -1.2207 22.998 5.9082 19.9707 12.5488 L 19.9707 -57.1289 C 19.9707 -65.5762 24.4141 -69.9707 32.8125 -69.9707 L 104.736 -69.9707 C 112.842 -69.9707 117.578 -65.5762 117.578 -57.1289 L 117.578 8.20312 C 113.574 3.85742 102.197 -1.07422 89.9414 -1.07422 C 70.6543 -1.07422 58.5938 12.1094 58.5938 23.1934 C 58.5938 26.5137 60.6934 27.5879 61.9629 27.5879 Z M 89.9902 -8.88672 C 98.1445 -8.88672 104.395 -15.918 104.395 -25.0977 C 104.395 -33.6914 97.998 -41.0156 89.9902 -41.0156 C 81.7871 -41.0156 75.293 -33.6914 75.4395 -25.0977 C 75.4395 -15.918 81.6406 -8.88672 89.9902 -8.88672 Z M 46.7773 -8.05664 C 53.9062 -8.05664 59.4238 -14.1602 59.4238 -22.168 C 59.4238 -29.6875 53.7598 -35.8887 46.7773 -35.8887 C 39.6484 -35.8887 34.0332 -29.6875 34.082 -22.1191 C 34.082 -14.1602 39.5996 -8.05664 46.7773 -8.05664 Z"/>
  </g>
  <g id="Ultralight-L" transform="matrix(1 0 0 1 491.62 1556)">
   <path d="M 36.7188 -98.6328 L 99.6094 -98.6328 C 99.6094 -99.9512 98.584 -101.367 97.2168 -101.367 L 39.0625 -101.367 C 37.6953 -101.367 36.6699 -99.9512 36.7188 -98.6328 Z M 27.6367 -85.3027 L 108.691 -85.3027 C 108.789 -86.6211 107.715 -87.9883 106.396 -87.9883 L 29.9316 -87.9883 C 28.6133 -87.9883 27.5391 -86.6211 27.6367 -85.3027 Z M 31.9824 30.1758 L 104.004 30.1758 C 114.551 30.1758 120.117 24.4629 120.117 14.2578 L 120.117 -57.9102 C 120.117 -68.1152 114.551 -73.8281 104.199 -73.8281 L 31.9824 -73.8281 C 21.582 -73.8281 16.0645 -68.3105 16.0645 -57.9102 L 16.0645 14.2578 C 16.0645 24.6582 21.582 30.1758 31.9824 30.1758 Z M 61.2305 27.6367 L 57.4219 27.6367 C 53.0762 25.4883 55.5664 12.6465 64.209 5.07812 C 59.8633 1.36719 53.8574 -1.41602 45.5566 -1.41602 C 33.2031 -1.41602 21.7285 5.51758 18.6035 11.7188 L 18.6035 -57.8125 C 18.6035 -66.6992 23.1934 -71.2891 32.1289 -71.2891 L 104.053 -71.2891 C 112.598 -71.2891 117.578 -66.6992 117.578 -57.8125 L 117.578 7.17773 C 113.916 3.4668 101.855 -1.26953 89.5508 -1.26953 C 70.0684 -1.26953 57.8125 12.1094 57.8125 23.3398 C 57.8125 26.6602 59.9121 27.6367 61.2305 27.6367 Z M 89.6484 -9.08203 C 97.9004 -9.08203 104.15 -16.1621 104.15 -25.4883 C 104.15 -34.082 97.7539 -41.6016 89.6484 -41.6016 C 81.25 -41.6016 74.7559 -34.082 74.9512 -25.4883 C 74.9512 -16.1621 81.1035 -9.08203 89.6484 -9.08203 Z M 45.7031 -8.25195 C 53.0273 -8.25195 58.4961 -14.4043 58.4961 -22.4609 C 58.4961 -30.0293 52.8809 -36.377 45.7031 -36.377 C 38.5254 -36.377 32.8613 -30.0781 32.959 -22.5098 C 32.959 -14.4043 38.4277 -8.25195 45.7031 -8.25195 Z"/>
  </g>
  <g id="Black-M" transform="matrix(1 0 0 1 2874.07 1126)">
   <path d="M 31.6895 -95.4102 L 84.9609 -95.4102 C 84.4238 -100.928 80.6641 -104.15 74.9512 -104.15 L 41.6992 -104.15 C 35.9375 -104.15 32.1777 -100.928 31.6895 -95.4102 Z M 23.877 -77.8809 L 92.7734 -77.8809 C 92.2852 -83.5449 88.7695 -87.2559 81.8848 -87.2559 L 34.7656 -87.2559 C 27.8809 -87.2559 24.3652 -83.5449 23.877 -77.8809 Z M 31.9824 25.1953 L 86.6211 25.1953 C 98.9258 25.1953 106.201 17.9199 106.201 5.66406 L 106.201 -49.0234 C 106.201 -61.2793 98.9258 -68.5547 86.6699 -68.5547 L 31.9824 -68.5547 C 19.7266 -68.5547 12.4512 -61.2793 12.4512 -49.0234 L 12.4512 5.66406 C 12.4512 17.9199 19.7266 25.1953 31.9824 25.1953 Z M 54.7852 -9.375 C 52.832 -10.2539 50 -11.0352 47.0703 -11.0352 C 39.5508 -11.0352 33.0566 -6.5918 30.7617 -1.75781 L 30.7617 -46.0938 C 30.7617 -49.1699 32.0801 -50.2441 34.9121 -50.2441 L 83.7402 -50.2441 C 86.5723 -50.2441 87.8906 -49.1699 87.8906 -46.0938 L 87.8906 -5.66406 C 84.5703 -8.69141 79.4434 -10.9863 73.1934 -10.9863 C 61.7188 -10.9863 54.1504 -3.27148 54.1504 2.83203 C 54.1504 5.07812 55.0781 6.5918 56.1523 6.88477 L 50 6.88477 C 47.3145 3.22266 48.7305 -4.15039 54.7852 -9.375 Z M 73.1934 -14.6973 C 78.5645 -14.6973 82.5684 -19.2383 82.5684 -24.8535 C 82.5684 -30.2246 78.4668 -34.7656 73.1934 -34.7656 C 67.9688 -34.7656 63.9648 -30.2246 63.9648 -24.8535 C 63.9648 -19.2383 67.9199 -14.6973 73.1934 -14.6973 Z M 47.0703 -14.3555 C 51.709 -14.3555 55.1758 -18.2129 55.1758 -23.0469 C 55.1758 -27.6855 51.6602 -31.7383 47.0703 -31.7383 C 42.5781 -31.7383 39.0137 -27.6855 39.0137 -23.0469 C 39.0625 -18.2129 42.5293 -14.3555 47.0703 -14.3555 Z"/>
  </g>
  <g id="Heavy-M" transform="matrix(1 0 0 1 2578.22 1126)">
   <path d="M 31.6406 -93.3594 L 83.4961 -93.3594 C 83.0566 -98.5352 79.6387 -101.514 74.1699 -101.514 L 40.9668 -101.514 C 35.5469 -101.514 32.0801 -98.5352 31.6406 -93.3594 Z M 23.6328 -76.7578 L 91.4551 -76.7578 C 90.918 -82.1289 87.6953 -85.5469 81.2988 -85.5469 L 33.7402 -85.5469 C 27.3438 -85.5469 24.1699 -82.1289 23.6328 -76.7578 Z M 31.0059 24.2188 L 86.2793 24.2188 C 97.7539 24.2188 104.492 17.4805 104.492 5.76172 L 104.492 -49.3164 C 104.492 -61.0352 97.7051 -67.8223 85.9375 -67.8223 L 31.0059 -67.8223 C 19.2383 -67.8223 12.4512 -61.0352 12.4512 -49.3164 L 12.4512 5.76172 C 12.4512 17.4805 19.2383 24.2188 31.0059 24.2188 Z M 53.8574 -8.39844 C 51.709 -9.57031 48.7305 -10.3516 45.3613 -10.3516 C 37.207 -10.3516 30.5176 -5.51758 28.2715 -0.244141 L 28.2715 -46.9727 C 28.2715 -50.5371 29.9316 -51.9531 33.252 -51.9531 L 83.6914 -51.9531 C 86.9629 -51.9531 88.6719 -50.5371 88.6719 -46.9727 L 88.6719 -4.19922 C 85.2051 -7.66602 79.5898 -10.3027 72.6562 -10.3027 C 60.5957 -10.3027 52.7344 -2.14844 52.7344 4.44336 C 52.7344 6.68945 53.7598 8.1543 54.7852 8.39844 L 48.6816 8.39844 C 45.9473 4.73633 47.8516 -3.32031 53.8574 -8.39844 Z M 72.7051 -14.5508 C 78.125 -14.5508 82.373 -19.2383 82.373 -25.1465 C 82.373 -30.8105 78.0762 -35.4492 72.7051 -35.4492 C 67.334 -35.4492 63.0371 -30.8105 63.0371 -25.0977 C 63.0371 -19.2383 67.2852 -14.5508 72.7051 -14.5508 Z M 45.3613 -14.1113 C 50.0977 -14.1113 53.8086 -18.1641 53.8086 -23.2422 C 53.8086 -28.1738 50.0488 -32.2754 45.3613 -32.2754 C 40.7227 -32.2754 36.9629 -28.125 36.9629 -23.2422 C 37.0117 -18.1641 40.6738 -14.1113 45.3613 -14.1113 Z"/>
  </g>
  <g id="Bold-M" transform="matrix(1 0 0 1 2282.46 1126)">
   <path d="M 31.5918 -91.0156 L 81.8848 -91.0156 C 81.4941 -95.8496 78.418 -98.584 73.3398 -98.584 L 40.1855 -98.584 C 35.0586 -98.584 31.9824 -95.8496 31.5918 -91.0156 Z M 23.3398 -75.4883 L 89.9414 -75.4883 C 89.3555 -80.5664 86.5234 -83.6426 80.6641 -83.6426 L 32.666 -83.6426 C 26.7578 -83.6426 23.9746 -80.5664 23.3398 -75.4883 Z M 29.8828 23.1445 L 85.8887 23.1445 C 96.3867 23.1445 102.588 16.9922 102.588 5.85938 L 102.588 -49.6094 C 102.588 -60.791 96.3867 -66.9434 85.1562 -66.9434 L 29.8828 -66.9434 C 18.6523 -66.9434 12.4512 -60.791 12.4512 -49.6094 L 12.4512 5.85938 C 12.4512 16.9922 18.6523 23.1445 29.8828 23.1445 Z M 52.832 -7.27539 C 50.4883 -8.74023 47.2656 -9.66797 43.4082 -9.66797 C 34.6191 -9.66797 27.6367 -4.3457 25.5371 1.41602 L 25.5371 -47.9492 C 25.5371 -52.0508 27.5391 -53.9062 31.3965 -53.9062 L 83.6426 -53.9062 C 87.4512 -53.9062 89.502 -52.0508 89.502 -47.9492 L 89.502 -2.49023 C 85.9375 -6.44531 79.7852 -9.57031 72.1191 -9.57031 C 59.3262 -9.57031 51.1719 -0.927734 51.1719 6.25 C 51.1719 8.49609 52.2949 9.86328 53.3203 10.1074 L 47.2168 10.1074 C 44.4336 6.34766 46.875 -2.39258 52.832 -7.27539 Z M 72.1191 -14.4043 C 77.6855 -14.4043 82.1777 -19.2871 82.1777 -25.4395 C 82.1777 -31.4941 77.6367 -36.2305 72.1191 -36.2305 C 66.6016 -36.2305 62.0605 -31.3965 62.0605 -25.3906 C 62.0605 -19.2871 66.5527 -14.4043 72.1191 -14.4043 Z M 43.457 -13.8672 C 48.291 -13.8672 52.1973 -18.0664 52.1973 -23.4863 C 52.1973 -28.7109 48.291 -32.8613 43.457 -32.8613 C 38.6719 -32.8613 34.668 -28.6621 34.668 -23.4375 C 34.7168 -18.0664 38.623 -13.8672 43.457 -13.8672 Z"/>
  </g>
  <g id="Semibold-M" transform="matrix(1 0 0 1 1986.41 1126)">
   <path d="M 31.543 -89.4531 L 80.7617 -89.4531 C 80.4199 -93.9941 77.6367 -96.5332 72.7539 -96.5332 L 39.5996 -96.5332 C 34.7168 -96.5332 31.9336 -93.9941 31.543 -89.4531 Z M 23.1445 -74.6582 L 88.916 -74.6582 C 88.2812 -79.4922 85.7422 -82.3242 80.2246 -82.3242 L 31.8848 -82.3242 C 26.3672 -82.3242 23.8281 -79.4922 23.1445 -74.6582 Z M 29.1016 22.4121 L 85.5957 22.4121 C 95.459 22.4121 101.27 16.6504 101.27 5.9082 L 101.27 -49.8535 C 101.27 -60.5957 95.459 -66.4062 84.6191 -66.4062 L 29.1016 -66.4062 C 18.2617 -66.4062 12.4512 -60.6445 12.4512 -49.8535 L 12.4512 5.9082 C 12.4512 16.6992 18.2617 22.4121 29.1016 22.4121 Z M 52.0996 -6.54297 C 49.6582 -8.1543 46.2402 -9.13086 42.0898 -9.13086 C 32.8125 -9.13086 25.6836 -3.4668 23.6328 2.63672 L 23.6328 -48.6328 C 23.6328 -53.0762 25.8789 -55.2246 30.127 -55.2246 L 83.5938 -55.2246 C 87.793 -55.2246 90.0879 -53.0762 90.0879 -48.6328 L 90.0879 -1.26953 C 86.5234 -5.56641 79.9805 -9.08203 71.6797 -9.08203 C 58.4961 -9.08203 50.0977 -0.0488281 50.0977 7.51953 C 50.0977 9.76562 51.3184 11.084 52.2949 11.2305 L 46.1914 11.2305 C 43.3594 7.4707 46.1914 -1.75781 52.0996 -6.54297 Z M 71.7285 -14.3066 C 77.3926 -14.3066 82.0312 -19.2871 82.0312 -25.6836 C 82.0312 -31.9336 77.3438 -36.7676 71.7285 -36.7676 C 66.1133 -36.7676 61.3281 -31.8359 61.377 -25.5859 C 61.377 -19.2871 66.0645 -14.3066 71.7285 -14.3066 Z M 42.1387 -13.7207 C 47.0703 -13.7207 51.123 -18.0176 51.123 -23.6328 C 51.123 -29.0527 47.0215 -33.252 42.1387 -33.252 C 37.2559 -33.252 33.1055 -29.0039 33.1055 -23.584 C 33.1543 -18.0176 37.207 -13.7207 42.1387 -13.7207 Z"/>
  </g>
  <g id="Medium-M" transform="matrix(1 0 0 1 1690.21 1126)">
   <path d="M 31.543 -88.2324 L 79.9316 -88.2324 C 79.5898 -92.627 77.002 -94.9707 72.2656 -94.9707 L 39.209 -94.9707 C 34.4727 -94.9707 31.8848 -92.627 31.543 -88.2324 Z M 22.998 -73.9746 L 88.1348 -73.9746 C 87.4512 -78.6621 85.1074 -81.3477 79.834 -81.3477 L 31.2988 -81.3477 C 26.0742 -81.3477 23.6816 -78.6621 22.998 -73.9746 Z M 28.5156 21.875 L 85.4004 21.875 C 94.7754 21.875 100.244 16.4062 100.244 5.95703 L 100.244 -50 C 100.244 -60.498 94.7266 -65.9668 84.1797 -65.9668 L 28.5156 -65.9668 C 17.9688 -65.9668 12.4512 -60.498 12.4512 -50 L 12.4512 5.95703 C 12.4512 16.4062 17.9688 21.875 28.5156 21.875 Z M 51.5137 -5.95703 C 49.0234 -7.76367 45.459 -8.78906 41.1133 -8.78906 C 31.3965 -8.78906 24.1699 -2.83203 22.168 3.56445 L 22.168 -49.1699 C 22.168 -53.8574 24.6582 -56.2012 29.1504 -56.2012 L 83.5449 -56.2012 C 88.0371 -56.2012 90.5273 -53.8574 90.5273 -49.1699 L 90.5273 -0.341797 C 86.9629 -4.88281 80.0781 -8.69141 71.3867 -8.69141 C 57.8125 -8.69141 49.2676 0.585938 49.2676 8.44727 C 49.2676 10.7422 50.5859 12.0117 51.5137 12.1582 L 45.4102 12.1582 C 42.5781 8.34961 45.6543 -1.26953 51.5137 -5.95703 Z M 71.3867 -14.209 C 77.1484 -14.209 81.9336 -19.2871 81.9336 -25.8301 C 81.9336 -32.2754 77.0996 -37.1582 71.3867 -37.1582 C 65.7227 -37.1582 60.8398 -32.1777 60.8398 -25.7812 C 60.8398 -19.2871 65.6738 -14.209 71.3867 -14.209 Z M 41.1133 -13.5742 C 46.1426 -13.5742 50.293 -18.0176 50.293 -23.7305 C 50.293 -29.3457 46.0938 -33.5938 41.1133 -33.5938 C 36.1816 -33.5938 31.8848 -29.248 31.9336 -23.7305 C 31.9336 -18.0176 36.1328 -13.5742 41.1133 -13.5742 Z"/>
  </g>
  <g id="Regular-M" transform="matrix(1 0 0 1 1394.13 1126)">
   <path d="M 31.4941 -86.6699 L 78.8574 -86.6699 C 78.5645 -90.8203 76.2207 -92.9688 71.7285 -92.9688 L 38.623 -92.9688 C 34.1309 -92.9688 31.7871 -90.8203 31.4941 -86.6699 Z M 22.8027 -73.1445 L 87.1094 -73.1445 C 86.377 -77.5879 84.2773 -80.0293 79.3945 -80.0293 L 30.5664 -80.0293 C 25.6348 -80.0293 23.5352 -77.5879 22.8027 -73.1445 Z M 27.7832 21.1426 L 85.1074 21.1426 C 93.8477 21.1426 98.9746 16.0645 98.9746 6.00586 L 98.9746 -50.2441 C 98.9746 -60.3027 93.7988 -65.3809 83.6426 -65.3809 L 27.7832 -65.3809 C 17.5781 -65.3809 12.4512 -60.3027 12.4512 -50.2441 L 12.4512 6.00586 C 12.4512 16.1133 17.5781 21.1426 27.7832 21.1426 Z M 50.5859 13.2812 L 44.3848 13.2812 C 41.5039 9.47266 45.0195 -0.634766 50.8301 -5.22461 C 48.1934 -7.17773 44.4824 -8.30078 39.7949 -8.30078 C 29.5898 -8.30078 22.2168 -1.95312 20.3125 4.83398 L 20.3125 -49.8047 C 20.3125 -54.8828 22.998 -57.5195 27.8809 -57.5195 L 83.4961 -57.5195 C 88.3301 -57.5195 91.1133 -54.8828 91.1133 -49.8047 L 91.1133 0.927734 C 87.5488 -4.00391 80.2734 -8.20312 70.9961 -8.20312 C 56.9824 -8.20312 48.1934 1.46484 48.1934 9.66797 C 48.1934 12.0605 49.707 13.2812 50.5859 13.2812 Z M 70.9961 -14.1113 C 76.8555 -14.1113 81.7871 -19.2871 81.7871 -26.0742 C 81.7871 -32.7148 76.8066 -37.6953 70.9961 -37.6953 C 65.2344 -37.6953 60.1562 -32.5684 60.1562 -25.9766 C 60.1562 -19.2871 65.1855 -14.1113 70.9961 -14.1113 Z M 39.8438 -13.4277 C 44.873 -13.4277 49.2188 -17.9688 49.2188 -23.9258 C 49.2188 -29.7363 44.873 -33.9844 39.8438 -33.9844 C 34.7656 -33.9844 30.3711 -29.6387 30.3711 -23.877 C 30.3711 -17.9688 34.7656 -13.4277 39.8438 -13.4277 Z"/>
  </g>
  <g id="Light-M" transform="matrix(1 0 0 1 1098.35 1126)">
   <path d="M 30.5664 -85.9375 L 78.3203 -85.9375 C 78.125 -89.1113 76.2695 -90.9668 72.8516 -90.9668 L 36.0352 -90.9668 C 32.6172 -90.9668 30.7617 -89.1113 30.5664 -85.9375 Z M 22.4121 -73.4375 L 86.2305 -73.4375 C 85.7422 -76.8066 84.0332 -78.8086 80.3711 -78.8086 L 28.2715 -78.8086 C 24.5605 -78.8086 22.8516 -76.8066 22.4121 -73.4375 Z M 26.8555 19.3848 L 83.6914 19.3848 C 92.2852 19.3848 97.1191 14.502 97.1191 5.12695 L 97.1191 -51.0254 C 97.1191 -60.4492 92.2852 -65.2832 82.7637 -65.2832 L 26.8555 -65.2832 C 17.334 -65.2832 12.4512 -60.498 12.4512 -51.0254 L 12.4512 5.12695 C 12.4512 14.5508 17.334 19.3848 26.8555 19.3848 Z M 49.6094 13.3301 L 44.4336 13.3301 C 41.4062 10.2051 44.3848 0.0976562 50.4883 -4.83398 C 47.6562 -7.08008 43.6523 -8.49609 38.4277 -8.49609 C 28.3691 -8.49609 20.5566 -2.49023 18.5059 3.66211 L 18.5059 -50.7324 C 18.5059 -56.3477 21.4844 -59.2773 26.9531 -59.2773 L 82.6172 -59.2773 C 87.9883 -59.2773 91.1133 -56.3477 91.1133 -50.7324 L 91.1133 0.195312 C 87.6465 -4.29688 79.8828 -8.39844 70.5078 -8.39844 C 56.1523 -8.39844 47.1191 1.46484 47.1191 9.81445 C 47.1191 12.2559 48.6816 13.3301 49.6094 13.3301 Z M 70.5566 -14.3555 C 76.5625 -14.3555 81.4453 -19.6777 81.4453 -26.5625 C 81.4453 -33.252 76.4648 -38.4766 70.5566 -38.4766 C 64.5508 -38.4766 59.4727 -33.1543 59.5215 -26.5137 C 59.5215 -19.6777 64.4531 -14.3555 70.5566 -14.3555 Z M 38.4766 -13.7207 C 43.7012 -13.7207 48.0469 -18.3105 48.0469 -24.3652 C 48.0469 -30.1758 43.6523 -34.668 38.4766 -34.668 C 33.252 -34.668 28.8574 -30.127 28.8574 -24.3164 C 28.8574 -18.3105 33.2031 -13.7207 38.4766 -13.7207 Z"/>
  </g>
  <g id="Thin-M" transform="matrix(1 0 0 1 802.833 1126)">
   <path d="M 29.2969 -85.0098 L 77.6367 -85.0098 C 77.5879 -86.9141 76.3672 -88.2812 74.3164 -88.2812 L 32.6172 -88.2812 C 30.6152 -88.2812 29.3457 -86.9141 29.2969 -85.0098 Z M 21.8262 -73.7793 L 85.0586 -73.7793 C 84.9121 -75.7812 83.7402 -77.1973 81.5918 -77.1973 L 25.293 -77.1973 C 23.1445 -77.1973 21.9727 -75.7812 21.8262 -73.7793 Z M 25.6348 17.041 L 81.8848 17.041 C 90.2344 17.041 94.7266 12.4512 94.7266 3.95508 L 94.7266 -52.0996 C 94.7266 -60.5957 90.1855 -65.2344 81.543 -65.2344 L 25.6348 -65.2344 C 16.9922 -65.2344 12.4512 -60.6934 12.4512 -52.0996 L 12.4512 3.95508 C 12.4512 12.5488 16.9922 17.041 25.6348 17.041 Z M 48.3398 13.4277 L 44.4824 13.4277 C 41.2598 11.1328 43.6035 1.17188 50.0488 -4.3457 C 46.875 -6.98242 42.5293 -8.83789 36.5723 -8.83789 C 26.8066 -8.83789 18.3594 -3.17383 16.0645 2.14844 L 16.0645 -51.9043 C 16.0645 -58.3008 19.3848 -61.5723 25.7324 -61.5723 L 81.4453 -61.5723 C 87.5488 -61.5723 91.1133 -58.3008 91.1133 -51.9043 L 91.1133 -1.17188 C 87.9395 -4.83398 79.3457 -8.69141 69.873 -8.69141 C 55.0293 -8.69141 45.752 1.46484 45.752 10.0098 C 45.752 12.5488 47.3633 13.4277 48.3398 13.4277 Z M 69.9219 -14.6973 C 76.123 -14.6973 81.0059 -20.1172 81.0059 -27.2461 C 81.0059 -33.8867 76.0254 -39.4531 69.9219 -39.4531 C 63.623 -39.4531 58.5449 -33.8379 58.6426 -27.1973 C 58.6426 -20.1172 63.5254 -14.6973 69.9219 -14.6973 Z M 36.6699 -14.0625 C 42.1875 -14.0625 46.4355 -18.7988 46.4355 -24.9512 C 46.4355 -30.8105 42.041 -35.5469 36.6699 -35.5469 C 31.2012 -35.5469 26.8555 -30.7617 26.9043 -24.9512 C 26.9043 -18.7988 31.1523 -14.0625 36.6699 -14.0625 Z"/>
  </g>
  <g id="Ultralight-M" transform="matrix(1 0 0 1 506.733 1126)">
   <path d="M 28.6621 -84.5215 L 77.2949 -84.5215 C 77.2949 -85.791 76.416 -86.9629 75.0977 -86.9629 L 30.8594 -86.9629 C 29.5898 -86.9629 28.6621 -85.791 28.6621 -84.5215 Z M 21.5332 -73.9746 L 84.4727 -73.9746 C 84.4727 -75.2441 83.5449 -76.3672 82.2266 -76.3672 L 23.7305 -76.3672 C 22.4121 -76.3672 21.5332 -75.2441 21.5332 -73.9746 Z M 25 15.8691 L 80.9082 15.8691 C 89.1602 15.8691 93.5059 11.377 93.5059 3.32031 L 93.5059 -52.6367 C 93.5059 -60.6934 89.1602 -65.1855 80.957 -65.1855 L 25 -65.1855 C 16.7969 -65.1855 12.4512 -60.8398 12.4512 -52.6367 L 12.4512 3.32031 C 12.4512 11.5234 16.7969 15.8691 25 15.8691 Z M 47.6562 13.4766 L 44.4824 13.4766 C 41.1621 11.6699 43.2129 1.66016 49.8047 -4.10156 C 46.5332 -6.88477 41.9434 -8.98438 35.6445 -8.98438 C 26.0254 -8.98438 17.2363 -3.56445 14.8438 1.41602 L 14.8438 -52.4902 C 14.8438 -59.2773 18.3594 -62.793 25.0977 -62.793 L 80.8105 -62.793 C 87.3535 -62.793 91.1133 -59.2773 91.1133 -52.4902 L 91.1133 -2.05078 C 88.1836 -5.12695 79.0527 -8.83789 69.5312 -8.83789 C 54.4922 -8.83789 45.0684 1.46484 45.0684 10.1074 C 45.0684 12.6953 46.6797 13.4766 47.6562 13.4766 Z M 69.5801 -14.8926 C 75.9277 -14.8926 80.8105 -20.3613 80.8105 -27.5391 C 80.8105 -34.2285 75.8301 -39.9902 69.5801 -39.9902 C 63.1348 -39.9902 58.1055 -34.2285 58.2031 -27.5391 C 58.2031 -20.3613 63.0371 -14.8926 69.5801 -14.8926 Z M 35.7422 -14.2578 C 41.3574 -14.2578 45.6055 -18.9941 45.6055 -25.2441 C 45.6055 -31.1035 41.2598 -35.9863 35.7422 -35.9863 C 30.1758 -35.9863 25.8301 -31.1035 25.8789 -25.2441 C 25.8789 -18.9941 30.127 -14.2578 35.7422 -14.2578 Z"/>
  </g>
  <g id="Black-S" transform="matrix(1 0 0 1 2886.96 696)">
   <path d="M 24.8535 -82.2266 L 66.4551 -82.2266 C 66.0645 -86.5234 63.1348 -89.0625 58.6426 -89.0625 L 32.666 -89.0625 C 28.1738 -89.0625 25.2441 -86.5234 24.8535 -82.2266 Z M 18.7012 -68.5547 L 72.6074 -68.5547 C 72.2168 -72.998 69.4824 -75.8789 64.1113 -75.8789 L 27.1973 -75.8789 C 21.8262 -75.8789 19.0918 -72.998 18.7012 -68.5547 Z M 25 12.0605 L 67.8711 12.0605 C 77.4414 12.0605 83.1055 6.39648 83.1055 -3.17383 L 83.1055 -46.0449 C 83.1055 -55.6152 77.4414 -61.2793 67.8711 -61.2793 L 25 -61.2793 C 15.4297 -61.2793 9.76562 -55.6152 9.76562 -46.0449 L 9.76562 -3.17383 C 9.76562 6.39648 15.4297 12.0605 25 12.0605 Z M 42.8711 -14.8926 C 41.3086 -15.625 39.1113 -16.2109 36.7676 -16.2109 C 30.8105 -16.2109 25.7324 -12.6953 23.9258 -8.83789 L 23.9258 -43.7988 C 23.9258 -46.2402 25 -47.1191 27.2461 -47.1191 L 65.625 -47.1191 C 67.8711 -47.1191 68.9453 -46.2402 68.9453 -43.7988 L 68.9453 -11.9141 C 66.3086 -14.3555 62.3047 -16.1621 57.3242 -16.1621 C 48.291 -16.1621 42.334 -10.1074 42.334 -5.27344 C 42.334 -3.56445 43.0664 -2.34375 43.8965 -2.09961 L 39.0625 -2.09961 C 36.9629 -4.98047 38.1348 -10.8398 42.8711 -14.8926 Z M 57.3242 -19.1406 C 61.5234 -19.1406 64.6973 -22.7051 64.6973 -27.0996 C 64.6973 -31.3477 61.4746 -34.9121 57.3242 -34.9121 C 53.2227 -34.9121 50.0488 -31.3477 50.0488 -27.0996 C 50.0488 -22.7051 53.1738 -19.1406 57.3242 -19.1406 Z M 36.7676 -18.8477 C 40.4297 -18.8477 43.1641 -21.875 43.1641 -25.6836 C 43.1641 -29.3457 40.3809 -32.5195 36.7676 -32.5195 C 33.252 -32.5195 30.4199 -29.3457 30.4199 -25.6836 C 30.4688 -21.875 33.2031 -18.8477 36.7676 -18.8477 Z"/>
  </g>
  <g id="Heavy-S" transform="matrix(1 0 0 1 2590.81 696)">
   <path d="M 24.9023 -80.7129 L 65.4297 -80.7129 C 65.0391 -84.8633 62.3047 -87.2559 57.959 -87.2559 L 32.4219 -87.2559 C 28.0273 -87.2559 25.293 -84.8633 24.9023 -80.7129 Z M 18.5547 -67.6758 L 71.6797 -67.6758 C 71.2402 -72.0215 68.7012 -74.707 63.5742 -74.707 L 26.709 -74.707 C 21.5332 -74.707 19.043 -72.0215 18.5547 -67.6758 Z M 24.3652 11.5234 L 67.7734 11.5234 C 76.709 11.5234 81.9824 6.25 81.9824 -3.02734 L 81.9824 -46.1914 C 81.9824 -55.4199 76.709 -60.6934 67.4316 -60.6934 L 24.3652 -60.6934 C 15.0879 -60.6934 9.76562 -55.4199 9.76562 -46.1914 L 9.76562 -3.02734 C 9.76562 6.25 15.0879 11.5234 24.3652 11.5234 Z M 42.1875 -14.209 C 40.5273 -15.0879 38.1836 -15.6738 35.5957 -15.6738 C 29.1992 -15.6738 23.9746 -11.8652 22.2656 -7.61719 L 22.2656 -44.3848 C 22.2656 -47.1191 23.5352 -48.2422 26.0742 -48.2422 L 65.6738 -48.2422 C 68.2129 -48.2422 69.5312 -47.1191 69.5312 -44.3848 L 69.5312 -10.7422 C 66.7969 -13.5254 62.4512 -15.625 56.9824 -15.625 C 47.5098 -15.625 41.3574 -9.27734 41.3574 -4.05273 C 41.3574 -2.34375 42.1875 -1.17188 43.0176 -0.976562 L 38.0859 -0.976562 C 35.9375 -3.95508 37.5488 -10.3027 42.1875 -14.209 Z M 56.9824 -18.9941 C 61.2305 -18.9941 64.5996 -22.6562 64.5996 -27.2461 C 64.5996 -31.7383 61.2305 -35.3516 56.9824 -35.3516 C 52.7832 -35.3516 49.4141 -31.6895 49.4141 -27.2461 C 49.4141 -22.6562 52.7832 -18.9941 56.9824 -18.9941 Z M 35.5957 -18.6523 C 39.3066 -18.6523 42.2363 -21.7773 42.2363 -25.7812 C 42.2363 -29.6387 39.3066 -32.8613 35.5957 -32.8613 C 32.0312 -32.8613 29.0039 -29.6387 29.0527 -25.7812 C 29.0527 -21.7773 31.9824 -18.6523 35.5957 -18.6523 Z"/>
  </g>
  <g id="Bold-S" transform="matrix(1 0 0 1 2294.71 696)">
   <path d="M 25 -79.0527 L 64.2578 -79.0527 C 63.916 -83.0566 61.4258 -85.2539 57.1289 -85.2539 L 32.0801 -85.2539 C 27.832 -85.2539 25.3418 -83.0566 25 -79.0527 Z M 18.4082 -66.6504 L 70.6543 -66.6504 C 70.1172 -70.8984 67.8223 -73.3887 62.9395 -73.3887 L 26.123 -73.3887 C 21.2402 -73.3887 18.9453 -70.8984 18.4082 -66.6504 Z M 23.6328 10.9375 L 67.627 10.9375 C 75.8789 10.9375 80.7617 6.05469 80.7617 -2.83203 L 80.7617 -46.3379 C 80.7617 -55.2246 75.8789 -60.0586 66.9434 -60.0586 L 23.6328 -60.0586 C 14.6973 -60.0586 9.76562 -55.2246 9.76562 -46.3379 L 9.76562 -2.83203 C 9.76562 6.05469 14.6973 10.9375 23.6328 10.9375 Z M 41.4062 -13.3789 C 39.6973 -14.4531 37.207 -15.0879 34.3262 -15.0879 C 27.3438 -15.0879 21.9727 -10.8398 20.3613 -6.20117 L 20.3613 -45.0195 C 20.3613 -48.0957 21.9238 -49.4629 24.8047 -49.4629 L 65.7715 -49.4629 C 68.6035 -49.4629 70.166 -48.0957 70.166 -45.0195 L 70.166 -9.375 C 67.3828 -12.5977 62.6465 -15.0391 56.5918 -15.0391 C 46.6797 -15.0391 40.2832 -8.30078 40.2832 -2.68555 C 40.2832 -0.927734 41.2109 0.146484 41.9922 0.341797 L 36.9141 0.341797 C 34.7656 -2.7832 36.8652 -9.66797 41.4062 -13.3789 Z M 56.5918 -18.8477 C 60.9375 -18.8477 64.4531 -22.6562 64.4531 -27.4414 C 64.4531 -32.1777 60.8887 -35.8398 56.5918 -35.8398 C 52.3438 -35.8398 48.7305 -32.1289 48.7305 -27.3926 C 48.7305 -22.6562 52.2949 -18.8477 56.5918 -18.8477 Z M 34.3262 -18.4082 C 38.0859 -18.4082 41.1621 -21.7285 41.1621 -25.9277 C 41.1621 -30.0293 38.0859 -33.252 34.3262 -33.252 C 30.6152 -33.252 27.4902 -29.9805 27.4902 -25.8789 C 27.4902 -21.7285 30.6152 -18.4082 34.3262 -18.4082 Z"/>
  </g>
  <g id="Semibold-S" transform="matrix(1 0 0 1 1998.42 696)">
   <path d="M 25.0488 -77.8809 L 63.4277 -77.8809 C 63.1348 -81.7871 60.791 -83.8379 56.5918 -83.8379 L 31.8848 -83.8379 C 27.7344 -83.8379 25.3906 -81.7871 25.0488 -77.8809 Z M 18.3105 -65.9668 L 69.9707 -65.9668 C 69.3359 -70.1172 67.2363 -72.5098 62.5 -72.5098 L 25.7324 -72.5098 C 20.9961 -72.5098 18.8965 -70.1172 18.3105 -65.9668 Z M 23.0957 10.498 L 67.5293 10.498 C 75.293 10.498 79.9316 5.9082 79.9316 -2.68555 L 79.9316 -46.4355 C 79.9316 -55.0781 75.293 -59.6191 66.6016 -59.6191 L 23.0957 -59.6191 C 14.4043 -59.6191 9.76562 -55.0781 9.76562 -46.4355 L 9.76562 -2.68555 C 9.76562 5.95703 14.4043 10.498 23.0957 10.498 Z M 40.918 -12.8418 C 39.0625 -14.0625 36.4746 -14.6973 33.4473 -14.6973 C 26.0254 -14.6973 20.6055 -10.1562 19.0918 -5.17578 L 19.0918 -45.459 C 19.0918 -48.7793 20.752 -50.3418 23.877 -50.3418 L 65.8203 -50.3418 C 68.8965 -50.3418 70.6055 -48.7793 70.6055 -45.459 L 70.6055 -8.39844 C 67.8223 -11.9141 62.793 -14.6484 56.3477 -14.6484 C 46.0938 -14.6484 39.5508 -7.66602 39.5508 -1.75781 C 39.5508 0 40.5273 1.07422 41.2598 1.2207 L 36.1328 1.2207 C 33.9844 -1.95312 36.377 -9.27734 40.918 -12.8418 Z M 56.3477 -18.75 C 60.7422 -18.75 64.4043 -22.6074 64.4043 -27.5879 C 64.4043 -32.5195 60.6934 -36.1816 56.3477 -36.1816 C 52.002 -36.1816 48.291 -32.4219 48.291 -27.5391 C 48.291 -22.6074 52.002 -18.75 56.3477 -18.75 Z M 33.4473 -18.2617 C 37.2559 -18.2617 40.4297 -21.6309 40.4297 -25.9766 C 40.4297 -30.2734 37.207 -33.4961 33.4473 -33.4961 C 29.6387 -33.4961 26.416 -30.1758 26.416 -25.9766 C 26.416 -21.6309 29.6387 -18.2617 33.4473 -18.2617 Z"/>
  </g>
  <g id="Medium-S" transform="matrix(1 0 0 1 1702.05 696)">
   <path d="M 25.0977 -77.002 L 62.8418 -77.002 C 62.5488 -80.8105 60.3027 -82.8125 56.2012 -82.8125 L 31.7383 -82.8125 C 27.6367 -82.8125 25.3906 -80.8105 25.0977 -77.002 Z M 18.2129 -65.4785 L 69.4336 -65.4785 C 68.75 -69.5312 66.748 -71.7773 62.207 -71.7773 L 25.4395 -71.7773 C 20.8496 -71.7773 18.8477 -69.5312 18.2129 -65.4785 Z M 22.7051 10.2051 L 67.4316 10.2051 C 74.9023 10.2051 79.248 5.85938 79.248 -2.58789 L 79.248 -46.4844 C 79.248 -54.9316 74.8535 -59.3262 66.3086 -59.3262 L 22.7051 -59.3262 C 14.209 -59.3262 9.76562 -54.9316 9.76562 -46.4844 L 9.76562 -2.58789 C 9.76562 5.85938 14.209 10.2051 22.7051 10.2051 Z M 40.5273 -12.4512 C 38.623 -13.7207 35.9375 -14.4043 32.7637 -14.4043 C 25.0488 -14.4043 19.5801 -9.61914 18.0664 -4.3457 L 18.0664 -45.8008 C 18.0664 -49.2676 19.9219 -50.9766 23.1934 -50.9766 L 65.8203 -50.9766 C 69.0918 -50.9766 70.9473 -49.2676 70.9473 -45.8008 L 70.9473 -7.61719 C 68.1152 -11.377 62.9395 -14.3555 56.1523 -14.3555 C 45.6055 -14.3555 39.0137 -7.12891 39.0137 -1.07422 C 39.0137 0.732422 40.0391 1.75781 40.7715 1.85547 L 35.5469 1.85547 C 33.3984 -1.36719 36.0352 -8.93555 40.5273 -12.4512 Z M 56.1523 -18.6523 C 60.5469 -18.6523 64.3555 -22.6074 64.3555 -27.6855 C 64.3555 -32.7148 60.5469 -36.4746 56.1523 -36.4746 C 51.7578 -36.4746 47.9004 -32.6172 47.9004 -27.5879 C 47.9004 -22.6074 51.7578 -18.6523 56.1523 -18.6523 Z M 32.7637 -18.1641 C 36.5723 -18.1641 39.8926 -21.582 39.8926 -26.0742 C 39.8926 -30.4688 36.5723 -33.6914 32.7637 -33.6914 C 28.9551 -33.6914 25.5859 -30.3711 25.5859 -26.0254 C 25.5859 -21.582 28.9062 -18.1641 32.7637 -18.1641 Z"/>
  </g>
  <g id="Regular-S" transform="matrix(1 0 0 1 1405.75 696)">
   <path d="M 25.1465 -75.8789 L 62.0117 -75.8789 C 61.7676 -79.5898 59.668 -81.4453 55.6641 -81.4453 L 31.543 -81.4453 C 27.4902 -81.4453 25.4395 -79.5898 25.1465 -75.8789 Z M 18.1152 -64.7949 L 68.7012 -64.7949 C 68.0176 -68.7988 66.1621 -70.8984 61.7676 -70.8984 L 25.0488 -70.8984 C 20.6543 -70.8984 18.7988 -68.7988 18.1152 -64.7949 Z M 22.2168 9.76562 L 67.3828 9.76562 C 74.3164 9.76562 78.418 5.71289 78.418 -2.49023 L 78.418 -46.6309 C 78.418 -54.7852 74.2676 -58.8867 65.9668 -58.8867 L 22.2168 -58.8867 C 13.916 -58.8867 9.76562 -54.834 9.76562 -46.6309 L 9.76562 -2.49023 C 9.76562 5.71289 13.916 9.76562 22.2168 9.76562 Z M 40.1367 2.73438 L 34.7656 2.73438 C 32.6172 -0.585938 35.5469 -8.54492 39.9902 -11.9141 C 38.0371 -13.3301 35.2539 -14.0137 31.8848 -14.0137 C 23.7793 -14.0137 18.2129 -8.88672 16.7969 -3.27148 L 16.7969 -46.2402 C 16.7969 -49.9512 18.7988 -51.8555 22.3145 -51.8555 L 65.8691 -51.8555 C 69.3848 -51.8555 71.3867 -49.9512 71.3867 -46.2402 L 71.3867 -6.5918 C 68.6035 -10.6445 63.0859 -13.9648 55.8594 -13.9648 C 45.0195 -13.9648 38.2812 -6.49414 38.2812 -0.146484 C 38.2812 1.75781 39.4531 2.73438 40.1367 2.73438 Z M 55.8594 -18.5547 C 60.3516 -18.5547 64.2578 -22.5586 64.2578 -27.832 C 64.2578 -33.0566 60.3516 -36.7676 55.8594 -36.7676 C 51.4648 -36.7676 47.4609 -32.9102 47.4609 -27.7344 C 47.4609 -22.5586 51.4648 -18.5547 55.8594 -18.5547 Z M 31.8848 -18.0176 C 35.7422 -18.0176 39.1602 -21.5332 39.1602 -26.123 C 39.1602 -30.6641 35.7422 -33.9355 31.8848 -33.9355 C 27.9785 -33.9355 24.5117 -30.6152 24.5117 -26.0742 C 24.5117 -21.5332 27.9785 -18.0176 31.8848 -18.0176 Z"/>
  </g>
  <g id="Light-S" transform="matrix(1 0 0 1 1109.85 696)">
   <path d="M 24.3164 -75.2441 L 61.5723 -75.2441 C 61.377 -78.0762 59.7168 -79.6387 56.6406 -79.6387 L 29.248 -79.6387 C 26.1719 -79.6387 24.5117 -78.0762 24.3164 -75.2441 Z M 17.7246 -65.0391 L 67.9199 -65.0391 C 67.4316 -68.0664 65.9668 -69.8242 62.5977 -69.8242 L 23.0469 -69.8242 C 19.6777 -69.8242 18.2129 -68.0664 17.7246 -65.0391 Z M 21.3867 8.25195 L 66.1133 8.25195 C 72.9004 8.25195 76.8066 4.3457 76.8066 -3.27148 L 76.8066 -47.3145 C 76.8066 -54.9316 72.9004 -58.8379 65.1855 -58.8379 L 21.3867 -58.8379 C 13.6719 -58.8379 9.76562 -54.9805 9.76562 -47.3145 L 9.76562 -3.27148 C 9.76562 4.39453 13.6719 8.25195 21.3867 8.25195 Z M 39.2578 2.7832 L 34.8145 2.7832 C 32.5195 0.0976562 35.0098 -7.8125 39.6973 -11.5723 C 37.5488 -13.2324 34.5215 -14.209 30.6152 -14.209 C 22.7051 -14.209 16.748 -9.375 15.1855 -4.29688 L 15.1855 -47.0215 C 15.1855 -51.2207 17.4316 -53.3691 21.4844 -53.3691 L 65.0879 -53.3691 C 69.0918 -53.3691 71.3867 -51.2207 71.3867 -47.0215 L 71.3867 -7.17773 C 68.6523 -10.8887 62.7441 -14.1602 55.4199 -14.1602 C 44.2871 -14.1602 37.3535 -6.49414 37.3535 0 C 37.3535 1.9043 38.5254 2.7832 39.2578 2.7832 Z M 55.4688 -18.7988 C 60.1074 -18.7988 63.9648 -22.9004 63.9648 -28.2715 C 63.9648 -33.4961 60.0586 -37.4512 55.4688 -37.4512 C 50.8301 -37.4512 46.875 -33.3984 46.875 -28.1738 C 46.875 -22.9004 50.7812 -18.7988 55.4688 -18.7988 Z M 30.6641 -18.2617 C 34.7168 -18.2617 38.0859 -21.8262 38.0859 -26.5625 C 38.0859 -31.1035 34.668 -34.5215 30.6641 -34.5215 C 26.6602 -34.5215 23.1934 -31.0547 23.1934 -26.5137 C 23.1934 -21.8262 26.6113 -18.2617 30.6641 -18.2617 Z"/>
  </g>
  <g id="Thin-S" transform="matrix(1 0 0 1 814.186 696)">
   <path d="M 23.1934 -74.4141 L 60.9863 -74.4141 C 60.8887 -76.123 59.8145 -77.2949 57.959 -77.2949 L 26.2207 -77.2949 C 24.3652 -77.2949 23.291 -76.123 23.1934 -74.4141 Z M 17.2363 -65.3809 L 66.8945 -65.3809 C 66.6992 -67.1875 65.6738 -68.4082 63.7207 -68.4082 L 20.3613 -68.4082 C 18.4082 -68.4082 17.3828 -67.1875 17.2363 -65.3809 Z M 20.3125 6.20117 L 64.502 6.20117 C 71.0938 6.20117 74.707 2.53906 74.707 -4.29688 L 74.707 -48.2422 C 74.707 -55.0781 71.0938 -58.7402 64.1602 -58.7402 L 20.3125 -58.7402 C 13.3789 -58.7402 9.76562 -55.127 9.76562 -48.2422 L 9.76562 -4.29688 C 9.76562 2.58789 13.3789 6.20117 20.3125 6.20117 Z M 38.1348 2.88086 L 34.8145 2.88086 C 32.373 0.927734 34.3262 -6.93359 39.3066 -11.1328 C 36.9141 -13.1348 33.5449 -14.4531 29.0039 -14.4531 C 21.3379 -14.4531 14.7949 -10.0098 13.0859 -5.66406 L 13.0859 -48.0469 C 13.0859 -52.9297 15.625 -55.4199 20.4102 -55.4199 L 64.0625 -55.4199 C 68.7012 -55.4199 71.3867 -52.9297 71.3867 -48.0469 L 71.3867 -8.25195 C 68.8477 -11.2793 62.2559 -14.4043 54.8828 -14.4043 C 43.3594 -14.4043 36.1328 -6.49414 36.1328 0.195312 C 36.1328 2.14844 37.3535 2.88086 38.1348 2.88086 Z M 54.8828 -19.0918 C 59.7656 -19.0918 63.5742 -23.291 63.5742 -28.8086 C 63.5742 -34.0332 59.668 -38.3301 54.8828 -38.3301 C 50.0488 -38.3301 46.0449 -34.0332 46.1426 -28.8086 C 46.1426 -23.291 49.9512 -19.0918 54.8828 -19.0918 Z M 29.1016 -18.6035 C 33.3496 -18.6035 36.6699 -22.2656 36.6699 -27.0508 C 36.6699 -31.6406 33.252 -35.3027 29.1016 -35.3027 C 24.8535 -35.3027 21.4355 -31.5918 21.4844 -27.0508 C 21.4844 -22.2656 24.8047 -18.6035 29.1016 -18.6035 Z"/>
  </g>
  <g id="Ultralight-S" transform="matrix(1 0 0 1 518.036 696)">
   <path d="M 22.6562 -73.9746 L 60.6445 -73.9746 C 60.6445 -75.1465 59.8633 -76.123 58.6426 -76.123 L 24.6582 -76.123 C 23.4375 -76.123 22.6562 -75.1465 22.6562 -73.9746 Z M 16.9434 -65.5273 L 66.3574 -65.5273 C 66.3086 -66.6992 65.5273 -67.6758 64.2578 -67.6758 L 18.9941 -67.6758 C 17.7734 -67.6758 16.9922 -66.6992 16.9434 -65.5273 Z M 19.7754 5.12695 L 63.6719 5.12695 C 70.1172 5.12695 73.584 1.5625 73.584 -4.83398 L 73.584 -48.7305 C 73.584 -55.1758 70.1172 -58.6914 63.623 -58.6914 L 19.7754 -58.6914 C 13.2324 -58.6914 9.76562 -55.2734 9.76562 -48.7305 L 9.76562 -4.83398 C 9.76562 1.66016 13.2324 5.12695 19.7754 5.12695 Z M 37.5488 2.92969 L 34.8633 2.92969 C 32.2754 1.36719 33.9844 -6.44531 39.1113 -10.8887 C 36.5723 -13.0371 33.0078 -14.5996 28.1738 -14.5996 C 20.6055 -14.5996 13.8184 -10.3027 11.9629 -6.34766 L 11.9629 -48.584 C 11.9629 -53.8086 14.6484 -56.4941 19.873 -56.4941 L 63.5254 -56.4941 C 68.5059 -56.4941 71.3867 -53.8086 71.3867 -48.584 L 71.3867 -8.98438 C 69.043 -11.5723 62.0117 -14.502 54.541 -14.502 C 42.8223 -14.502 35.498 -6.49414 35.498 0.292969 C 35.498 2.24609 36.7676 2.92969 37.5488 2.92969 Z M 54.5898 -19.2383 C 59.5703 -19.2383 63.3789 -23.5352 63.3789 -29.1504 C 63.3789 -34.375 59.4727 -38.8184 54.5898 -38.8184 C 49.6094 -38.8184 45.6543 -34.3262 45.752 -29.1504 C 45.752 -23.5352 49.5117 -19.2383 54.5898 -19.2383 Z M 28.2715 -18.75 C 32.6172 -18.75 35.9375 -22.4609 35.9375 -27.3438 C 35.9375 -31.9336 32.5195 -35.6934 28.2715 -35.6934 C 23.9258 -35.6934 20.5078 -31.9336 20.5566 -27.3438 C 20.5566 -22.4609 23.877 -18.75 28.2715 -18.75 Z"/>
  </g>
 </g>
</svg>
